<svg width="242" height="257" viewBox="0 0 242 257" fill="none" xmlns="http://www.w3.org/2000/svg">
<path d="M195.066 191.983C164.286 187.767 136.006 187.993 105.16 193.349C80.1448 197.692 48.2302 203.781 23.1196 196.24C6.27958 191.183 19.9043 190.489 30.6551 189.534C56.7219 187.22 83.7053 187.621 109.271 181.351C132.285 175.707 148.995 166.934 172.411 170.712C184.332 172.635 157.888 188.275 157.036 188.792C140.49 198.85 123.779 205.158 104.521 207.841C98.4307 208.689 36.6065 211.004 35.9736 207.197C31.2022 178.502 56.759 150.859 61.1668 123.173C64.4183 102.75 68.0664 78.6958 84.4477 64.568C101.187 50.1311 111.18 50.7563 120.489 71.6363C127.446 87.2428 130.353 100.647 142.571 113.465C155.845 127.39 167.949 142.514 178.563 158.545C182.705 164.801 186.372 173.29 191.251 178.9C197.773 186.399 185.028 160.013 181.426 150.75C171.995 126.506 159.701 102.863 147.987 79.6651C141.062 65.9516 137.136 54.8433 127.833 42.5865C122.721 35.8521 110.501 22.4857 105.358 36.3674C103.344 41.8037 99.4583 47.0197 94.8801 50.6328C88.082 55.9978 84.0746 64.3704 80.4696 72.322C70.6709 93.9351 64.3086 114.975 61.0973 138.415C59.7464 148.276 56.0109 160.323 60.9779 169.576C65.9991 178.93 68.9547 181.21 74.8589 170.581C86.3111 149.964 93.4238 125.454 101.138 103.191C103.164 97.3438 104.102 91.1653 105.733 85.2035C106.941 80.7849 104.592 70.6795 109.019 71.8594C115.501 73.5873 97.284 154.242 96.0613 163.168C92.3093 190.555 129.426 165.011 138.279 159.531C139.664 158.674 160.624 145.17 159.471 144.827C147.733 141.339 133.84 141.203 121.727 139.544C115.379 138.674 109.031 137.805 102.683 136.935C97.8618 136.274 116.287 140.168 118.814 141.164C131.159 146.028 141.575 156.125 152.944 162.998C164.811 170.172 178.665 174.769 189.767 183.183C198.057 189.465 201.139 191.861 199.638 202.815C196.488 225.815 159.679 220.162 143.902 219.179C127.06 218.13 112.09 225.107 95.7078 224.689C82.5706 224.354 70.1542 223.319 57.0023 221.518C42.4223 219.52 63.1628 173.407 66.0131 168.023C72.6275 155.529 84.1765 144.572 92.557 133.08C96.9002 127.125 99.2752 119.297 103.949 113.781C113.557 102.44 125.901 97.4923 129.673 116.745C132.185 129.566 135.782 145.007 130.979 157.97C126.685 169.559 102.267 161.164 106.632 159.681" stroke="#FFFF00" stroke-width="30" stroke-linecap="round"/>
<path d="M35.4339 222.6C64.4648 226.577 98.3606 234.028 127.686 230.304C146.962 227.856 164.054 221.257 183.569 220.24C193.679 219.713 199.433 219.053 200.881 208.481C203.046 192.677 200.191 180.321 194.818 165.146C189.761 150.865 184.3 138.521 174.75 126.621C164.037 113.271 158.906 98.2276 153.109 82.3856C145.812 62.4411 146.359 41.6805 129.91 26.6094C112.322 10.4959 95.9459 14.842 83.5616 33.3814C75.1225 46.0146 70.5685 61.0083 66.1409 75.4058C59.496 97.0136 47.7522 115.5 36.4541 134.927C26.0126 152.881 20.2556 171.305 17.468 191.653C16.4103 199.374 10.5445 217.135 15.076 223.848C23.8931 236.911 42.7047 231.897 55.7464 229.869C79.3176 226.204 103.009 223.885 126.622 220.065C152.041 215.952 180.886 216.224 206.575 217.672C237.478 219.414 190.841 128.813 183.145 113.64C176.97 101.465 173.476 87.9296 167.496 75.6088C161.96 64.2038 155.359 51.9784 148.081 41.323C140.205 29.7941 129.489 20.1333 118.734 12.4056C104.388 2.09781 78.492 37.7898 73.6148 47.0466C61.7514 69.5629 47.6975 88.8759 44.1481 114.785C40.5789 140.838 37.0098 166.891 33.4406 192.944C31.8379 204.643 24.3451 221.081 39.3969 223.143" stroke="black" stroke-width="5" stroke-linecap="round"/>
<path d="M109.971 150.045C112.571 131.063 109.068 112.425 111.627 93.7493C112.374 88.2921 112.474 93.013 113.512 96.3626C116.638 106.45 118.721 115.829 119.263 126.421C119.493 130.91 123.367 172.751 116.921 150.885C112.393 135.528 111.712 116.758 112.783 100.861C114.493 75.4973 119.686 104.822 119.851 113.941C119.896 116.403 118.378 146.936 115.387 146.526C108.969 145.647 111.119 126.925 111.729 122.473C112.564 116.382 113.398 110.291 114.233 104.2C115.292 96.4648 123.569 101.812 124.84 106.999C126.993 115.783 131.633 157.505 115.835 158.811C97.9364 160.292 102.553 130.516 103.999 119.957C105.011 112.575 104.748 103.401 107.337 96.4138C108.673 92.8062 116.069 90.1422 117.571 94.5636" stroke="black" stroke-width="10" stroke-linecap="round"/>
<path d="M110.759 188.508C118.344 189.547 113.567 201.959 106.892 201.997C99.0561 202.042 99.4922 191.715 106.024 190.327C118.804 187.611 109.262 196.469 108.495 191.114C107.238 182.329 122.596 190.13 112.74 188.78" stroke="black" stroke-width="10" stroke-linecap="round"/>
<path d="M109.808 121.762C111.256 111.194 112.704 100.626 114.152 90.0578C114.498 87.5273 113.976 73.2256 108.235 77.5837C105.041 80.0075 106.691 91.3076 107.529 94.1972C108.644 98.0451 109.93 105.113 112.699 108.027C118.036 113.643 116.4 122.086 115.412 107.053C115.037 101.347 112.134 91.9383 113.533 86.3844C113.928 84.8184 118.958 87.3221 119.498 87.8743C122.802 91.2573 120.734 95.2201 122.093 99.2204C124.693 106.875 127.178 112.855 126.068 120.961C124.788 130.302 120.468 111.039 119.675 107.861C118.702 103.959 114.77 80.406 109.565 79.336C107.481 78.9077 119.767 79.7824 120.953 81.3447C123.432 84.6105 118.825 96.5542 118.849 100.795C118.945 117.57 124.176 134.77 121.86 151.674" stroke="black" stroke-width="10" stroke-linecap="round"/>
</svg>
