<svg width="190" height="283" viewBox="0 0 190 283" fill="none" xmlns="http://www.w3.org/2000/svg">
<path d="M116 114C116 102.667 119.192 92.8862 121.444 81.9444C123.667 71.1471 126.589 61.8222 131.5 52C134.238 46.5242 138.643 43.8951 142.5 39.4444C148.438 32.5931 154.438 25.4989 159.555 18.0556C160.157 17.1805 164.779 13.0915 163.889 14.7778C153.696 34.0903 140.947 52.1941 128.667 70.2222C117.94 85.9698 113.765 103.092 107.556 120.833C106.43 124.05 106 125.867 106 129.5C106 133.754 109.148 127.294 110.222 126C114.554 120.783 117.517 116.806 120.056 110.333C124.744 98.3782 128.273 86.4319 135 75.5C140.299 66.8892 139.67 55.6907 141.444 46.0556C143.593 34.3943 149.614 27.5338 159 21.5C161.961 19.5966 166.211 17.6868 168 14.5556C170.268 10.5857 175.71 11 167.333 11C158.54 11 149.812 12 141 12C135.138 12 129.422 11 123.611 11C116.576 11 109.41 10.6026 102.389 11.0556C90.865 11.799 79.7919 15.0366 68.4444 15.9444C59.2867 16.6771 49.7978 16 40.6111 16C35.7222 16 30.8333 16 25.9444 16C19.0226 16 17.3828 18.881 11.5555 21C8.31322 22.179 11.629 24.031 12.7777 25.2222C15.9968 28.5606 17.8972 33.4446 19.9999 37.5C26.2786 49.6088 29.2075 62.7142 33.9444 75.4444C40.9498 94.2716 36.7361 117.508 48.4999 134.5C51.4419 138.749 54.1912 143.204 57.0555 147.5C59.4094 151.031 64.2388 152.275 66.4444 156.056C66.7273 156.541 66.9999 158.221 66.9999 156.611C66.9999 148.013 63.3814 139.221 60.6666 131.222C55.7866 116.845 48.1682 102.887 44.6111 88.1111C41.5069 75.2169 39.2797 61.9173 32.9999 50.0556C30.6228 45.5654 28.2097 40.9988 26.4444 36.2222C24.9864 32.2771 25.9999 26.709 25.9999 22.5556C25.9999 17.9912 26.0588 16.0631 28.9999 21.8889C35.3764 34.5192 40.3506 47.8624 46.4999 60.6111C57.4885 83.3923 61.6524 107.735 69.5555 131.444C71.5407 137.4 72.5454 142.925 73.9999 149C74.3666 150.531 75.3985 160.561 76.4999 161.222C76.6561 161.316 73.3824 148.06 72.9444 146.833C68.7624 135.124 65.0946 123.044 61.9999 111C59.0784 99.6297 56.8228 88.3921 55.9999 76.6667C55.6345 71.4591 55.0794 66.0766 53.7777 61C51.2128 50.9967 49.2963 40.3732 48.9999 30C48.9285 27.5009 47.9999 25.2606 47.9999 22.6667C47.9999 22.1046 48.5706 23.6458 48.6111 23.7222C51.0975 28.4188 53.4371 33.2299 55.7777 38C68.9967 64.94 78.2269 94.3106 84.7777 123.556C86.2705 130.22 87.1748 136.818 88.4999 143.444C88.8718 145.304 88.9999 151.007 88.9999 149.111C88.9999 117.026 81.9999 85.3592 81.9999 53.2222C81.9999 44.1825 81.9996 35.1094 80.2222 26.2222C80.0812 25.5172 78.3577 18.8236 77.4999 19.1667C73.907 20.6038 77.845 50.8124 78.2222 54.2222C80.2384 72.4488 81.6292 90.3348 82.0555 108.667C82.2044 115.07 82.2181 122.206 83.7777 128.444C84.2681 130.406 84.9533 133.68 86.0555 135.333C87.0573 136.836 87.2183 131.895 87.4999 130.111C88.7445 122.229 89.6144 114.31 90.9999 106.444C92.7077 96.7502 93.8201 87.0594 95.9444 77.5C97.3144 71.3349 99.0911 65.3171 99.7777 59C100.624 51.2127 101 43.5842 101 35.7778C101 31.3541 100.097 25.9258 101.056 21.6111C101.719 18.6246 103 24.9308 103 25.4444C103 58.072 102 90.6107 102 123.222C102 127.139 103.035 132.629 101.944 136.444C101.937 136.471 101 123.332 101 121C101 95.6554 102.067 71.2718 108.778 46.6667C110.401 40.7141 113.704 33.9932 118 29.4444C120.633 26.656 122.651 23.5864 124.389 20.1111C126.599 15.6899 123.408 28.0105 123 29.2222C113.916 56.1996 106.811 83.9251 95.2222 110C94.5759 111.454 93.9999 113.913 93.9999 115.5C93.9999 116.667 93.9605 102.537 93.9999 100C94.3704 76.1688 103.195 50.4437 115.778 30.2222C120.011 23.4186 128.371 13.4924 137 14C139.633 14.1549 133.827 22.8619 132.556 24C130.05 26.2419 123.927 24.8986 120.944 25.0556C113.66 25.4389 106.541 26 99.2222 26C93.4814 26 87.7407 26 81.9999 26C78.9159 26 73.9166 25.0556 70.9999 26.2222C67.943 27.445 63.9817 27.4808 62.2222 31C60.2908 34.8628 68.7054 35.5711 68.9999 38.2222C69.8631 45.9902 75.4903 54.471 77.9999 62" stroke="#001AFF" stroke-width="20" stroke-linecap="round"/>
<path d="M111 236C99.0321 243.428 86.9594 247.551 73 248.778C68.7352 249.153 64.3808 249.625 62.2222 245.111C57.4902 235.217 59.0401 221.454 59 210.889C58.9637 201.363 57.9858 191.145 59.2222 181.667C59.4469 179.944 60.3915 176.941 62.2222 176.222C65.863 174.792 70.6304 174.457 74.4444 174.222C86.7009 173.467 100.723 172.576 112.778 175.222C128.043 178.573 134.889 192.867 134.889 207.444C134.889 224.263 118.075 233.031 104.056 237.389C95.8631 239.935 76.917 244.652 73.1666 233.167C70.7528 225.774 72 216.771 72 209.111C72 200.895 72.5511 193.24 80.4444 188.667C86.7696 185.002 95.6629 184.736 102.778 185C112.073 185.344 116.954 191.185 121 199C125.439 207.574 132.486 226.447 122.556 234C109.417 243.993 92.2451 238.711 83 226.556C77.1327 218.841 73.201 210.137 71.2222 200.667C70.4483 196.963 67.7857 187.562 72.2777 185.167C76.7382 182.788 84.5789 183.678 89.3888 184.167C96.5854 184.899 101.862 189.752 105.833 195.5C111.704 203.997 114.544 214.099 112.889 224.444C111.813 231.167 99.428 232.344 94.5 230.278C86.0219 226.722 83.09 209.662 85.2222 201.667C86.3657 197.379 107.816 200 112.778 200C120.004 200 111.479 226.043 109.778 229.333C108.187 232.41 95.4088 249.363 92 238.778C89.2902 230.363 92.9663 227 100.889 227C108.696 227 112.532 241.081 106.389 245.889C101.08 250.043 93.2112 250.741 86.8333 251.5C76.7689 252.698 63.0681 253.858 53.2222 251C43.9001 248.294 35.1223 233.6 31.7777 225C28.7814 217.295 23.8682 209.308 25.2222 200.778C26.604 192.072 32.9587 187.79 39.5 182.944C55.4265 171.147 69.251 157.104 90 154.222C95.34 153.481 104.028 152.566 108.222 156.667C115.254 163.542 120.824 172.067 126.5 180.056C131.922 187.686 135.057 196.232 140 204C142.353 207.697 143.102 213.715 140.889 217.667C130.369 236.452 110.674 247.22 91 253.778C77.1501 258.394 59.7763 255.047 49.4444 245C41.8745 237.638 34.2141 228.689 33.2222 217.778C32.2373 206.944 29.8072 187.898 37.2222 179C44.9065 169.779 60.8648 168.46 71.9444 166.556C83.2992 164.604 98.8416 162.093 108.889 169C115.365 173.452 120.22 180.392 125 186.5C130.207 193.154 133.619 198.331 133.944 207.111C134.328 217.467 134.078 227.757 133 238C132.665 241.179 125.49 246.442 123.222 248.444C116.732 254.177 111.238 261.112 104.444 266.5C98.9812 270.833 91.8529 273 84.9444 273C73.707 273 66.147 267.648 57.4444 261C41.474 248.8 28.1963 230.415 28 210C27.9543 205.256 26.4774 196.881 28.4444 192.222C31.6809 184.557 40.8491 176.9 47.3889 172.056C52.8758 167.991 58.0719 163.247 62.4444 158C66.3431 153.322 72.119 150.494 77 146.944C82.9185 142.64 94.5657 137.489 102 141C111.553 145.511 121.154 149.487 129.778 155.556C136.661 160.4 140.366 165.97 145.444 172.5C147.876 175.626 147 184.192 147 187.667C147 200.258 148.169 213.475 146.778 226C145.64 236.242 144.626 247.291 136 254C124.56 262.898 108.333 264.315 95 259.5C83.0792 255.195 72.7547 246.605 61.3889 241C51.1348 235.943 34.0733 228.941 32.2222 215.778C31.1801 208.367 30.3318 196.499 32.4444 189.222C34.6583 181.597 46.7947 180.819 53.2222 180.222C58.3617 179.745 67.2583 177.985 70.5555 183.222C71.4399 184.627 71 187.114 71 188.667C71 194.411 71.874 200.96 69.8333 206.444C67.69 212.204 58.7585 218.982 52.5 219.944C50.8041 220.205 45.2724 221.891 45.0555 219.722C43.5967 205.134 46 190.371 46 175.778C46 163.314 61.4077 156.72 72 154C82.1946 151.382 93.2589 150.13 103.778 150C108.738 149.939 115.13 148.845 119.556 151.5C131.126 158.443 155 164.255 155 181C155 194.668 160.401 214.296 153.444 226.944C148.181 236.514 134.058 251 122.5 251C114.831 251 122.228 202.248 109.778 194.778C105.813 192.399 102.341 191.662 97.7777 192C92.2752 192.408 92 205.945 92 209.889C92 213.789 90.9549 216 95.5555 216C99.7037 216 103.852 216 108 216C117.627 216 120 239.108 120 245C120 255.187 116.183 260.797 105.778 263C90.9918 266.131 77.8671 261.353 65.1666 254C59.6353 250.798 55.465 245.592 49.9444 242.556C44.4884 239.555 39.3721 238.464 35.0555 233.5C28.3783 225.821 30 215.086 30 205.556C30 197.716 29.0379 190.652 33.2222 183.778C41.8216 169.65 53.694 159.687 68.7777 153.222C77.7801 149.364 87.6711 145 97.5 145C105.444 145 113.346 145.238 121.222 144.222C127.284 143.44 136.385 140.697 142.5 142.056C147.325 143.128 146.751 158.003 147.056 161.5C148.006 172.432 150 182.926 150 194C150 203.604 150.108 211.849 147 221C144.809 227.453 142.299 232.96 139.222 239C134.268 248.725 126.476 253.059 116.5 257.389C105.685 262.082 94.0727 262.746 82.4444 261.944C74.2566 261.38 69.4234 257.061 66 249.833C63.462 244.475 61.6403 238.388 60.6111 232.556C60.1143 229.741 58.5522 222.427 60.4444 219.778C64.198 214.523 78.1593 216.909 83.7777 217C90.5431 217.109 97.0598 222.652 101.889 226.944C112.674 236.531 94.3216 247 85 247" stroke="#FFFF00" stroke-width="20" stroke-linecap="round"/>
<path d="M62 235C62 227.535 69.1614 225.342 71.2222 219.778C72.8758 215.313 77.0691 210.768 80 207C83.4311 202.589 85.9271 197.046 88.7778 192.222C92.9572 185.149 95.9823 178.411 99 170.778C100.049 168.124 101.333 160.662 102.111 166.111C103.202 173.744 107.056 182.056 109.5 189.389C111.796 196.278 113.027 203.826 114.222 211C115.012 215.739 117.103 219.092 118.444 223.5C119.592 227.27 120.268 231.413 121.778 235C123.596 239.319 106.775 228.678 105 227C96.7493 219.199 88.0143 214.039 78.7778 208C72.4768 203.88 66.9428 198.079 60.5 194.5C58.5585 193.421 56.9294 192.38 55 191.222C54.2472 190.771 58.4111 191 59 191C63.0185 191 67.037 191 71.0556 191C84.9565 191 98.7169 189 112.5 189C117.678 189 122.297 188 127.5 188C129.519 188 133.556 185.981 133.556 188C133.556 188.207 126.047 193.448 125.222 193.778C119.16 196.202 113.472 202.528 109 207C102.912 213.088 94.6178 216.691 87 220.5C75.6762 226.162 65.975 236.008 54 240" stroke="#FFC700" stroke-width="5" stroke-linecap="round"/>
<path d="M52.9997 144C50.1101 130.997 41.4581 120.299 35.9441 108.444C31.7814 99.4945 27.1229 91.2079 24.7775 81.5556C22.9653 74.0979 23.6535 61.129 18.4997 54.9445C16.0398 51.9926 15.4446 46.7681 14.2219 43.2222C11.949 36.6307 8.6386 30.7473 6.22192 24.2222C5.35699 21.8869 4.00995 19.7731 2.99969 17.5C1.5171 14.1642 13.2923 13.6601 15.7775 13C33.7784 8.21852 52.7955 9.97003 70.9997 7.22223C76.1595 6.44339 81.7946 7.00001 86.9997 7.00001C93.0226 7.00001 98.9463 6.00001 105 6.00001C110.615 6.00001 118.759 6.98459 124 4.77779C131.572 1.58961 140.687 3.00001 148.777 3.00001C160.368 3.00001 171.959 6.35055 183 7.00001C184.774 7.10437 188.52 6.59844 185.444 8.55557C182.031 10.7278 178.967 12.0332 176 15C168.679 22.3208 164.567 28.7639 159.777 38C155.908 45.4624 151.242 52.4033 147.5 59.8889C145.822 63.2433 142.41 66.1014 142 70C141.151 78.0632 139.215 87.5839 137.222 95.5556C135.294 103.266 133.411 110.825 130.222 118C129.171 120.364 128 126.543 128 129" stroke="black" stroke-width="5" stroke-linecap="round"/>
<path d="M102 272C90.8159 272 79.6271 272.106 68.4441 272C58.01 271.902 48.2109 266.668 39.7774 260.778C25.0875 250.518 11.9996 234.083 11.9996 215.556C11.9996 205.894 10.9984 196.17 14.0552 187C18.1484 174.72 31.0862 165.582 39.2218 156C47.4507 146.308 56.8106 141.206 69.2218 138.778C81.1898 136.436 93.3253 133 105.555 133C116.337 133 128.75 132.862 137 141.111C144.051 148.162 147.553 158.933 153.222 167C156.321 171.41 159.229 176.875 161 182C162.891 187.474 162.615 193.356 164.222 198.778C166.133 205.228 165.96 215.079 162.944 221.111C155.559 235.88 151.447 252.642 139.777 264.778C131.562 273.322 119.198 276 107.555 276C97.7845 276 85.1368 278.046 75.9996 275" stroke="black" stroke-width="5" stroke-linecap="round"/>
<path d="M115 219C109.996 219 105.803 217.206 103 213.222C101.901 211.661 100.126 210.908 98.9997 209.5C96.9462 206.933 102.2 215.249 104 218C108.355 224.657 111.408 231.705 114.944 238.778C115.482 239.853 118.407 244.726 117.778 240.556C116.578 232.611 115.45 222.451 109.5 216.5C108.166 215.166 103.111 212.712 103.111 210.5C103.111 208.646 111.456 215.415 111.333 215.222C105.472 206.012 100.867 193.568 100.055 182.611C99.633 176.911 100.61 184.394 101 186C101.891 189.669 102.392 193.37 103.222 197C105.102 205.227 101.811 191.492 101.222 189.222C100.705 187.227 103.88 188.065 104.5 189.167C105.864 191.592 105.897 194.101 106 196.778C106.087 199.057 121.417 192 124.5 192C131.681 192 110.181 193.165 103.055 194.056C95.3246 195.022 87.9842 198 79.9997 198C69.6969 198 85.9596 201.587 88.9997 203C92.9868 204.853 96.5665 206.563 100.222 209C106.869 213.431 91.797 204.71 89.9997 203.778C87.2432 202.348 84.4784 200.916 81.4997 200C77.9696 198.914 78.5307 199 82.1108 199C87.5954 199 96.8199 198.88 99.9997 204.444C100.711 205.689 105.066 205 106.389 205C112.739 205 93.2898 205.48 87.4442 203C82.5456 200.922 76.9362 197.317 71.5553 197C69.4987 196.879 62.6529 195 63.222 195C65.4408 195 78.5553 197.776 78.5553 200.778C78.5553 203.006 74.3033 199.399 72.1108 199C70.3833 198.686 66.5973 197.068 70.6664 197C79.592 196.851 92.5336 197.645 99.3886 204.5C102.224 207.335 86.7876 214.623 83.222 217C79.4085 219.542 75.1683 221.655 71.9997 225C68.6683 228.516 77.5074 215.714 78.9997 214.056C81.722 211.031 85.4128 208.398 87.9442 205.444C91.4093 201.402 81.2791 212.109 80.1664 213.389C78.9443 214.794 75.1273 218.872 76.4442 217.556C78.6434 215.356 81.1353 213.514 83.4997 211.5C88.6589 207.105 93.6304 204.74 99.5553 201.778C101.667 200.722 106.424 212.869 108.778 215.222C110.442 216.886 111.689 219.256 113 221.222C114.727 223.814 118.255 227.398 118.944 230.5C119.196 231.635 120.67 235.336 121.5 236C121.729 236.183 122.588 237.943 122.555 237.778C121.78 233.902 116.514 228.57 114.444 225.333C106.612 213.084 99.9997 200.586 99.9997 186C99.9997 183.479 101.148 181.52 101 179C100.69 173.735 97.5355 182.238 97.222 182.778C92.9325 190.156 92.4797 194 83.5553 194C80.469 194 71.1295 188.413 68.6664 190.056C68.5844 190.11 79.4686 193.826 80.5553 194C87.0529 195.04 93.6193 195.45 99.9997 197.222C108.38 199.55 105.272 204.52 109 210.222C111.927 214.699 115 220.133 115 225.5C115 229.237 117.677 234.219 119.5 237.5C120.9 240.021 123 238.026 123 241.5C123 242.199 116.413 235.025 115.222 233C112.672 228.664 106.144 226.279 102.5 223.444C100.311 221.742 97.2046 220.153 94.6108 219C91.7413 217.725 95.7854 219.786 96.9997 221" stroke="#FFC700" stroke-width="5" stroke-linecap="round"/>
<path d="M60.0001 232C66.8993 230.911 65.7423 221.717 71.5557 220.056C76.354 218.685 69.427 224.684 67.6112 226.5C65.0665 229.045 61.5093 231.875 59.5001 235C55.7223 240.877 64.9615 237.262 66.0001 235.444C68.5653 230.955 77.5044 229.197 81.2223 226.222C84.6323 223.494 93.5717 219 98.0001 219" stroke="#FFC700" stroke-width="5" stroke-linecap="round"/>
<path d="M104 102C104 86.7355 104.531 71.9003 108.222 57C110.729 46.8799 113.595 34.5406 120 26" stroke="black" stroke-width="3" stroke-linecap="round"/>
<path d="M88 100C88 88.1111 88 76.2222 88 64.3333C88 54.1735 88.3044 43.9687 87.5 33.8333C87.2284 30.4108 87.4513 26.9025 86 24" stroke="black" stroke-width="3" stroke-linecap="round"/>
<path d="M74 104C74 97.8667 71.2413 92.0431 68.9444 86.4444C66.0361 79.3554 62.6629 71.01 58.5556 64.5556C54.6278 58.3833 53.1958 50.3916 50 44" stroke="black" stroke-width="3" stroke-linecap="round"/>
</svg>
