<svg width="299" height="278" viewBox="0 0 299 278" fill="none" xmlns="http://www.w3.org/2000/svg">
<path d="M99.7979 161.445C116.32 161.445 132.841 161.445 149.363 161.445C155.641 161.445 162.064 160.706 168.11 162.956C176.796 166.189 186.234 169 195.378 169C203.397 169 199.496 147.702 199.496 140.963C199.496 115.723 194.972 91.2872 194.384 66.2554C194.175 57.383 195.322 51.8278 188.845 45.7737C179.665 37.1931 163.602 48.9646 155.328 53.3284C146.449 58.0112 136.899 61.7179 127.208 63.0656C125.272 63.3349 122.539 62.5553 120.888 64.0729C114.819 69.6527 112.35 82.7222 110.734 91.1861C109.343 98.4679 110.023 106.421 110.023 113.85C110.023 120.456 118.864 125.491 122.805 129.631C127.97 135.058 139.788 133.626 145.742 131.142C155.892 126.907 162.617 119.139 173.862 119.139C176.549 119.139 184.854 121.62 183.377 116.033C180.445 104.943 169.359 94.4546 162.713 86.2335C158.37 80.8606 155.64 72.3752 148.085 76.3284C139.584 80.7761 134.182 91.6702 128.628 99.8321C126.868 102.419 124.023 107.052 121.243 108.226C119.227 109.077 116.65 107.767 116.414 111.248C115.858 119.467 118.557 120.386 124.51 124.511C133.875 131.001 121.844 133.917 116.13 135.759C109.637 137.852 101.125 138.497 94.4012 138.781C89.7673 138.977 87.0931 139.188 87.0161 132.905C86.8255 117.357 88.3171 103.201 92.1288 88.3321C94.5642 78.8318 95.9634 67.7574 95.9634 57.8613C95.9634 53.5261 96.5054 47.2971 97.3126 43.0036C97.609 41.4267 110.811 40.9038 112.509 40.5693C125.299 38.0495 136.954 40.5693 149.576 40.5693C156.497 40.5693 165.167 38.7457 171.376 42.416C177.163 45.8362 185.559 44.5534 188.987 52.6569C190.885 57.1455 191.5 64.9598 192.111 69.9489C193.794 83.6763 199.297 95.0582 204.041 107.555C210.493 124.551 211 138.801 211 156.912C211 165.072 190.615 161.445 185.294 161.445C161.861 161.445 138.428 161.445 114.994 161.445C107.833 161.445 100.112 164.802 92.7679 162.872C84.772 160.772 88.2943 133.878 88.2943 125.854C88.2943 110.56 89.6272 95.1684 91.1347 80.0219C91.9492 71.8379 92.1288 63.9057 92.1288 55.6788C92.1288 52.749 91.3798 47.8499 92.4129 45.1021C100.599 23.3287 133.779 31.5036 149.789 31.5036C161.482 31.5036 173.175 31.5036 184.868 31.5036C191.391 31.5036 197.779 32.0148 200.775 39.9817C209.585 63.415 205.887 93.9426 205.887 119.139" stroke="#FFFF00" stroke-width="60" stroke-linecap="round"/>
<path d="M259 239.309C234.087 239.309 209.103 238.56 184.203 239.395C168.834 239.91 153.761 244.531 138.419 245.804C125.507 246.875 112.722 247 99.7821 247C76.8547 247 53.9274 247 31 247" stroke="#FFFF00" stroke-width="60" stroke-linecap="round"/>
<path d="M46.0268 231.908C46.0268 231.881 56.4573 229.145 57.2908 228.802C62.6939 226.574 67.797 224.172 73.372 222.504C79.5503 220.655 84.7861 218.804 90.941 220.992C98.7189 223.758 107.545 227.374 115.736 227.374C130.943 227.374 146.151 227.374 161.358 227.374C167.837 227.374 173.094 224.762 179.211 224.351C183.522 224.062 189.504 223.912 193.663 222.504C205.39 218.533 219.969 221.328 232.201 221.328C235.187 221.328 242.84 223.201 245.661 224.687C247.567 225.691 247.869 228.658 248.495 230.733C249.993 235.706 252.755 238.225 254.871 242.489C257.042 246.863 231.225 236.069 228.092 234.931C223.17 233.144 217.949 228.886 212.79 228.886C205.422 228.886 198.055 228.886 190.687 228.886C174.889 228.886 158.84 229.951 143.081 228.55C135.153 227.845 127.679 223.086 119.986 222.84C106.169 222.397 92.2965 222.84 78.4727 222.84C68.4682 222.84 54.4787 219.964 46.3102 227.71C41.1779 232.577 37.9915 240.449 32 244" stroke="#FFFF00" stroke-width="60" stroke-linecap="round"/>
<path d="M264 274C232.704 274 201.408 274 170.111 274C152.494 274 133.621 275.847 116 273.889C104.061 272.562 94.012 268 81.5556 268C64.7408 268 47.926 268 31.1112 268C17.374 268 7.09695 269.31 4.11121 252.889C3.58248 249.981 2.59071 240.433 4.88898 238C8.14292 234.555 17.5234 226.497 22.0001 226C30.5304 225.052 35.3707 210.32 42.0001 205.111C50.7704 198.22 72.551 196 83.1112 196C98.6961 196 115.264 197.55 130.445 194.444C164.971 187.382 198.23 178.586 233.111 187.556C238.479 188.936 243.611 190.914 249 192.111C251.824 192.739 258.815 193.411 261 195.111C272.305 203.904 285.123 214.686 292.889 226.889C298.397 235.545 294 242.069 294 251.111C294 262.444 277.662 262 268.889 262C252.462 262 238.918 270 222 270" stroke="black" stroke-width="5" stroke-linecap="round"/>
<path d="M142 76C142 78.491 142.682 82.0309 141.778 84.3333C139.831 89.2896 124.38 88 120.611 88C116.761 88 105.76 90.4363 106 84.4444C106.128 81.2513 110.068 79.6584 112.444 78.3333C119.456 74.4229 126.849 71.3347 134.944 71.0555C142.185 70.8058 149.192 70.797 156 73.4444C157.873 74.1727 161.756 74.9278 163.778 75C167.841 75.1451 171.933 75 176 75C180.284 75 179.749 85.6136 180.444 88.6666C181.877 94.9542 184.094 101.279 186 107.444C187.42 112.038 187.348 116.903 189 121.444C189.842 123.761 190 125.247 190 127.778C190 132.491 186.746 131.778 182.556 132.5C178.121 133.264 172.131 131.57 168 133.222C164.735 134.528 161.445 135 157.944 135C148.259 135 138.574 135 128.889 135C122.998 135 102 140.593 102 130C102 122.164 103.351 116.058 105.056 108.389C107.053 99.4018 107 91.2454 107 81.9444C107 78.9444 107 75.9444 107 72.9444C107 69.6533 105.227 68.1262 104.222 65.2222C102.693 60.8053 114.231 61.2331 117.778 59C123.151 55.6167 130.079 57 136.222 57C143.617 57 150.807 56 158.222 56C164.998 56 171.851 55 178.5 55C184.076 55 186 53.8916 186 60.1666C186 70.9971 185.441 81.4946 188.222 92C189.034 95.0683 195.25 107.44 192.556 110C187.516 114.787 175.339 114.894 169 113.556C160.103 111.677 152.954 104.207 144.111 102.167C140.385 101.307 132.773 101.092 129 102.444C128.218 102.725 116.985 110.358 116.722 109.833C114.626 105.64 149.113 93.2317 152 92.4444C153.611 92.0051 167.211 88.9878 167.944 91.5555C172.648 108.018 148.902 114.517 137.611 117.444C135.754 117.926 131.342 120.061 129.5 118.833C128.038 117.859 128.091 115.293 128 113.778C127.744 109.507 126.532 105.206 125 101.222C121.066 90.9935 116.516 79.9602 108.778 72.2222C105.49 68.9344 106 63.8122 106 59.5C106 57.8772 105.629 54.8348 108.222 56.4444C114.501 60.3416 119.893 64.6126 125.5 69.3889C130.486 73.6364 136.391 76.9129 141.5 81.0555C149.364 87.4319 154.619 95.161 160.778 103C166.579 110.384 171.427 120.883 180.778 124.222C187.429 126.598 192.843 130.686 196 137" stroke="#001AFF" stroke-width="30" stroke-linecap="round"/>
<path d="M66 184C66.8471 180.612 73.7502 183.21 68.8889 181C64.5707 179.037 59.5879 178.592 55.5556 176C40.2209 166.142 37.5765 156.732 40.8889 137.778C43.8276 120.962 56 109.936 56 92.4444C56 76.1451 55.6486 59.9875 57.5556 43.7778C60.9992 14.5075 84.2182 14.6138 110 14C126.432 13.6087 141.825 7.99999 158.444 7.99999C171.493 7.99999 184.333 5.99999 197.556 5.99999C211.697 5.99999 223.65 5.70957 237.111 9.55555C251.651 13.7099 249.653 34.3091 250 46.4444C251.218 89.059 254 131.244 254 174C254 184.5 217.961 180 211.333 180C191.093 180 170.938 182 150.889 182C132.37 182 113.852 182 95.3334 182C83.6854 182 74.2861 183.37 64.8889 178C54.4899 172.058 56 155.86 56 146C56 130.037 56 114.074 56 98.1111C56 78.5107 54 58.94 54 39.2222C54 28.2192 52.8505 22.6386 63 17C69.5055 13.3859 83.0465 16 90.1112 16C105.778 16 121.444 16 137.111 16C160.554 16 183.276 9.99999 207 9.99999C216.829 9.99999 215.997 19.2126 219 27.8889C223.356 40.4738 225.613 51.0944 228 64.2222C233.118 92.3733 229.716 121.321 237 149C237.902 152.429 242 175.087 242 165C242 149.37 242 133.741 242 118.111C242 84.0157 240 50.0511 240 16" stroke="black" stroke-width="5" stroke-linecap="round"/>
<path d="M200 150C165.629 150 131.259 150 96.8886 150C86.8704 150 83.9997 151.719 83.9997 140.778C83.9997 131.947 81.2971 117.257 84.9997 109.111C87.7554 103.049 87.648 94.231 89.5553 87.5555C91.954 79.1601 91.9997 68.788 91.9997 60C91.9997 52.2457 90.3647 47.3138 97.5553 42.8889C103.522 39.2171 117.05 42 124 42C142.015 42 160.266 40 178 40C183.532 40 190.704 38.5631 195 42C198.93 45.1443 202 61.9209 202 67C202 95.2299 208 122.608 208 150" stroke="black" stroke-width="5" stroke-linecap="round"/>
<path d="M119 78H127" stroke="white" stroke-width="15" stroke-linecap="square"/>
<path d="M159 80H166" stroke="white" stroke-width="15" stroke-linecap="square"/>
<path d="M111 117C117.556 117 122.965 120.586 129.222 121.778C134.222 122.73 139.986 122 145.056 122C152.654 122 166.338 122.993 171 116" stroke="white" stroke-width="15" stroke-linecap="square"/>
</svg>
