<svg width="303" height="280" viewBox="0 0 303 280" fill="none" xmlns="http://www.w3.org/2000/svg">
<path d="M101.798 161.445C118.32 161.445 134.841 161.445 151.363 161.445C157.641 161.445 164.064 160.706 170.11 162.956C178.796 166.189 188.234 169 197.378 169C205.397 169 201.496 147.702 201.496 140.963C201.496 115.723 196.972 91.2872 196.384 66.2554C196.175 57.383 197.322 51.8278 190.845 45.7737C181.665 37.1931 165.602 48.9646 157.328 53.3284C148.449 58.0112 138.899 61.7179 129.208 63.0656C127.272 63.3349 124.539 62.5553 122.888 64.0729C116.819 69.6527 114.35 82.7222 112.734 91.1861C111.343 98.4679 112.023 106.421 112.023 113.85C112.023 120.456 120.864 125.491 124.805 129.631C129.97 135.058 141.788 133.626 147.742 131.142C157.892 126.907 164.617 119.139 175.862 119.139C178.549 119.139 186.854 121.62 185.377 116.033C182.445 104.943 171.359 94.4546 164.713 86.2335C160.37 80.8606 157.64 72.3752 150.085 76.3284C141.584 80.7761 136.182 91.6702 130.628 99.8321C128.868 102.419 126.023 107.052 123.243 108.226C121.227 109.077 118.65 107.767 118.414 111.248C117.858 119.467 120.557 120.386 126.51 124.511C135.875 131.001 123.844 133.917 118.13 135.759C111.637 137.852 103.125 138.497 96.4012 138.781C91.7673 138.977 89.0931 139.188 89.0161 132.905C88.8255 117.357 90.3171 103.201 94.1288 88.3321C96.5642 78.8318 97.9634 67.7574 97.9634 57.8613C97.9634 53.5261 98.5054 47.2971 99.3126 43.0036C99.609 41.4267 112.811 40.9038 114.509 40.5693C127.299 38.0495 138.954 40.5693 151.576 40.5693C158.497 40.5693 167.167 38.7457 173.376 42.416C179.163 45.8362 187.559 44.5534 190.987 52.6569C192.885 57.1455 193.5 64.9598 194.111 69.9489C195.794 83.6763 201.297 95.0582 206.041 107.555C212.493 124.551 213 138.801 213 156.912C213 165.072 192.615 161.445 187.294 161.445C163.861 161.445 140.428 161.445 116.994 161.445C109.833 161.445 102.112 164.802 94.7679 162.872C86.772 160.772 90.2943 133.878 90.2943 125.854C90.2943 110.56 91.6272 95.1684 93.1347 80.0219C93.9492 71.8379 94.1288 63.9057 94.1288 55.6788C94.1288 52.749 93.3798 47.8499 94.4129 45.1021C102.599 23.3287 135.779 31.5036 151.789 31.5036C163.482 31.5036 175.175 31.5036 186.868 31.5036C193.391 31.5036 199.779 32.0148 202.775 39.9817C211.585 63.415 207.887 93.9426 207.887 119.139" stroke="#FFFF00" stroke-width="60" stroke-linecap="round"/>
<path d="M261 239.309C236.087 239.309 211.103 238.56 186.203 239.395C170.834 239.91 155.761 244.531 140.419 245.804C127.507 246.875 114.722 247 101.782 247C78.8547 247 55.9274 247 33 247" stroke="#FFFF00" stroke-width="60" stroke-linecap="round"/>
<path d="M48.0268 231.908C48.0268 231.881 58.4573 229.145 59.2908 228.802C64.6939 226.574 69.797 224.172 75.372 222.504C81.5503 220.655 86.7861 218.804 92.941 220.992C100.719 223.758 109.545 227.374 117.736 227.374C132.943 227.374 148.151 227.374 163.358 227.374C169.837 227.374 175.094 224.762 181.211 224.351C185.522 224.062 191.504 223.912 195.663 222.504C207.39 218.533 221.969 221.328 234.201 221.328C237.187 221.328 244.84 223.201 247.661 224.687C249.567 225.691 249.869 228.658 250.495 230.733C251.993 235.706 254.755 238.225 256.871 242.489C259.042 246.863 233.225 236.069 230.092 234.931C225.17 233.144 219.949 228.886 214.79 228.886C207.422 228.886 200.055 228.886 192.687 228.886C176.889 228.886 160.84 229.951 145.081 228.55C137.153 227.845 129.679 223.086 121.986 222.84C108.169 222.397 94.2965 222.84 80.4727 222.84C70.4682 222.84 56.4787 219.964 48.3102 227.71C43.1779 232.577 39.9915 240.449 34 244" stroke="#FFFF00" stroke-width="60" stroke-linecap="round"/>
<path d="M266 274C234.704 274 203.408 274 172.111 274C154.494 274 135.621 275.847 118 273.889C106.061 272.562 96.012 268 83.5556 268C66.7408 268 49.926 268 33.1112 268C19.374 268 9.09695 269.31 6.11121 252.889C5.58248 249.981 4.59071 240.433 6.88898 238C10.1429 234.555 19.5234 226.497 24.0001 226C32.5304 225.052 37.3707 210.32 44.0001 205.111C52.7704 198.22 74.551 196 85.1112 196C100.696 196 117.264 197.55 132.445 194.444C166.971 187.382 200.23 178.586 235.111 187.556C240.479 188.936 245.611 190.914 251 192.111C253.824 192.739 260.815 193.411 263 195.111C274.305 203.904 287.123 214.686 294.889 226.889C300.397 235.545 296 242.069 296 251.111C296 262.444 279.662 262 270.889 262C254.462 262 240.918 270 224 270" stroke="black" stroke-width="10" stroke-linecap="round"/>
<path d="M144 76C144 78.491 144.682 82.0309 143.778 84.3333C141.831 89.2896 126.38 88 122.611 88C118.761 88 107.76 90.4363 108 84.4444C108.128 81.2513 112.068 79.6584 114.444 78.3333C121.456 74.4229 128.849 71.3347 136.944 71.0555C144.185 70.8058 151.192 70.797 158 73.4444C159.873 74.1727 163.756 74.9278 165.778 75C169.841 75.1451 173.933 75 178 75C182.284 75 181.749 85.6136 182.444 88.6666C183.877 94.9542 186.094 101.279 188 107.444C189.42 112.038 189.348 116.903 191 121.444C191.842 123.761 192 125.247 192 127.778C192 132.491 188.746 131.778 184.556 132.5C180.121 133.264 174.131 131.57 170 133.222C166.735 134.528 163.445 135 159.944 135C150.259 135 140.574 135 130.889 135C124.998 135 104 140.593 104 130C104 122.164 105.351 116.058 107.056 108.389C109.053 99.4018 109 91.2454 109 81.9444C109 78.9444 109 75.9444 109 72.9444C109 69.6533 107.227 68.1262 106.222 65.2222C104.693 60.8053 116.231 61.2331 119.778 59C125.151 55.6167 132.079 57 138.222 57C145.617 57 152.807 56 160.222 56C166.998 56 173.851 55 180.5 55C186.076 55 188 53.8916 188 60.1666C188 70.9971 187.441 81.4946 190.222 92C191.034 95.0683 197.25 107.44 194.556 110C189.516 114.787 177.339 114.894 171 113.556C162.103 111.677 154.954 104.207 146.111 102.167C142.385 101.307 134.773 101.092 131 102.444C130.218 102.725 118.985 110.358 118.722 109.833C116.626 105.64 151.113 93.2317 154 92.4444C155.611 92.0051 169.211 88.9878 169.944 91.5555C174.648 108.018 150.902 114.517 139.611 117.444C137.754 117.926 133.342 120.061 131.5 118.833C130.038 117.859 130.091 115.293 130 113.778C129.744 109.507 128.532 105.206 127 101.222C123.066 90.9935 118.516 79.9602 110.778 72.2222C107.49 68.9344 108 63.8122 108 59.5C108 57.8772 107.629 54.8348 110.222 56.4444C116.501 60.3416 121.893 64.6126 127.5 69.3889C132.486 73.6364 138.391 76.9129 143.5 81.0555C151.364 87.4319 156.619 95.161 162.778 103C168.579 110.384 173.427 120.883 182.778 124.222C189.429 126.598 194.843 130.686 198 137" stroke="#001AFF" stroke-width="30" stroke-linecap="round"/>
<path d="M68 184C68.8471 180.612 75.7502 183.21 70.8889 181C66.5707 179.037 61.5879 178.592 57.5556 176C42.2209 166.142 39.5765 156.732 42.8889 137.778C45.8276 120.962 58 109.936 58 92.4444C58 76.1451 57.6486 59.9875 59.5556 43.7778C62.9992 14.5075 86.2182 14.6138 112 14C128.432 13.6087 143.825 7.99999 160.444 7.99999C173.493 7.99999 186.333 5.99999 199.556 5.99999C213.697 5.99999 225.65 5.70957 239.111 9.55555C253.651 13.7099 251.653 34.3091 252 46.4444C253.218 89.059 256 131.244 256 174C256 184.5 219.961 180 213.333 180C193.093 180 172.938 182 152.889 182C134.37 182 115.852 182 97.3334 182C85.6854 182 76.2861 183.37 66.8889 178C56.4899 172.058 58 155.86 58 146C58 130.037 58 114.074 58 98.1111C58 78.5107 56 58.94 56 39.2222C56 28.2192 54.8505 22.6386 65 17C71.5055 13.3859 85.0465 16 92.1112 16C107.778 16 123.444 16 139.111 16C162.554 16 185.276 9.99999 209 9.99999C218.829 9.99999 217.997 19.2126 221 27.8889C225.356 40.4738 227.613 51.0944 230 64.2222C235.118 92.3733 231.716 121.321 239 149C239.902 152.429 244 175.087 244 165C244 149.37 244 133.741 244 118.111C244 84.0157 242 50.0511 242 16" stroke="black" stroke-width="10" stroke-linecap="round"/>
<path d="M202 150C167.629 150 133.259 150 98.8886 150C88.8704 150 85.9997 151.719 85.9997 140.778C85.9997 131.947 83.2971 117.257 86.9997 109.111C89.7554 103.049 89.648 94.231 91.5553 87.5555C93.954 79.1601 93.9997 68.788 93.9997 60C93.9997 52.2457 92.3647 47.3138 99.5553 42.8889C105.522 39.2171 119.05 42 126 42C144.015 42 162.266 40 180 40C185.532 40 192.704 38.5631 197 42C200.93 45.1443 204 61.9209 204 67C204 95.2299 210 122.608 210 150" stroke="black" stroke-width="10" stroke-linecap="round"/>
<path d="M121 78H129" stroke="white" stroke-width="15" stroke-linecap="square"/>
<path d="M161 80H168" stroke="white" stroke-width="15" stroke-linecap="square"/>
<path d="M113 117C119.556 117 124.965 120.586 131.222 121.778C136.222 122.73 141.986 122 147.056 122C154.654 122 168.338 122.993 173 116" stroke="white" stroke-width="15" stroke-linecap="square"/>
</svg>
