<svg width="569" height="561" viewBox="0 0 569 561" fill="none" xmlns="http://www.w3.org/2000/svg">
<path d="M491.018 433.019C435.658 438.492 380.299 443.965 324.939 449.438C280.078 453.873 235.104 454.216 190.04 453.731C178.926 453.611 167.875 452.907 156.794 454.003C145.967 455.073 171.715 452.507 172.717 452.429C193.944 450.761 212.517 455.376 232.919 460.545C261.139 467.695 290.114 468.55 319.056 470.117C356.636 472.152 393.55 474.259 430.109 483.255C453.621 489.041 480.419 487.976 502.942 497.157C511.489 500.641 525.73 505.085 509.984 507.403C497.871 509.185 485.163 510.621 472.931 510.954C461.382 511.269 450.335 506.963 438.84 506.062C423.285 504.844 408.24 503.505 392.627 505.048C371.066 507.18 349.504 509.312 327.943 511.443C308.832 513.332 288.895 517.12 269.83 513.169C256.319 510.369 243.181 512.03 229.833 510.647C219.838 509.612 209.924 506.773 199.788 506.025C177.371 504.371 152.419 504.621 130.341 500.386C120.08 498.418 105.745 498.646 96.6711 494.112C88.0216 489.791 73.474 486.357 63.8425 487.309C60.4204 487.647 57.9637 487.246 54.6226 486.658C50.9192 486.005 53.5829 490.17 54.9883 485.84C57.9079 476.845 60.9743 467.9 63.9189 458.718C70.1739 439.216 75.9409 419.225 82.9018 400.011C85.9061 391.718 93.5737 386.625 98.8115 380.238C107.282 369.91 106.04 366.572 121.538 365.04C145.089 362.711 168.641 360.383 192.193 358.055C228.678 354.447 264.689 369.543 301.758 367.432C323.362 366.201 346.128 366.76 367.661 368.844C380.754 370.111 393.915 366.383 406.51 371.032C420.226 376.095 431.689 383.594 445.807 386.798C455.963 389.103 468.123 388.477 478.531 388.029C489.397 387.561 494.408 411.17 499.548 417.661C508.121 428.484 516.938 439.989 521.256 453.142C523.089 458.725 525.892 460.508 526.558 467.244C527.189 473.631 527.131 478.687 526.394 484.79C525.763 490.015 532.56 495.692 522.992 492.16C513.149 488.527 503.694 481.809 497.142 473.502C489.684 464.047 488.999 453.256 487.868 441.816C486.986 432.887 496.755 458.823 497.718 462.391C500.349 472.135 498.821 478.472 488.025 479.539C472.716 481.052 467.796 461.573 462.541 449.902C456.199 435.818 447.52 419.936 445.975 404.311C445.143 395.889 457.226 394.402 461.248 400.68C470.4 414.967 474.994 433.564 476.637 450.184C476.936 453.212 479.928 464.687 476.21 466.192C472.723 467.603 464.499 393.992 465.157 384.885C465.919 374.352 472.313 379.872 473.955 386.918C478.178 405.039 472.261 424.668 460.563 438.933C455.048 445.659 455.405 454.143 449.593 461.231C447.078 464.297 438.058 471.043 433.651 470.511C427.088 469.719 426.039 427.276 425.514 420.96C424.585 409.782 427.124 376.257 428.227 387.42C430.031 405.668 433.838 424.244 428.508 442.213C425.504 452.343 418.883 469.345 406.2 469.541C394.177 469.726 393.951 429.343 393.496 421.223C392.85 409.703 394.659 398.328 396.475 386.986C397.951 377.769 398.64 393.427 398.732 395.137C399.698 412.959 394.843 430.323 385.287 445.481C382.85 449.347 375.235 461.259 374.301 451.815C372.55 434.101 364.701 408.096 370.268 390.693C371.216 387.732 372.824 378.685 371.362 381.43C366.697 390.186 365.078 402.318 361.179 411.689C353.532 430.067 342.278 445.073 333.128 462.25C332.908 462.663 330.526 468.216 330.092 467.686C325.013 461.488 326.929 440.209 326.174 432.568C324.62 416.852 323.027 405.27 330.112 391.09C338.164 374.975 329.175 405.674 327.903 409.396C322.878 424.095 318.322 451.079 304.926 460.46C293.346 468.57 291.031 462.353 289.67 449.575C287.746 431.51 285.041 412.891 286.703 394.712C287.29 388.28 289.054 382.352 288.415 375.897C288.088 372.581 286.336 382.228 285.221 385.368C281.051 397.108 277.76 409.243 272.279 420.478C269.509 426.155 260.913 451.525 252.873 452.32C248.838 452.719 252.909 434.864 253.469 433.503C257.661 423.314 267.816 409.883 277.604 404.32C285.642 399.753 300.267 398.041 309.661 398.806C322.32 399.838 306.3 429.78 303.022 433.294C300.996 435.465 283.859 449.372 282.759 440.656C279.787 417.109 286.265 392.393 304.534 376.313C315.305 366.833 329.574 367.631 341.897 372.507C350.052 375.734 384.443 375.799 387.775 385.948C391.632 397.695 325.015 404.347 317.47 405.515C300.267 408.18 248.222 412.808 265.545 411.095C294.109 408.271 330.403 399.537 357.13 413.653C388.424 430.18 295.457 447.548 288.013 448.622C283.702 449.245 224.546 456.112 225.841 452.201C227.999 445.681 242.879 446.066 243.828 453.437C245.916 469.668 258.361 467.242 274.027 468.651C293.249 470.38 312.466 471.869 331.566 474.686C336.971 475.483 343.635 477.343 349.12 477.194C359.919 476.899 375.874 482.743 384.873 488.732C392.739 493.967 388.001 494.352 379.856 496.709C355.504 503.755 321.8 511.832 296.895 503.459C273.913 495.733 245.859 500.781 221.977 496.686C210.187 494.664 198.866 491.451 187.114 489.637C178.82 488.357 169.269 487.824 161.492 484.578C160.197 484.037 152.603 480.948 156.488 480.271C174.425 477.147 193.185 476.397 211.321 474.739C235.841 472.497 253.554 477.42 276.009 485.315C278.582 486.219 295.941 488.48 290.223 489.046C266.448 491.396 240.112 497.616 216.497 493.208C216.181 493.149 206.772 492.597 211.17 491.278C229.573 485.762 252.15 486.78 271.167 484.9C292.269 482.814 313.384 480.278 334.536 478.747C348.395 477.744 362.248 479.559 376.051 478.551C378.046 478.405 384.012 477.763 382.022 477.96C369.64 479.184 357.263 480.551 344.859 481.523C303.89 484.73 266.812 469.9 227.101 462.683C222.688 461.882 196.527 460.615 195.866 453.936C195.249 447.692 202.483 441.63 206.454 437.928C218.738 426.475 232.571 416.718 245.12 405.522C255.569 396.201 267.481 386.393 280.999 383.329C285.033 382.415 287.508 379.334 282.358 384.646C272.565 394.745 263.411 405.061 251.922 413.335C239.025 422.623 226.972 432.975 214.144 442.304C210.591 444.888 191.557 453.106 196.089 442.637C205.764 420.29 234.492 407.233 253.602 394.188C256.618 392.129 281.347 380.72 269.325 382.697C247.4 386.302 211.869 399.979 199.177 419.666C196.796 423.36 180.357 446.467 173.591 442.07C164.174 435.951 219.698 387.851 226.394 383.256C232.327 379.185 236.821 379.085 243.085 377.029C244.655 376.513 234.37 380.363 230.705 383.947C209.488 404.696 192.899 427.468 168.137 444.507C165.322 446.444 152.375 455.065 152.904 453.047C156.059 441.001 167.098 433.728 171.424 422.41C173.418 417.194 178.283 406.801 183.771 405C191.379 402.502 189.529 398.638 193.106 392.13C194.737 389.162 199.884 381.864 198.019 378.581C194.431 372.269 175.577 375.615 169.884 376.338C151.065 378.728 152.303 398.348 153.435 413.247C154.474 426.919 134.615 433.13 133.076 446.745C131.388 461.688 130.594 482.72 112.691 484.49C101.851 485.561 96.412 486.975 95.1457 474.166C93.4468 456.981 100.77 447.235 111.31 434.382C116.581 427.955 131.876 418.791 130.941 409.33C130.606 405.941 131.493 395.291 128.869 392.898C126.36 390.61 117.969 382.199 115.161 381.86C98.4435 379.842 100.135 432.115 98.1882 442.825C97.1034 448.795 93.6893 453.647 96.2009 459.993C100.766 471.529 118.636 471.843 128.76 470.843C136.434 470.084 134.807 466.834 133.815 458.731C132.533 448.262 116.878 446.009 111.551 436.815C109.584 433.421 92.7396 417.932 96.3143 418.224C115.333 419.774 132.154 439.027 147.358 448.906C155.419 454.144 169.101 459.974 178.444 461.799C187.497 463.568 196.4 460.008 205.079 461.288C212.728 462.416 189.965 464.723 182.277 465.552C167.696 467.122 153.084 468.438 138.49 469.881C126.032 471.112 113.574 472.344 101.117 473.575C90.8334 474.592 80.5502 475.609 70.267 476.625C64.4202 477.203 62.9572 476.494 67.5758 470.862C76.6029 459.854 87.2542 450.768 95.5833 439.063C107.459 422.375 123.94 401.275 127.689 380.956C132.039 357.383 125.075 329.672 122.743 306.08C118.423 262.386 110.213 220.003 105.907 176.44C103.371 150.788 89.1532 128.951 86.5753 102.874C86.1872 98.9491 85.9558 79.5963 86.9199 81.5145C93.4112 94.4301 103.237 107.004 107.993 120.743C115.759 143.178 115.244 169.247 117.553 192.595C118.012 197.239 118.471 201.883 118.93 206.527C119.514 212.431 117.428 190.594 117.335 189.267C114.889 154.165 125.755 120.774 124.66 86.0457C124.457 79.6138 127.134 42.0972 113.729 53.4072C108.35 57.9456 102.529 66.6796 95.2048 68.1903C87.8869 69.6998 84.6355 70.871 87.1448 78.1427C89.8074 85.8585 89.0336 92.1622 88.4028 99.9022C88.0513 104.216 88.7855 110.894 90.2212 114.907C95.1802 128.771 98.1913 139.056 99.6742 154.056C101.476 172.281 101.222 190.037 103.008 208.101C105.808 236.423 104.529 264.152 107.291 292.087C108.337 302.669 106.115 324.712 111.866 333.84C114.992 338.803 125.169 340.129 130.443 341.047C143.491 343.319 158.543 340.469 172.024 341.514C199.237 343.625 227.052 339.377 253.922 345.476C283.717 352.239 316.054 341.79 346.158 338.814C365.987 336.853 385.817 334.893 405.646 332.932C419.608 331.552 435.378 334.657 449.379 337.094C454.718 338.024 457.997 351.651 459.844 351.468C461.325 351.322 459.906 333.786 460.031 331.91C460.696 321.954 462.534 311.803 463.99 301.931C467.682 276.901 473.041 251.184 470.533 225.807C468.45 204.743 469 180.954 463.95 160.359C461.827 151.697 456.301 143.903 453.984 135.218C451.941 127.562 451.639 119.225 449.378 112.338C446.471 103.484 448.564 101.588 456.61 100.792C463.11 100.15 469.84 96.8307 470.625 104.766C473.786 136.747 469.099 168.557 463.972 200.105C458.296 235.034 460.806 274.064 460.267 309.445C460.003 326.766 461.475 344.55 463.878 361.788C464.61 367.038 469.379 370.332 472.068 374.6C478.447 384.725 477.708 359.096 477.772 355.502C477.938 346.16 483.863 334.215 470.736 339.672C458.686 344.682 446.225 347.698 433.707 351.372C419.098 355.661 419.005 355.577 416.816 369.12C415.258 378.76 360.725 358.593 352.198 355.858C343.893 353.194 326.758 349.34 320.725 342.444C320.217 341.863 337.645 339.655 339.524 339.469C357.172 337.725 375.281 334.612 393.029 335.185C402.696 335.497 431.612 332.375 421.986 333.327C369.201 338.545 318.699 333.851 266.112 329.868C238.698 327.791 213.777 327.951 186.814 323.974C174.638 322.178 162.338 318.324 150.049 318.007C145.734 317.895 127.173 314.735 127.388 314.664C136.666 311.618 148.208 312.159 157.862 311.205C173.597 309.649 189.411 307.485 205.209 306.747C240.442 305.103 279.369 305.053 314.193 311.381C335.572 315.266 357.004 318.585 378.383 322.564C387.495 324.26 395.565 327.803 404.412 329.482C411.433 330.814 418.838 335.648 426.164 334.924C432.773 334.27 442.879 331.324 447.432 337.734C452.693 345.139 462.724 378.872 448.985 382.799C440.727 385.159 438.45 351.219 441.387 345.477C446.221 336.026 458.185 331.758 467.849 330.802C480.296 329.572 472.163 303.284 471.274 294.288C468.958 270.867 468.508 246.118 463.791 223.124C460.276 205.987 448.999 190.515 444.234 173.25C439.799 157.18 438.221 138.342 436.133 121.798C434.857 111.694 433.234 101.198 438.079 91.7939C445.519 77.3547 432.239 81.0943 422.159 82.0909C397.523 84.5265 376.389 84.0179 352.301 77.9437C338.619 74.4938 324.934 73.8815 310.921 75.0004C293.708 76.3748 278.299 67.2864 261.823 63.9997C230.24 57.6995 196.968 62.1492 165.369 65.2731C156.855 66.1149 148.341 66.9566 139.827 67.7983C133.479 68.4259 118.924 66.4631 134.506 70.4457C162.932 77.7108 193.337 73.1357 222.316 77.731C238.874 80.3568 257.165 81.2473 273.898 82.2336C298.569 83.6877 323.216 79.8142 347.779 77.3858C361.957 75.9841 384.109 69.5314 398.188 73.4071C410.835 76.8888 424.09 75.2226 436.703 76.7452C446.638 77.9444 461.911 78.7556 470.516 83.3394" stroke="#FFFF00" stroke-width="30" stroke-linecap="round"/>
<path d="M168.452 56.9293C148.07 58.9444 86.8422 62.5564 107.317 63.085C116.129 63.3125 150.982 64.4359 155.898 72.2388" stroke="#FFFF00" stroke-width="30" stroke-linecap="round"/>
<path d="M514.44 486.976C519.644 486.462 520.581 491.241 523.276 495.035C525.46 498.109 532.901 500.128 536.114 502.921C546.294 511.767 541.197 493.344 540.511 486.408" stroke="#FFFF00" stroke-width="30" stroke-linecap="round"/>
<path d="M144.006 296.989C143.008 286.897 141.827 276.794 141.132 266.677C140.266 254.055 140.299 241.416 139.387 228.791C138.966 222.961 138.013 217.075 137.866 211.23C137.631 201.894 139.409 192.518 139.96 183.25C140.507 174.066 141.355 164.903 142.228 155.772C143.156 146.067 146.447 136.838 145.468 126.935C145.033 122.53 144.459 118.718 145.602 114.595C146.594 111.014 143.406 104.079 142.588 100.597C142.047 98.2984 139.38 92.7837 142.053 92.7043C153.674 92.3593 165.749 94.5637 177.377 95.5614C196.34 97.1887 214.797 102.029 233.679 104.922C264.415 109.63 294.595 105.824 325.221 104.783C341.452 104.231 357.526 107.968 373.656 109.871C379.421 110.552 384.684 110.118 390.482 109.544C395.695 109.029 400.517 109.301 405.754 109.668C409.99 109.966 414.238 110.007 418.474 110.119C420.447 110.171 426.899 109.138 428.595 111.049C430.132 112.781 428.548 118.698 428.409 120.684C427.953 127.216 428.381 133.887 428.671 140.449C429.51 159.437 432.227 178.533 432.22 197.502C432.215 208.504 431.719 219.294 429.579 229.918C427.304 241.214 430.076 253.682 431.002 265.163C431.88 276.037 431.441 287.327 435.046 297.66C435.757 299.7 436.425 303.648 436.131 305.833C435.865 307.803 414.403 308.358 413.469 308.445C381.1 311.442 349.275 303.278 316.963 301.945C302.103 301.332 286.8 298.913 271.953 299.749C257.022 300.589 242.351 301.251 227.348 299.48C219.358 298.537 211.395 297.969 203.397 297.764C199.408 297.661 195.746 296.66 191.749 296.947C184.578 297.463 177.154 293.207 170.02 293.749C168.461 293.867 160.511 295.898 160.28 293.561C158.205 272.569 159.629 251.311 160.403 230.389C160.696 222.476 162.288 214.721 162.748 206.803C163.524 193.428 162.678 179.461 161.518 166.044C160.38 152.885 160.618 140.141 159.328 127.087C158.821 121.961 157.686 117.077 156.763 112.043C156.142 108.652 163.053 112.521 164.144 112.947C170.667 115.495 176.752 119.579 183.462 121.323C193.133 123.836 202.473 123.356 212.209 123.01C240.309 122.013 268.195 118.044 296.296 117.482C309.472 117.219 322.534 115.882 335.746 116.33C342.477 116.558 349.205 117.234 355.935 117.341C359.888 117.404 363.778 116.811 367.744 117.288C374.064 118.047 380.373 119.974 386.652 121.211C391.522 122.17 397.686 122.046 402.383 124.111C404.487 125.037 406.921 124.941 408.96 125.912C410.136 126.472 410.837 128.359 410.998 129.72C411.712 135.782 412.2 141.885 412.801 147.959C413.688 156.935 415.105 166.099 415.362 175.108C415.537 181.261 414.232 187.716 413.132 193.634C410.739 206.516 409.399 219.979 410.713 233.268C411.916 245.44 411.463 257.661 412.659 269.761C413.057 273.781 413.454 277.801 413.852 281.822C414.085 284.177 414.612 286.774 414.545 289.142C414.512 290.302 410.948 289.119 410.628 289.047C402.313 287.172 394.71 282.549 386.451 280.372C380.816 278.887 375.506 278.48 369.82 278.637C360.902 278.884 351.517 278.523 342.592 277.69C329.817 276.498 316.631 279.254 303.953 280.508C290.568 281.831 277.197 281.148 263.845 282.468C257.244 283.12 250.643 283.773 244.042 284.426C227.791 286.032 211.596 286.334 195.236 285.538C187.275 285.151 180.385 281.49 172.836 279.286C168.048 277.889 168.188 276.462 168.644 270.493C169.161 263.726 169.621 255.505 171.834 249.236C172.404 247.623 173.164 246.39 173.12 244.504C172.943 236.916 175.015 229.755 174.26 222.113C172.497 204.284 169.292 185.964 170.712 168.179C171.504 158.262 168.03 147.86 169.376 137.864C169.727 135.259 170.551 131.956 173.075 131.706C175.377 131.479 177.127 133.465 179.014 134.832C184.317 138.677 190.733 138.649 196.593 138.07C201.65 137.57 206.708 137.07 211.765 136.57C216.75 136.077 220.457 137.437 225.254 138.578C229.752 139.648 234.072 142.141 238.593 143.423C244.838 145.193 251.439 146.683 257.804 146.054C267.188 145.126 276.603 144.118 285.839 142.094C288.513 141.508 291.406 140.727 294.107 140.46C306.629 139.222 319.151 137.984 331.673 136.746C344.335 135.494 356.663 134.308 369.44 135.685C375.75 136.366 382.208 138.154 388.539 137.807C392.671 137.581 398.031 137.535 401.977 139.301C403.457 139.963 403.434 141.188 403.33 143.028C403.042 148.116 401.36 153.211 400.841 158.312C399.64 170.133 402.516 181.652 402.596 193.487C402.619 196.878 401.918 200.323 402.252 203.695C402.72 208.436 404.001 213.929 403.48 218.611C402.42 228.137 401.298 237.752 399.465 247.079C399.032 249.281 398.785 252.112 398.959 254.406C399.417 260.469 395.625 258.078 391.608 258.475C386.101 259.019 380.991 261.53 375.566 262.066C364.163 263.193 352.862 265.232 341.417 266.11C338.572 266.329 335.821 265.417 333.009 265.085C328.698 264.576 324.324 264.943 320.021 265.032C310.161 265.238 300.256 266.17 290.479 267.136C279.206 268.251 268.16 268.158 256.821 267.122C249.851 266.485 242.656 268.225 235.753 266.866C228.668 265.47 221.016 267.538 213.989 267.978C206.454 268.449 198.287 269.519 190.729 268.272C188.991 267.985 188.328 262.827 188.094 261.218C186.878 252.869 188.369 245.444 188.616 237.254C188.76 232.512 189.56 227.82 189.862 223.096C190.172 218.269 191.675 213.421 191.19 208.521C189.197 188.358 187.204 168.195 185.21 148.032C184.891 144.805 184.697 146.025 185.88 147.966C187.254 150.219 188.777 152.56 190.893 153.857C193.57 155.498 195.973 157.11 198.921 157.89C203.287 159.045 208.312 157.63 212.666 157.2C229.69 155.517 247.073 152.63 264.246 153.957C269.13 154.334 273.539 156.546 278.307 157.394C283.863 158.381 289.547 159.58 295.039 161.086C300.121 162.48 305.009 162.667 310.158 162.785C313.873 162.87 317.773 164.854 321.342 164.501C336.419 163.01 351.407 161.864 366.256 158.872C372.498 157.615 379.757 156.789 386.044 158.624C387.358 159.008 388.409 160.324 389.61 161.093C390.962 161.959 392.089 161.56 390.513 163.381C386.75 167.73 384.86 179.004 384.954 184.946C385.048 190.832 386.078 196.938 386.66 202.823C387.324 209.538 388.526 216.092 389.193 222.846C389.507 226.022 390.924 231.799 390.104 234.86C389.191 238.27 386.534 239.257 383.956 239.886C371.951 242.819 359.158 242.872 346.878 244.183C336.417 245.3 326.493 250.209 316.073 251.239C302.622 252.569 288.487 255.669 274.905 254.306C264.537 253.266 254.138 252.684 243.835 253.702C234.664 254.609 225.331 252.363 216.209 253.092C214.227 253.25 212.387 253.688 210.43 253.143C208.916 252.721 207.57 251.941 206.02 252.094C205.058 252.189 204.337 251.888 203.588 251.146C203.015 250.579 205.158 249.711 205.446 249.403C206.484 248.293 206.635 245.026 206.958 243.535C207.704 240.092 208.544 236.751 209.654 233.466C210.329 231.469 210.478 229.971 210.27 227.873C208.941 214.427 207.612 200.981 206.282 187.535C206.198 186.683 205.003 180.898 205.67 180.095C206.434 179.175 209.784 181.767 210.716 181.973C221.66 184.383 230.973 177.356 241.362 175.787C249.335 174.583 257.466 174.158 265.488 173.365C267.792 173.137 270.121 172.769 272.438 172.715C277.742 172.591 283.589 175.881 288.913 176.915C292.891 177.688 296.924 178.137 300.846 179.374C305.35 180.795 309.089 183.615 313.827 184.329C318.132 184.978 322.866 183.732 327.139 183.31C331.242 182.904 335.345 182.499 339.448 182.093C346.941 181.352 354.548 180.031 362.055 180.489C365.103 180.675 366.508 180.032 369.145 182.499C373.265 186.353 369.295 196.116 368.492 200.163C366.95 207.937 367.393 215.191 368.168 223.031C368.315 224.509 368.664 225.321 367.209 225.465C363.188 225.862 359.166 226.26 355.144 226.657C342.114 227.946 328.531 228.074 315.867 231.729C307.237 234.219 298.09 235.64 289.206 236.518C282.044 237.226 274.761 238.559 267.539 237.992C255.116 237.016 242.48 232.449 230.102 233.673C226.751 234.004 225.798 233.701 225.372 229.388C224.411 219.671 224.331 211.378 226.99 202.197C227.92 198.988 229.592 199.502 232.436 199.393C242.384 199.012 252.109 201.421 262.042 200.439C269.463 199.706 276.497 197.819 283.827 196.429C302.04 192.976 320.684 191.968 339.106 190.147C346.375 189.428 353.086 188.566 359.591 192.28C362.502 193.943 360.248 204.324 358.793 206.617C356.197 210.708 354.672 212.669 349.962 213.134C337.745 214.342 325.527 215.55 313.31 216.758C303.634 217.715 294.143 219.526 284.472 216.638C267.903 211.692 250.58 213.603 233.941 215.248" stroke="#001AFF" stroke-width="30" stroke-linecap="round"/>
<path d="M488.75 324.537C491.795 324.236 492.465 320.383 493.443 316.979C495.955 308.243 493.742 295.3 492.909 286.29C491.807 274.359 490.551 262.438 489.372 250.513C487.644 233.034 487.892 215.462 486.168 198.019C485.528 191.551 484.407 184.863 484.262 178.37C483.915 162.842 484.907 147.155 485.23 131.637C485.372 124.81 486.044 117.915 485.513 111.072C484.586 99.1457 484.487 87.3134 483.308 75.3816C482.993 72.2043 483.281 67.5586 480.848 65.3778C479.595 64.2545 477.368 64.7823 476.021 64.8916C472.278 65.1956 468.447 64.6384 464.69 64.4354C457.086 64.0247 449.657 61.9804 442.06 62.7315C425.471 64.3716 409.553 60.7019 392.936 58.9175C375.753 57.0724 358.717 54.5505 341.568 54.7124C327.097 54.849 312.768 56.102 298.27 53.3002C287.261 51.1729 276.393 48.22 265.375 46.3054C259.217 45.2353 253.451 46.6345 247.364 46.3343C241.215 46.0311 234.998 45.4823 228.874 45.9728C214.404 47.1319 199.97 42.2279 185.541 41.236C178.029 40.7196 170.552 39.6384 163.067 39.254C152.145 38.6929 140.713 36.5594 129.858 37.6326C119.774 38.6295 110.129 41.1595 100.086 42.1524C89.1062 43.2379 76.6688 42.8859 73.9839 58.1328C72.8188 64.749 73.9759 71.4386 74.6368 78.1242C75.5236 87.0939 76.5527 96.0595 78.0959 104.932C79.8839 115.212 81.8955 124.772 82.926 135.196C84.2364 148.451 83.4002 161.083 83.1868 174.275C82.8666 194.067 84.017 213.164 85.9679 232.898C87.6924 250.341 88.0721 267.569 89.7935 284.981C90.8139 295.302 91.8343 305.623 92.8547 315.944C93.7954 325.46 94.1668 335.656 98.8731 343.726C102.05 349.174 106.249 349.255 111.434 349.184C122.688 349.03 134.342 344.754 145.596 346.682C153.48 348.033 160.494 352.501 168.52 353.218C174.084 353.715 179.822 354.422 185.34 354.533C188.529 354.596 191.046 355.545 194.305 355.223C204 354.264 212.855 353.34 222.693 355.306C238.155 358.396 253.614 362.259 269.29 361.822C275.821 361.641 282.269 360.369 288.793 360.157C307.811 359.539 327.903 363.909 346.871 366.414C351.439 367.017 356.003 365.882 360.547 365.675C369.37 365.272 378.608 365.959 387.436 366.958C397.65 368.113 407.89 368.736 418.11 369.705C421.758 370.052 425.45 370.994 429.047 370.639C441.292 369.428 453.537 368.217 465.781 367.007C472.747 366.318 479.794 365.976 486.711 364.894C488.587 364.6 495.893 362.726 496.157 359.669C496.899 351.047 494.786 341.47 493.531 332.734C493.349 331.473 491.877 322.703 492.335 327.335C493.069 334.756 495.388 341.516 496.954 348.774C497.931 353.3 498.439 357.572 499.084 362.138C499.354 364.048 501.061 366.126 501.916 367.726C504.959 373.42 508.181 379.016 511.137 384.768C516.451 395.106 521.512 404.499 524.962 416.026C527.659 425.036 530.551 434.258 533.595 443.11C538.707 457.976 546.199 471.709 552.289 486.06C555.18 492.874 557.588 499.945 560.054 506.968C561.042 509.784 561.635 510.447 559.026 510.705C517.835 514.777 476.457 515.715 435.264 519.787C428.846 520.422 421.455 522.412 415.001 520.827C412.687 520.259 411.264 519.851 408.82 520.037C395.006 521.09 381.201 521.849 367.329 522.037C339.051 522.42 310.75 521.443 282.459 521.056C274.338 520.945 265.943 520.026 257.874 520.772C245.245 521.938 232.643 523.387 220.011 524.515C208.453 525.547 197.058 523.42 185.489 523.374C177.406 523.341 169.458 522.464 161.435 521.022C158.934 520.573 155.886 519.819 153.363 520.069C148.52 520.548 143.917 519.84 139.115 519.857C129.622 519.891 119.863 520.51 110.369 519.502C108.191 519.271 106.143 518.096 103.97 517.989C100.41 517.814 96.8544 518.56 93.2834 518.477C87.0108 518.329 80.7323 517.408 74.4482 517.23C65.2555 516.968 55.5707 516.285 47.3225 510.584C45.0807 509.034 44.9509 508.28 45.4074 505.343C46.4302 498.764 48.6583 492.218 50.6267 485.997C52.6283 479.671 55.3765 473.763 57.3151 467.382C59.0017 461.831 60.1121 456.183 62.5347 451.014C64.6678 446.462 66.8036 441.769 68.8124 437.169C70.3439 433.661 69.9908 427.375 70.9055 423.387C73.395 412.531 75.5251 401.633 78.7769 391.079C80.4548 385.633 81.8061 379.951 84.4762 375.102C85.6617 372.948 88.1331 367.1 88.3557 364.515C88.7979 359.379 93.1249 349.461 98.1048 348.969" stroke="#FF00E5" stroke-width="15" stroke-linecap="round"/>
</svg>
