<svg width="249" height="172" viewBox="0 0 249 172" fill="none" xmlns="http://www.w3.org/2000/svg">
<path d="M88.9998 149C100.75 149 112.29 148.033 123.944 146.389C140.333 144.076 156.622 141.941 173.111 140.5C174.764 140.356 186.977 140.435 188.166 138.056C188.771 136.846 185.461 137.939 184.111 138C178.951 138.235 174.086 139.365 169.111 140.722C150.775 145.723 132.575 149.992 113.778 153C93.9036 156.18 73.3181 159.566 53.1109 158.944C50.7919 158.873 44.8037 158.585 46.4442 156.944C48.1298 155.259 52.5763 154.941 54.5553 154.556C62.488 153.011 70.4642 151.716 78.4442 150.444C102.333 146.638 126.289 142.987 149.944 137.889C169.543 133.665 189.016 128.863 208.611 124.611C213.731 123.5 229.35 122 224.111 122C190.409 122 157.568 126.098 124.055 129.5C102.264 131.712 80.4901 133.681 58.6664 135.5C54.0491 135.885 49.2522 137 44.6109 137C42.8085 137 48.2157 136.812 49.9998 136.556C66.8154 134.136 83.3062 129.792 100.111 127.222C118.78 124.367 137.554 122.397 156 118.222C158.927 117.56 165.707 117.28 168.222 115.222C169.763 113.961 161.926 113.005 161.889 113C145.228 110.933 127.686 111.626 111 112.667C89.6987 113.995 69.2356 119.117 48.222 122.333C41.692 123.333 22.4469 127.293 28.5553 124.778C72.9062 106.516 118.771 96.6833 166.555 93.2222C183.389 92.003 200.31 91.1596 217.111 89.5555C222.277 89.0623 229.636 88.6616 234.333 86C235.84 85.146 235.689 85 234.111 85C215.758 85 197.561 86.2254 179.333 88.4444C136.962 93.6027 95.1954 103.664 52.8886 108.778C35.8737 110.835 86.7335 103.321 103.722 101.056C111.683 99.994 119.714 98.7229 127.722 98.0555C131.314 97.7562 128.64 97.1399 126.278 97.0555C98.5988 96.067 72.8225 100.777 45.9998 106.889C38.8201 108.525 34.523 106.838 35.0553 114.556C35.5203 121.298 36.9998 127.645 36.9998 134.5C36.9998 138.799 36.8545 142.801 38.4442 146.889C40.8511 153.078 60.5714 147.288 65.0553 146.5C82.2875 143.473 99.3562 142.101 116.444 138C129.03 134.979 141.184 130.906 153.944 128.556C159.77 127.482 165.728 127.569 171.5 126.5C177.778 125.337 184.517 126 190.889 126C193.108 126 196.386 126.677 198 124.833C206.6 115.004 205.282 98.5636 200 88C198.963 85.926 197.582 84.0534 196.555 82C196.244 81.377 200.102 91.7709 200.889 94.1667C202.83 100.078 204.566 107.514 208.444 112.5C210.053 114.569 210.527 117.914 212.222 119.778C214.443 122.22 215 105.773 215 103.556C215 89.8659 212.852 80.2781 208.222 67.7778C205.305 59.9032 186.036 67.4404 181.444 69C161.686 75.7105 147.341 92.9061 126.555 97.5555C114.776 100.19 99.4836 98.3346 87.7775 96.2222C75.4461 93.997 62.4858 95 49.9998 95C44.9998 95 39.9998 95 34.9998 95C33.6867 95 41.5594 94.9974 41.7775 95C58.5282 95.203 75.1259 97.3886 91.7775 99C126.7 102.38 161.675 104.248 196.778 102.778C198.809 102.693 217.893 99.6921 218 103.444C218.25 112.193 213.304 116.744 204.778 118.556C199.166 119.748 186.867 121.123 183 115.778C178.179 109.114 179.871 92.6217 187.111 88.2778C201.666 79.5448 205.761 94.3945 207.889 105.944C209.203 113.08 210.526 120.737 206.5 127C204.647 129.881 202.16 132.415 199.944 135C195.777 139.862 187.509 134.249 183.055 139.444C182.675 139.888 197.511 134.464 200.055 133.556C209.867 130.051 225.534 129.039 228.944 117.389C231.674 108.061 230 96.7058 230 87.0555C230 80.9892 228.989 76.5039 225 71.9444C220.25 66.516 218.891 60.2055 212.5 55.9444C209.868 54.19 210.171 50.6203 206.5 50.0556C198.011 48.7496 193.788 55.4949 187 58.8889C172.363 66.2072 154.973 69.1514 139.389 74C121.501 79.565 101.209 78.8522 82.7775 81.7778C79.6476 82.2746 48.071 87.1434 49.222 83C50.951 76.7755 60.5359 70.4786 66.222 68.2222C70.5156 66.5184 75.3731 67 79.8886 67C87.7035 67 95.5183 67 103.333 67C114.358 67 123.129 63.6298 133.778 61.2222C143.64 58.9925 152.707 56.4336 162.222 53.2222C174.233 49.1687 187.206 47.2636 199.444 44C203.705 42.8639 203.217 42.22 199.222 41.9444C185.856 41.0227 172.921 39.6137 159.444 40.0556C142.371 40.6153 126.502 53.3397 110.611 58.8889C98.1581 63.2375 87.7292 64 74.6109 64C64.8776 64 55.2401 65.4697 45.5553 66.5C40.3522 67.0535 33.5708 65.6226 28.5553 67.0556C26.7767 67.5637 24.6749 71.6123 23.9998 73C21.1366 78.8854 24.5256 82.8547 27.9998 87.2222C32.1909 92.4911 32.9998 95.5049 32.9998 102.222C32.9998 104.203 32.9998 116.002 32.9998 107.778C32.9998 101.1 32.0715 96.1037 30.7775 89.7778C30.2948 87.4179 29.0789 83.9147 28.9998 81.7778C28.4061 65.7489 60.8109 77.9278 70.4442 73.1111C76.8329 69.9168 83.3493 64.0402 89.222 59.7778C96.3212 54.6251 103.543 50.1535 111.778 47C120.881 43.5136 132.261 39 142 39C157.242 39 172.792 35.4994 186.555 29C189.869 27.4351 204.848 25.8752 207 29.2222C211.59 36.3626 211 45.8982 211 53.9444C211 61.0529 212.361 64.3055 214.444 70.5556C215.536 73.8309 215.481 82.1611 218.444 84.2778C218.837 84.5581 219 76.2278 219 75.4444C219 69.4671 218.231 64.1898 216 58.6111C210.704 45.3722 204.235 35.5227 189.666 30.6667C183.586 28.64 176.697 29 170.389 29C162.309 29 150.537 26.8168 143 30.1667C132.364 34.8937 123.681 39.7883 111.889 41.5C99.9456 43.2337 88.0306 43 75.9998 43C65.5951 43 55.4125 47.7875 44.9998 48.9444C36.8634 49.8485 29.6634 54.2834 21.5553 55.0556C18.32 55.3637 16.9998 55.8862 16.9998 59C16.9998 63.8988 16.7986 61.9958 17.0553 57.8889C18.1175 40.8943 44.8681 44.9695 56.222 42C65.0011 39.7039 74.3317 40.5337 83.222 38.2222C96.6169 34.7395 109.531 29.9614 123 26.7778C138.552 23.1019 153.53 18.2154 169 14.7778C175.179 13.4046 182.695 12 189 12C195.764 12 203.051 11.2239 209.778 12C215.943 12.7114 216.543 38.8529 217.222 43C219.3 55.6965 221.664 68.3194 223.778 81C224.89 87.6774 228 94.2336 228 101" stroke="#00FFFF" stroke-width="20" stroke-linecap="round"/>
<path d="M41.0002 164C61.2742 164 83.6569 166.996 103.222 161C112.076 158.287 120.839 157.705 128.222 152C136.039 145.96 146.008 145.38 155.222 143.778C165.669 141.961 177.176 140 187.778 140C201.378 140 215.018 138.405 226.778 131C228.381 129.991 239.841 126.351 240 125C240.244 122.924 242.554 121.592 242.945 119.444C243.464 116.587 243 113.306 243 110.389C243 103.396 242.817 98.8813 240.5 92.4444C237.358 83.7157 233.669 75.5535 231.5 66.4444C229.942 59.9014 229.421 53.2352 227.5 46.8333C224.682 37.4381 222.532 28.3621 219 19.2222C217.349 14.9492 216.672 8.29874 212 6.22222C206.896 3.95371 202.924 3 197 3C183.459 3 171.429 3.90224 159 9.77778C147.046 15.4286 132.638 16.8858 120.056 20.5556C111.3 23.1094 101.486 23.1849 92.4446 25.0556C84.5627 26.6863 74.9414 27.5882 67.5002 30.5C58.0874 34.1833 49.0008 37.9444 39.0002 39.0556C32.868 39.7369 26.0289 40.6603 20.0002 42C14.7505 43.1666 9.06496 42.9882 5.55574 47.5C1.04256 53.3027 5.2077 64.6602 6.00019 71C7.66637 84.3294 10.2687 97.6759 11.0557 111.056C11.4675 118.055 11.1691 126.554 14.2224 133C16.1403 137.049 18.4006 140.901 20.2224 145C21.1199 147.019 21.4172 149.766 22.5557 151.556C24.3926 154.442 27.201 157.004 28.778 160C29.8852 162.104 33.0615 171.629 36.0002 169C40.0612 165.366 43.0578 161.854 46.4446 157.5C51.1283 151.478 57.3063 146.031 63.0557 141C65.769 138.626 68.8832 136.115 71.778 134C74.9382 131.691 76.5614 128.042 79.5002 125.556C83.4184 122.24 86.8705 118.019 90.4446 114.444C92.927 111.962 94.7878 107.606 98.0002 106" stroke="black" stroke-width="5" stroke-linecap="round"/>
<path d="M246 118C223.486 118 206.486 98 183.5 98C175.165 98 168.979 90 161 90" stroke="black" stroke-width="5" stroke-linecap="round"/>
<path d="M3 51C15.2009 51 25.2648 60.1338 34.7778 66.7778C42.9771 72.5043 54.1433 79.8096 64 82C70.3455 83.4101 76.1826 85.6552 82.7778 86.7778C89.0333 87.8425 93.6209 89.1911 99.5 91C103.645 92.2753 110.01 93.0174 112.222 97C113.806 99.8507 117.985 102.977 121.056 104C124.678 105.207 127.1 108 131 108C135.185 108 139.771 102.569 141.556 99C146.474 89.1637 154.057 80.6116 159 71C164.451 60.4017 174.221 52.014 181 42.2222C183.581 38.4943 187.846 37.1283 190.5 33C192.361 30.1056 195.036 25.7041 198 24.2222C205.046 20.6994 205.692 7.15412 212 4" stroke="black" stroke-width="5" stroke-linecap="round"/>
</svg>
