<svg width="203" height="188" viewBox="0 0 203 188" fill="none" xmlns="http://www.w3.org/2000/svg">
<rect width="203" height="188" fill="#FFFF00"/>
<path d="M70.1289 128.311C70.1289 120.845 77.2903 118.653 79.3511 113.089C81.0048 108.624 85.198 104.079 88.1289 100.311C91.56 95.8994 94.056 90.3572 96.9067 85.533C101.086 78.46 104.111 71.7215 107.129 64.0885C108.178 61.4352 109.462 53.973 110.24 59.4219C111.33 67.0551 115.185 75.3672 117.629 82.6996C119.925 89.5883 121.155 97.1368 122.351 104.311C123.141 109.05 125.232 112.403 126.573 116.811C127.721 120.581 128.397 124.724 129.907 128.311C131.725 132.63 114.904 121.989 113.129 120.311C104.878 112.51 96.1432 107.35 86.9067 101.311C80.6057 97.1909 75.0717 91.3901 68.6289 87.8108C66.6874 86.7322 65.0583 85.6906 63.1289 84.533C62.3761 84.0813 66.54 84.3108 67.1289 84.3108C71.1474 84.3108 75.1659 84.3108 79.1845 84.3108C93.0854 84.3108 106.846 82.3108 120.629 82.3108C125.807 82.3108 130.426 81.3108 135.629 81.3108C137.647 81.3108 141.684 79.2922 141.684 81.3108C141.684 81.5175 134.176 86.7585 133.351 87.0885C127.289 89.5133 121.601 95.8385 117.129 100.311C111.041 106.399 102.747 110.002 95.1289 113.811C83.8052 119.473 74.1039 129.319 62.1289 133.311" stroke="#FFC700" stroke-width="5" stroke-linecap="round"/>
<path d="M123.129 112.311C118.125 112.311 113.932 110.517 111.129 106.533C110.03 104.972 108.255 104.219 107.129 102.811C105.075 100.244 110.329 108.56 112.129 111.311C116.484 117.968 119.537 125.016 123.073 132.089C123.611 133.164 126.536 138.037 125.906 133.866C124.707 125.922 123.579 115.762 117.629 109.811C116.295 108.477 111.24 106.023 111.24 103.811C111.24 101.957 119.585 108.726 119.462 108.533C113.601 99.3226 108.996 86.8791 108.184 75.9219C107.762 70.2216 108.739 77.7049 109.129 79.3108C110.02 82.9795 110.521 86.6813 111.351 90.3108C113.231 98.5376 109.939 84.8032 109.351 82.533C108.834 80.5376 112.009 81.3757 112.629 82.4774C113.993 84.9032 114.026 87.412 114.129 90.0886C114.216 92.3681 129.546 85.3108 132.629 85.3108C139.81 85.3108 118.31 86.4757 111.184 87.3663C103.454 88.3327 96.1131 91.3108 88.1286 91.3108C77.8258 91.3108 94.0885 94.8978 97.1286 96.3108C101.116 98.1639 104.695 99.8738 108.351 102.311C114.998 106.742 99.926 98.0205 98.1286 97.0886C95.3721 95.6592 92.6073 94.2273 89.6286 93.3108C86.0985 92.2246 86.6596 92.3108 90.2397 92.3108C95.7243 92.3108 104.949 92.1905 108.129 97.7552C108.84 98.9994 113.195 98.3108 114.518 98.3108C120.867 98.3108 101.419 98.7907 95.5731 96.3108C90.6745 94.2326 85.0651 90.6273 79.6842 90.3108C77.6276 90.1898 70.7818 88.3108 71.3509 88.3108C73.5697 88.3108 86.6842 91.087 86.6842 94.0886C86.6842 96.3169 82.4322 92.7094 80.2397 92.3108C78.5122 91.9967 74.7262 90.3786 78.7953 90.3108C87.7209 90.162 100.663 90.9558 107.518 97.8108C110.353 100.646 94.9165 107.934 91.3509 110.311C87.5374 112.853 83.2972 114.966 80.1286 118.311C76.7972 121.827 85.6363 109.024 87.1286 107.366C89.8509 104.342 93.5417 101.708 96.0731 98.7552C99.5382 94.7125 89.408 105.42 88.2953 106.7C87.0733 108.105 83.2562 112.183 84.5731 110.866C86.7723 108.667 89.2642 106.825 91.6286 104.811C96.7878 100.416 101.759 98.051 107.684 95.0886C109.795 94.0329 114.553 106.18 116.906 108.533C118.571 110.197 119.818 112.566 121.129 114.533C122.856 117.125 126.384 120.709 127.073 123.811C127.325 124.946 128.799 128.647 129.629 129.311C129.857 129.494 130.717 131.253 130.684 131.089C129.909 127.213 124.643 121.881 122.573 118.644C114.741 106.394 108.129 93.897 108.129 79.3108C108.129 76.79 109.277 74.8312 109.129 72.3108C108.819 67.0457 105.664 75.5493 105.351 76.0886C101.061 83.4665 100.609 87.3108 91.6842 87.3108C88.5979 87.3108 79.2584 81.7243 76.7953 83.3663C76.7133 83.421 87.5976 87.1369 88.6842 87.3108C95.1818 88.3504 101.748 88.7607 108.129 90.533C116.509 92.8609 113.4 97.8311 117.129 103.533C120.056 108.01 123.129 113.444 123.129 118.811C123.129 122.548 125.806 127.53 127.629 130.811C129.029 133.332 131.129 131.336 131.129 134.811C131.129 135.51 124.542 128.336 123.351 126.311C120.8 121.975 114.273 119.59 110.629 116.755C108.44 115.053 105.333 113.464 102.74 112.311C99.8702 111.035 103.914 113.096 105.129 114.311" stroke="#FFC700" stroke-width="5" stroke-linecap="round"/>
<path d="M68.129 125.311C75.0282 124.221 73.8712 115.027 79.6846 113.366C84.4829 111.995 77.5559 117.995 75.7401 119.811C73.1954 122.356 69.6382 125.185 67.629 128.311C63.8512 134.187 73.0905 130.573 74.129 128.755C76.6942 124.266 85.6333 122.507 89.3512 119.533C92.7612 116.805 101.701 112.311 106.129 112.311" stroke="#FFC700" stroke-width="5" stroke-linecap="round"/>
</svg>
