<svg width="547" height="198" viewBox="0 0 547 198" fill="none" xmlns="http://www.w3.org/2000/svg">
<path d="M42.1602 3.59375V1.5625H22.9414V4.72656H38.332L26.5938 30H30.3828L42.1602 3.59375ZM73.8984 38.5352C74.849 38.5352 75.6888 38.3594 76.418 38.0078C77.1471 37.6562 77.7852 37.2201 78.332 36.6992C78.8789 36.1784 79.3411 35.612 79.7188 35C80.1094 34.388 80.4284 33.8086 80.6758 33.2617L91.3984 8.86719H87.3555L81.9062 22.5781L80.9102 25.0586L79.9727 22.5L74.1719 8.86719H70.1289L79.2305 29.0039L77.7852 31.8164C77.6549 32.0768 77.4727 32.4089 77.2383 32.8125C77.0169 33.2161 76.75 33.6068 76.4375 33.9844C76.112 34.362 75.7409 34.6875 75.3242 34.9609C74.9206 35.2344 74.4714 35.3711 73.9766 35.3711C73.7943 35.3711 73.5404 35.3581 73.2148 35.332C72.9023 35.319 72.5833 35.2995 72.2578 35.2734L71.6719 38.2227C71.9062 38.2747 72.2513 38.3398 72.707 38.418C73.1628 38.4961 73.5599 38.5352 73.8984 38.5352ZM105.559 30.3906C107.616 30.3906 109.341 29.9805 110.734 29.1602C112.141 28.3268 113.195 27.3763 113.898 26.3086L111.691 24.5898C111.027 25.4492 110.194 26.1393 109.191 26.6602C108.189 27.181 107.043 27.4414 105.754 27.4414C104.777 27.4414 103.885 27.2591 103.078 26.8945C102.271 26.5299 101.581 26.0286 101.008 25.3906C100.448 24.7917 100.005 24.1016 99.6797 23.3203C99.3672 22.5391 99.1654 21.6341 99.0742 20.6055V20.4688H114.172V18.8477C114.172 17.3763 113.983 16.0091 113.605 14.7461C113.241 13.4831 112.681 12.3828 111.926 11.4453C111.171 10.5208 110.22 9.79818 109.074 9.27734C107.941 8.74349 106.613 8.47656 105.09 8.47656C103.879 8.47656 102.694 8.72396 101.535 9.21875C100.389 9.71354 99.3672 10.4232 98.4688 11.3477C97.5573 12.2852 96.8281 13.431 96.2812 14.7852C95.7344 16.1263 95.4609 17.6497 95.4609 19.3555V20.1758C95.4609 21.6471 95.7083 23.0078 96.2031 24.2578C96.6979 25.5078 97.388 26.5885 98.2734 27.5C99.1589 28.4115 100.22 29.1211 101.457 29.6289C102.707 30.1367 104.074 30.3906 105.559 30.3906ZM105.09 11.4453C106.014 11.4453 106.809 11.6146 107.473 11.9531C108.15 12.2917 108.71 12.7344 109.152 13.2812C109.595 13.8281 109.94 14.4792 110.188 15.2344C110.435 15.9766 110.559 16.6732 110.559 17.3242V17.5H99.1914C99.3346 16.5234 99.582 15.6641 99.9336 14.9219C100.298 14.1667 100.741 13.5286 101.262 13.0078C101.783 12.5 102.368 12.1159 103.02 11.8555C103.671 11.582 104.361 11.4453 105.09 11.4453ZM134.133 30H137.902V29.6875C137.668 29.1016 137.486 28.418 137.355 27.6367C137.225 26.8424 137.16 26.0938 137.16 25.3906V15.5664C137.16 14.3815 136.945 13.3464 136.516 12.4609C136.086 11.5755 135.5 10.8333 134.758 10.2344C134.003 9.64844 133.111 9.21224 132.082 8.92578C131.053 8.6263 129.94 8.47656 128.742 8.47656C127.427 8.47656 126.249 8.65885 125.207 9.02344C124.178 9.38802 123.306 9.86328 122.59 10.4492C121.861 11.0482 121.301 11.7188 120.91 12.4609C120.533 13.2031 120.337 13.9583 120.324 14.7266H123.957C123.957 14.2839 124.061 13.8607 124.27 13.457C124.491 13.0404 124.797 12.6823 125.188 12.3828C125.578 12.0833 126.053 11.8424 126.613 11.6602C127.186 11.4779 127.831 11.3867 128.547 11.3867C129.315 11.3867 130.005 11.4844 130.617 11.6797C131.242 11.875 131.77 12.1484 132.199 12.5C132.629 12.8646 132.961 13.3008 133.195 13.8086C133.43 14.3164 133.547 14.8893 133.547 15.5273V17.1875H129.602C128.13 17.1875 126.796 17.3307 125.598 17.6172C124.413 17.9036 123.397 18.3333 122.551 18.9062C121.704 19.4922 121.047 20.2214 120.578 21.0938C120.122 21.9661 119.895 22.9818 119.895 24.1406C119.895 25.026 120.064 25.8529 120.402 26.6211C120.754 27.3763 121.249 28.0273 121.887 28.5742C122.512 29.1341 123.273 29.5768 124.172 29.9023C125.083 30.2279 126.099 30.3906 127.219 30.3906C127.909 30.3906 128.56 30.319 129.172 30.1758C129.784 30.0326 130.363 29.8372 130.91 29.5898C131.444 29.3424 131.932 29.056 132.375 28.7305C132.831 28.4049 133.241 28.0599 133.605 27.6953C133.645 28.138 133.703 28.5677 133.781 28.9844C133.872 29.388 133.99 29.7266 134.133 30ZM127.746 27.2461C127.043 27.2461 126.424 27.1549 125.891 26.9727C125.357 26.7904 124.914 26.5365 124.562 26.2109C124.211 25.8984 123.944 25.5208 123.762 25.0781C123.592 24.6354 123.508 24.1536 123.508 23.6328C123.508 23.0859 123.605 22.5977 123.801 22.168C124.009 21.7383 124.309 21.3672 124.699 21.0547C125.246 20.612 125.982 20.2865 126.906 20.0781C127.844 19.8568 128.938 19.7461 130.188 19.7461H133.547V24.0234C133.339 24.4401 133.052 24.8438 132.688 25.2344C132.323 25.612 131.893 25.9505 131.398 26.25C130.891 26.5495 130.331 26.7904 129.719 26.9727C129.107 27.1549 128.449 27.2461 127.746 27.2461ZM158.117 8.47656C156.581 8.47656 155.207 8.8151 153.996 9.49219C152.798 10.1562 151.77 11.0677 150.91 12.2266L150.891 11.6992L150.734 8.86719H147.297V30H150.93V16.4453C151.164 15.7943 151.457 15.2083 151.809 14.6875C152.173 14.1536 152.596 13.7044 153.078 13.3398C153.612 12.9232 154.237 12.6107 154.953 12.4023C155.669 12.181 156.47 12.0703 157.355 12.0703C158.046 12.0703 158.703 12.1094 159.328 12.1875C159.966 12.2526 160.637 12.3633 161.34 12.5195L161.828 8.98438C161.464 8.82812 160.917 8.70443 160.188 8.61328C159.471 8.52214 158.781 8.47656 158.117 8.47656ZM182.336 24.3945C182.336 24.7331 182.271 25.0521 182.141 25.3516C182.01 25.651 181.822 25.9245 181.574 26.1719C181.171 26.5755 180.611 26.8945 179.895 27.1289C179.178 27.3503 178.339 27.4609 177.375 27.4609C176.763 27.4609 176.145 27.3958 175.52 27.2656C174.895 27.1354 174.328 26.9141 173.82 26.6016C173.299 26.2891 172.863 25.8789 172.512 25.3711C172.173 24.8633 171.978 24.2383 171.926 23.4961H168.312C168.312 24.3945 168.514 25.2604 168.918 26.0938C169.335 26.9271 169.934 27.6562 170.715 28.2812C171.483 28.9193 172.427 29.4336 173.547 29.8242C174.667 30.2018 175.943 30.3906 177.375 30.3906C178.625 30.3906 179.777 30.2409 180.832 29.9414C181.887 29.6419 182.792 29.2188 183.547 28.6719C184.302 28.125 184.888 27.4674 185.305 26.6992C185.734 25.931 185.949 25.0781 185.949 24.1406C185.949 23.2682 185.76 22.5 185.383 21.8359C185.018 21.1719 184.484 20.5859 183.781 20.0781C183.078 19.5833 182.212 19.1602 181.184 18.8086C180.155 18.444 178.99 18.125 177.688 17.8516C176.698 17.6562 175.878 17.4544 175.227 17.2461C174.589 17.0378 174.081 16.8034 173.703 16.543C173.312 16.2826 173.039 15.9896 172.883 15.6641C172.727 15.3385 172.648 14.9674 172.648 14.5508C172.648 14.1471 172.746 13.7565 172.941 13.3789C173.137 13.0013 173.43 12.6693 173.82 12.3828C174.198 12.0964 174.673 11.8685 175.246 11.6992C175.832 11.5299 176.509 11.4453 177.277 11.4453C178.02 11.4453 178.684 11.5495 179.27 11.7578C179.868 11.9661 180.376 12.2396 180.793 12.5781C181.21 12.9167 181.535 13.3073 181.77 13.75C182.004 14.1797 182.121 14.6224 182.121 15.0781H185.734C185.734 14.1536 185.533 13.2943 185.129 12.5C184.738 11.6927 184.178 10.9896 183.449 10.3906C182.72 9.79167 181.835 9.32292 180.793 8.98438C179.751 8.64583 178.579 8.47656 177.277 8.47656C176.066 8.47656 174.953 8.63932 173.938 8.96484C172.935 9.29036 172.069 9.73307 171.34 10.293C170.611 10.8529 170.044 11.5104 169.641 12.2656C169.237 13.0078 169.035 13.8086 169.035 14.668C169.035 15.5404 169.23 16.3086 169.621 16.9727C170.012 17.6237 170.565 18.1901 171.281 18.6719C171.984 19.1667 172.831 19.5898 173.82 19.9414C174.823 20.293 175.93 20.5924 177.141 20.8398C178.13 21.0352 178.957 21.2565 179.621 21.5039C180.285 21.7383 180.819 21.9987 181.223 22.2852C181.626 22.5716 181.913 22.8906 182.082 23.2422C182.251 23.5807 182.336 23.9648 182.336 24.3945ZM218.371 30H221.223L224.484 17.0508L225.012 13.7695L225.559 17.0508L228.859 30H231.711L236.203 8.86719H233L230.656 22.3438L230.129 25.6641L229.562 22.3438L226.203 8.86719H223.879L220.5 22.3438L219.973 25.3711L219.543 22.3438L217.082 8.86719H213.879L218.371 30ZM239.348 19.2383V19.668C239.348 21.1914 239.569 22.6042 240.012 23.9062C240.454 25.2083 241.092 26.3411 241.926 27.3047C242.746 28.2682 243.749 29.0234 244.934 29.5703C246.132 30.1172 247.479 30.3906 248.977 30.3906C250.461 30.3906 251.796 30.1172 252.98 29.5703C254.165 29.0234 255.174 28.2682 256.008 27.3047C256.828 26.3411 257.46 25.2083 257.902 23.9062C258.345 22.6042 258.566 21.1914 258.566 19.668V19.2383C258.566 17.7148 258.345 16.3021 257.902 15C257.46 13.6849 256.828 12.5456 256.008 11.582C255.174 10.6185 254.159 9.86328 252.961 9.31641C251.776 8.75651 250.435 8.47656 248.938 8.47656C247.453 8.47656 246.118 8.75651 244.934 9.31641C243.749 9.86328 242.746 10.6185 241.926 11.582C241.092 12.5456 240.454 13.6849 240.012 15C239.569 16.3021 239.348 17.7148 239.348 19.2383ZM242.961 19.668V19.2383C242.961 18.2096 243.085 17.2266 243.332 16.2891C243.579 15.3385 243.957 14.5052 244.465 13.7891C244.96 13.0729 245.578 12.5065 246.32 12.0898C247.062 11.6602 247.935 11.4453 248.938 11.4453C249.94 11.4453 250.812 11.6602 251.555 12.0898C252.31 12.5065 252.941 13.0729 253.449 13.7891C253.944 14.5052 254.315 15.3385 254.562 16.2891C254.823 17.2266 254.953 18.2096 254.953 19.2383V19.668C254.953 20.7096 254.829 21.7057 254.582 22.6562C254.335 23.5938 253.964 24.4206 253.469 25.1367C252.961 25.8529 252.329 26.4193 251.574 26.8359C250.832 27.2526 249.966 27.4609 248.977 27.4609C247.974 27.4609 247.095 27.2526 246.34 26.8359C245.585 26.4193 244.96 25.8529 244.465 25.1367C243.957 24.4206 243.579 23.5938 243.332 22.6562C243.085 21.7057 242.961 20.7096 242.961 19.668ZM278.234 8.47656C276.698 8.47656 275.324 8.8151 274.113 9.49219C272.915 10.1562 271.887 11.0677 271.027 12.2266L271.008 11.6992L270.852 8.86719H267.414V30H271.047V16.4453C271.281 15.7943 271.574 15.2083 271.926 14.6875C272.29 14.1536 272.714 13.7044 273.195 13.3398C273.729 12.9232 274.354 12.6107 275.07 12.4023C275.786 12.181 276.587 12.0703 277.473 12.0703C278.163 12.0703 278.82 12.1094 279.445 12.1875C280.083 12.2526 280.754 12.3633 281.457 12.5195L281.945 8.98438C281.581 8.82812 281.034 8.70443 280.305 8.61328C279.589 8.52214 278.898 8.47656 278.234 8.47656ZM294.738 20.1367L302.492 30H307.082L297.219 17.6758L305.773 8.86719H301.379L294.445 15.8203L292.082 18.3594V0H288.449V30H292.082V22.6953L294.738 20.1367ZM313 8.86719V12.0117H320.188V26.875H313V30H330.695V26.875H323.801V8.86719H313ZM319.719 3.32031C319.719 3.90625 319.895 4.39453 320.246 4.78516C320.611 5.17578 321.158 5.37109 321.887 5.37109C322.603 5.37109 323.143 5.17578 323.508 4.78516C323.872 4.39453 324.055 3.90625 324.055 3.32031C324.055 2.99479 324.003 2.69531 323.898 2.42188C323.794 2.14844 323.638 1.92057 323.43 1.73828C323.26 1.56901 323.046 1.4388 322.785 1.34766C322.525 1.24349 322.225 1.19141 321.887 1.19141C321.548 1.19141 321.242 1.24349 320.969 1.34766C320.708 1.4388 320.493 1.56901 320.324 1.73828C320.116 1.93359 319.96 2.16797 319.855 2.44141C319.764 2.71484 319.719 3.00781 319.719 3.32031ZM336.457 30H340.07V14.8438C340.318 14.388 340.604 13.9714 340.93 13.5938C341.268 13.2161 341.633 12.8841 342.023 12.5977C342.505 12.2721 343.033 12.0182 343.605 11.8359C344.178 11.6406 344.797 11.543 345.461 11.543C346.229 11.543 346.906 11.6341 347.492 11.8164C348.091 11.9987 348.599 12.2917 349.016 12.6953C349.419 13.099 349.725 13.6263 349.934 14.2773C350.142 14.9284 350.246 15.7227 350.246 16.6602V30H353.859V16.582C353.859 15.1758 353.684 13.9648 353.332 12.9492C352.993 11.9206 352.505 11.0742 351.867 10.4102C351.229 9.74609 350.454 9.25781 349.543 8.94531C348.645 8.63281 347.642 8.47656 346.535 8.47656C345.715 8.48958 344.934 8.61328 344.191 8.84766C343.462 9.06901 342.785 9.38802 342.16 9.80469C341.743 10.0781 341.346 10.4036 340.969 10.7812C340.604 11.1458 340.266 11.5495 339.953 11.9922L339.699 8.86719H336.457V30ZM359.816 19.2578V19.668C359.816 21.1784 360.012 22.5911 360.402 23.9062C360.793 25.2083 361.353 26.3411 362.082 27.3047C362.798 28.2682 363.677 29.0234 364.719 29.5703C365.76 30.1172 366.926 30.3906 368.215 30.3906C368.983 30.3906 369.699 30.306 370.363 30.1367C371.027 29.9805 371.633 29.7526 372.18 29.4531C372.531 29.2578 372.857 29.0299 373.156 28.7695C373.469 28.5091 373.762 28.2227 374.035 27.9102V29.7266C374.035 30.638 373.905 31.4453 373.645 32.1484C373.384 32.8516 373.013 33.4375 372.531 33.9062C372.036 34.388 371.444 34.7526 370.754 35C370.064 35.2474 369.289 35.3711 368.43 35.3711C367.948 35.3711 367.466 35.319 366.984 35.2148C366.503 35.1237 366.021 34.9674 365.539 34.7461C365.057 34.5247 364.582 34.2253 364.113 33.8477C363.645 33.4831 363.189 33.0339 362.746 32.5L360.871 34.668C361.353 35.3581 361.926 35.9375 362.59 36.4062C363.267 36.875 363.97 37.2461 364.699 37.5195C365.415 37.806 366.125 38.0078 366.828 38.125C367.531 38.2552 368.156 38.3203 368.703 38.3203C370.031 38.3203 371.242 38.125 372.336 37.7344C373.43 37.3438 374.374 36.7708 375.168 36.0156C375.949 35.2604 376.555 34.3424 376.984 33.2617C377.427 32.181 377.648 30.944 377.648 29.5508V8.86719H374.367L374.191 11.1719C373.944 10.8594 373.677 10.5729 373.391 10.3125C373.117 10.0521 372.824 9.82422 372.512 9.62891C371.939 9.2513 371.294 8.96484 370.578 8.76953C369.875 8.57422 369.1 8.47656 368.254 8.47656C366.939 8.47656 365.76 8.74349 364.719 9.27734C363.677 9.8112 362.792 10.5534 362.062 11.5039C361.333 12.4544 360.773 13.5938 360.383 14.9219C360.005 16.237 359.816 17.6823 359.816 19.2578ZM363.43 19.668V19.2578C363.43 18.2292 363.534 17.2526 363.742 16.3281C363.964 15.3906 364.309 14.5638 364.777 13.8477C365.233 13.1445 365.819 12.5846 366.535 12.168C367.264 11.7513 368.137 11.543 369.152 11.543C369.751 11.543 370.298 11.6211 370.793 11.7773C371.288 11.9206 371.737 12.1224 372.141 12.3828C372.544 12.6562 372.902 12.9753 373.215 13.3398C373.527 13.7044 373.801 14.1081 374.035 14.5508V24.2383C373.801 24.694 373.527 25.1107 373.215 25.4883C372.902 25.8659 372.551 26.1914 372.16 26.4648C371.757 26.7383 371.301 26.9531 370.793 27.1094C370.298 27.2526 369.738 27.3242 369.113 27.3242C368.111 27.3242 367.251 27.1224 366.535 26.7188C365.819 26.3021 365.233 25.7422 364.777 25.0391C364.309 24.3359 363.964 23.5221 363.742 22.5977C363.534 21.6732 363.43 20.6966 363.43 19.668ZM410.559 30H413.41L416.672 17.0508L417.199 13.7695L417.746 17.0508L421.047 30H423.898L428.391 8.86719H425.188L422.844 22.3438L422.316 25.6641L421.75 22.3438L418.391 8.86719H416.066L412.688 22.3438L412.16 25.3711L411.73 22.3438L409.27 8.86719H406.066L410.559 30ZM433.117 8.86719V12.0117H440.305V26.875H433.117V30H450.812V26.875H443.918V8.86719H433.117ZM439.836 3.32031C439.836 3.90625 440.012 4.39453 440.363 4.78516C440.728 5.17578 441.275 5.37109 442.004 5.37109C442.72 5.37109 443.26 5.17578 443.625 4.78516C443.99 4.39453 444.172 3.90625 444.172 3.32031C444.172 2.99479 444.12 2.69531 444.016 2.42188C443.911 2.14844 443.755 1.92057 443.547 1.73828C443.378 1.56901 443.163 1.4388 442.902 1.34766C442.642 1.24349 442.342 1.19141 442.004 1.19141C441.665 1.19141 441.359 1.24349 441.086 1.34766C440.826 1.4388 440.611 1.56901 440.441 1.73828C440.233 1.93359 440.077 2.16797 439.973 2.44141C439.882 2.71484 439.836 3.00781 439.836 3.32031ZM465.129 3.75H461.496V8.86719H455.949V11.6602H461.496V23.1445C461.496 24.4466 461.665 25.5599 462.004 26.4844C462.355 27.3958 462.831 28.138 463.43 28.7109C464.029 29.2969 464.732 29.7266 465.539 30C466.359 30.2604 467.238 30.3906 468.176 30.3906C468.736 30.3906 469.296 30.3646 469.855 30.3125C470.428 30.2604 470.969 30.1823 471.477 30.0781C471.984 29.987 472.453 29.8763 472.883 29.7461C473.312 29.6029 473.677 29.4401 473.977 29.2578L473.469 26.6992C473.247 26.7513 472.961 26.8164 472.609 26.8945C472.271 26.9596 471.906 27.0247 471.516 27.0898C471.112 27.1549 470.702 27.2135 470.285 27.2656C469.868 27.3047 469.465 27.3242 469.074 27.3242C468.54 27.3242 468.033 27.2591 467.551 27.1289C467.082 26.9987 466.665 26.7708 466.301 26.4453C465.936 26.1328 465.65 25.7096 465.441 25.1758C465.233 24.6419 465.129 23.9648 465.129 23.1445V11.6602H473.176V8.86719H465.129V3.75ZM484.211 12.0117V0H480.598V30H484.211V14.6484C484.471 14.2318 484.764 13.8542 485.09 13.5156C485.428 13.1641 485.793 12.8581 486.184 12.5977C486.678 12.2591 487.219 11.9987 487.805 11.8164C488.391 11.6341 489.009 11.543 489.66 11.543C490.454 11.5299 491.158 11.6406 491.77 11.875C492.382 12.0964 492.889 12.4349 493.293 12.8906C493.671 13.3073 493.957 13.8346 494.152 14.4727C494.348 15.0977 494.445 15.8268 494.445 16.6602V30H498.059V16.6992C498.059 15.2799 497.883 14.056 497.531 13.0273C497.193 11.9857 496.704 11.1263 496.066 10.4492C495.428 9.77214 494.654 9.27734 493.742 8.96484C492.844 8.63932 491.841 8.47656 490.734 8.47656C489.888 8.48958 489.087 8.61328 488.332 8.84766C487.59 9.08203 486.906 9.42708 486.281 9.88281C485.891 10.1562 485.52 10.4753 485.168 10.8398C484.816 11.1914 484.497 11.582 484.211 12.0117ZM18.0391 72.668V72.2578C18.0391 71.151 17.9479 70.1029 17.7656 69.1133C17.5833 68.1107 17.3164 67.1992 16.9648 66.3789C16.6263 65.6497 16.2357 64.9922 15.793 64.4062C15.3503 63.8073 14.849 63.2995 14.2891 62.8828C13.6641 62.4401 12.9674 62.0951 12.1992 61.8477C11.431 61.6003 10.5911 61.4766 9.67969 61.4766C8.95052 61.4766 8.27344 61.5482 7.64844 61.6914C7.02344 61.8346 6.45052 62.043 5.92969 62.3164C5.51302 62.5378 5.1224 62.8047 4.75781 63.1172C4.39323 63.4167 4.0612 63.7552 3.76172 64.1328V53H0.148438V83H3.46875L3.64453 80.5977C3.87891 80.8971 4.1263 81.1706 4.38672 81.418C4.64714 81.6654 4.92057 81.8932 5.20703 82.1016C5.80599 82.5182 6.47656 82.8372 7.21875 83.0586C7.97396 83.2799 8.80729 83.3906 9.71875 83.3906C10.513 83.3906 11.2487 83.293 11.9258 83.0977C12.6159 82.9023 13.2474 82.6289 13.8203 82.2773C14.6146 81.7695 15.2917 81.1315 15.8516 80.3633C16.4245 79.582 16.8867 78.7031 17.2383 77.7266C17.4987 76.9844 17.694 76.1901 17.8242 75.3438C17.9674 74.4844 18.0391 73.5924 18.0391 72.668ZM14.4258 72.2578V72.668C14.4258 73.293 14.3867 73.9049 14.3086 74.5039C14.2305 75.1029 14.1068 75.6628 13.9375 76.1836C13.7292 76.8737 13.4492 77.4987 13.0977 78.0586C12.7461 78.6185 12.3099 79.0807 11.7891 79.4453C11.3984 79.7318 10.9557 79.9531 10.4609 80.1094C9.96615 80.2526 9.41927 80.3242 8.82031 80.3242C8.19531 80.3242 7.6224 80.2461 7.10156 80.0898C6.58073 79.9206 6.11198 79.6862 5.69531 79.3867C5.27865 79.0872 4.90755 78.7422 4.58203 78.3516C4.26953 77.9479 3.99609 77.5117 3.76172 77.043V67.8047C3.98307 67.3359 4.25 66.9062 4.5625 66.5156C4.88802 66.112 5.25911 65.7604 5.67578 65.4609C6.07943 65.1745 6.54167 64.9531 7.0625 64.7969C7.58333 64.6276 8.15625 64.543 8.78125 64.543C9.35417 64.543 9.875 64.6081 10.3438 64.7383C10.8125 64.8685 11.2357 65.0508 11.6133 65.2852C12.1602 65.6107 12.6224 66.0599 13 66.6328C13.3776 67.2057 13.6836 67.8372 13.918 68.5273C14.0872 69.0872 14.2109 69.6862 14.2891 70.3242C14.3802 70.9492 14.4258 71.5938 14.4258 72.2578ZM33.4883 83.3906C35.5456 83.3906 37.2708 82.9805 38.6641 82.1602C40.0703 81.3268 41.125 80.3763 41.8281 79.3086L39.6211 77.5898C38.957 78.4492 38.1237 79.1393 37.1211 79.6602C36.1185 80.181 34.9727 80.4414 33.6836 80.4414C32.707 80.4414 31.8151 80.2591 31.0078 79.8945C30.2005 79.5299 29.5104 79.0286 28.9375 78.3906C28.3776 77.7917 27.9349 77.1016 27.6094 76.3203C27.2969 75.5391 27.0951 74.6341 27.0039 73.6055V73.4688H42.1016V71.8477C42.1016 70.3763 41.9128 69.0091 41.5352 67.7461C41.1706 66.4831 40.6107 65.3828 39.8555 64.4453C39.1003 63.5208 38.1497 62.7982 37.0039 62.2773C35.8711 61.7435 34.543 61.4766 33.0195 61.4766C31.8086 61.4766 30.6237 61.724 29.4648 62.2188C28.319 62.7135 27.2969 63.4232 26.3984 64.3477C25.487 65.2852 24.7578 66.431 24.2109 67.7852C23.6641 69.1263 23.3906 70.6497 23.3906 72.3555V73.1758C23.3906 74.6471 23.638 76.0078 24.1328 77.2578C24.6276 78.5078 25.3177 79.5885 26.2031 80.5C27.0885 81.4115 28.1497 82.1211 29.3867 82.6289C30.6367 83.1367 32.0039 83.3906 33.4883 83.3906ZM33.0195 64.4453C33.944 64.4453 34.7383 64.6146 35.4023 64.9531C36.0794 65.2917 36.6393 65.7344 37.082 66.2812C37.5247 66.8281 37.8698 67.4792 38.1172 68.2344C38.3646 68.9766 38.4883 69.6732 38.4883 70.3242V70.5H27.1211C27.2643 69.5234 27.5117 68.6641 27.8633 67.9219C28.2279 67.1667 28.6706 66.5286 29.1914 66.0078C29.7122 65.5 30.2982 65.1159 30.9492 64.8555C31.6003 64.582 32.2904 64.4453 33.0195 64.4453ZM62.2188 77.3945C62.2188 77.7331 62.1536 78.0521 62.0234 78.3516C61.8932 78.651 61.7044 78.9245 61.457 79.1719C61.0534 79.5755 60.4935 79.8945 59.7773 80.1289C59.0612 80.3503 58.2214 80.4609 57.2578 80.4609C56.6458 80.4609 56.0273 80.3958 55.4023 80.2656C54.7773 80.1354 54.2109 79.9141 53.7031 79.6016C53.1823 79.2891 52.7461 78.8789 52.3945 78.3711C52.056 77.8633 51.8607 77.2383 51.8086 76.4961H48.1953C48.1953 77.3945 48.3971 78.2604 48.8008 79.0938C49.2174 79.9271 49.8164 80.6562 50.5977 81.2812C51.3659 81.9193 52.3099 82.4336 53.4297 82.8242C54.5495 83.2018 55.8255 83.3906 57.2578 83.3906C58.5078 83.3906 59.6602 83.2409 60.7148 82.9414C61.7695 82.6419 62.6745 82.2188 63.4297 81.6719C64.1849 81.125 64.7708 80.4674 65.1875 79.6992C65.6172 78.931 65.832 78.0781 65.832 77.1406C65.832 76.2682 65.6432 75.5 65.2656 74.8359C64.901 74.1719 64.3672 73.5859 63.6641 73.0781C62.9609 72.5833 62.0951 72.1602 61.0664 71.8086C60.0378 71.444 58.8724 71.125 57.5703 70.8516C56.5807 70.6562 55.7604 70.4544 55.1094 70.2461C54.4714 70.0378 53.9635 69.8034 53.5859 69.543C53.1953 69.2826 52.9219 68.9896 52.7656 68.6641C52.6094 68.3385 52.5312 67.9674 52.5312 67.5508C52.5312 67.1471 52.6289 66.7565 52.8242 66.3789C53.0195 66.0013 53.3125 65.6693 53.7031 65.3828C54.0807 65.0964 54.556 64.8685 55.1289 64.6992C55.7148 64.5299 56.3919 64.4453 57.1602 64.4453C57.9023 64.4453 58.5664 64.5495 59.1523 64.7578C59.7513 64.9661 60.2591 65.2396 60.6758 65.5781C61.0924 65.9167 61.418 66.3073 61.6523 66.75C61.8867 67.1797 62.0039 67.6224 62.0039 68.0781H65.6172C65.6172 67.1536 65.4154 66.2943 65.0117 65.5C64.6211 64.6927 64.0612 63.9896 63.332 63.3906C62.6029 62.7917 61.7174 62.3229 60.6758 61.9844C59.6341 61.6458 58.4622 61.4766 57.1602 61.4766C55.9492 61.4766 54.8359 61.6393 53.8203 61.9648C52.8177 62.2904 51.9518 62.7331 51.2227 63.293C50.4935 63.8529 49.9271 64.5104 49.5234 65.2656C49.1198 66.0078 48.918 66.8086 48.918 67.668C48.918 68.5404 49.1133 69.3086 49.5039 69.9727C49.8945 70.6237 50.4479 71.1901 51.1641 71.6719C51.8672 72.1667 52.7135 72.5898 53.7031 72.9414C54.7057 73.293 55.8125 73.5924 57.0234 73.8398C58.013 74.0352 58.8398 74.2565 59.5039 74.5039C60.168 74.7383 60.7018 74.9987 61.1055 75.2852C61.5091 75.5716 61.7956 75.8906 61.9648 76.2422C62.1341 76.5807 62.2188 76.9648 62.2188 77.3945ZM80.7539 56.75H77.1211V61.8672H71.5742V64.6602H77.1211V76.1445C77.1211 77.4466 77.2904 78.5599 77.6289 79.4844C77.9805 80.3958 78.4557 81.138 79.0547 81.7109C79.6536 82.2969 80.3568 82.7266 81.1641 83C81.9844 83.2604 82.8633 83.3906 83.8008 83.3906C84.3607 83.3906 84.9206 83.3646 85.4805 83.3125C86.0534 83.2604 86.5938 83.1823 87.1016 83.0781C87.6094 82.987 88.0781 82.8763 88.5078 82.7461C88.9375 82.6029 89.3021 82.4401 89.6016 82.2578L89.0938 79.6992C88.8724 79.7513 88.5859 79.8164 88.2344 79.8945C87.8958 79.9596 87.5312 80.0247 87.1406 80.0898C86.737 80.1549 86.3268 80.2135 85.9102 80.2656C85.4935 80.3047 85.0898 80.3242 84.6992 80.3242C84.1654 80.3242 83.6576 80.2591 83.1758 80.1289C82.707 79.9987 82.2904 79.7708 81.9258 79.4453C81.5612 79.1328 81.2747 78.7096 81.0664 78.1758C80.8581 77.6419 80.7539 76.9648 80.7539 76.1445V64.6602H88.8008V61.8672H80.7539V56.75ZM112.023 72.043V69.0742H97.082V72.043H112.023ZM120.812 61.8672V65.0117H128V79.875H120.812V83H138.508V79.875H131.613V61.8672H120.812ZM127.531 56.3203C127.531 56.9062 127.707 57.3945 128.059 57.7852C128.423 58.1758 128.97 58.3711 129.699 58.3711C130.415 58.3711 130.956 58.1758 131.32 57.7852C131.685 57.3945 131.867 56.9062 131.867 56.3203C131.867 55.9948 131.815 55.6953 131.711 55.4219C131.607 55.1484 131.451 54.9206 131.242 54.7383C131.073 54.569 130.858 54.4388 130.598 54.3477C130.337 54.2435 130.038 54.1914 129.699 54.1914C129.361 54.1914 129.055 54.2435 128.781 54.3477C128.521 54.4388 128.306 54.569 128.137 54.7383C127.928 54.9336 127.772 55.168 127.668 55.4414C127.577 55.7148 127.531 56.0078 127.531 56.3203ZM144.27 83H147.883V67.8438C148.13 67.388 148.417 66.9714 148.742 66.5938C149.081 66.2161 149.445 65.8841 149.836 65.5977C150.318 65.2721 150.845 65.0182 151.418 64.8359C151.991 64.6406 152.609 64.543 153.273 64.543C154.042 64.543 154.719 64.6341 155.305 64.8164C155.904 64.9987 156.411 65.2917 156.828 65.6953C157.232 66.099 157.538 66.6263 157.746 67.2773C157.954 67.9284 158.059 68.7227 158.059 69.6602V83H161.672V69.582C161.672 68.1758 161.496 66.9648 161.145 65.9492C160.806 64.9206 160.318 64.0742 159.68 63.4102C159.042 62.7461 158.267 62.2578 157.355 61.9453C156.457 61.6328 155.454 61.4766 154.348 61.4766C153.527 61.4896 152.746 61.6133 152.004 61.8477C151.275 62.069 150.598 62.388 149.973 62.8047C149.556 63.0781 149.159 63.4036 148.781 63.7812C148.417 64.1458 148.078 64.5495 147.766 64.9922L147.512 61.8672H144.27V83ZM184.094 72.043V69.0742H169.152V72.043H184.094ZM201.32 80.4609C200.188 80.4609 199.237 80.2396 198.469 79.7969C197.714 79.3411 197.108 78.7487 196.652 78.0195C196.184 77.3034 195.845 76.4961 195.637 75.5977C195.441 74.6862 195.344 73.7682 195.344 72.8438V72.0234C195.344 71.112 195.441 70.207 195.637 69.3086C195.845 68.4102 196.184 67.5964 196.652 66.8672C197.121 66.151 197.733 65.5716 198.488 65.1289C199.257 64.6732 200.201 64.4453 201.32 64.4453C202.049 64.4453 202.727 64.569 203.352 64.8164C203.99 65.0638 204.536 65.4023 204.992 65.832C205.448 66.2617 205.806 66.763 206.066 67.3359C206.34 67.8958 206.483 68.4948 206.496 69.1328H209.914C209.914 68.0651 209.699 67.0625 209.27 66.125C208.84 65.1875 208.247 64.3737 207.492 63.6836C206.724 63.0065 205.812 62.4727 204.758 62.082C203.716 61.6784 202.57 61.4766 201.32 61.4766C199.719 61.4766 198.319 61.763 197.121 62.3359C195.923 62.9089 194.927 63.6771 194.133 64.6406C193.326 65.6172 192.72 66.7435 192.316 68.0195C191.913 69.2956 191.711 70.6302 191.711 72.0234V72.8438C191.711 74.25 191.913 75.5911 192.316 76.8672C192.72 78.1302 193.326 79.2435 194.133 80.207C194.927 81.1836 195.923 81.9583 197.121 82.5312C198.319 83.1042 199.719 83.3906 201.32 83.3906C202.44 83.3906 203.514 83.2018 204.543 82.8242C205.572 82.4336 206.483 81.9128 207.277 81.2617C208.072 80.6237 208.703 79.8815 209.172 79.0352C209.654 78.1758 209.901 77.2773 209.914 76.3398H206.496C206.483 76.9258 206.327 77.4727 206.027 77.9805C205.741 78.4753 205.357 78.9049 204.875 79.2695C204.393 79.6471 203.84 79.9401 203.215 80.1484C202.603 80.3568 201.971 80.4609 201.32 80.4609ZM216.906 53V56.1445H224.094V79.875H216.906V83H234.602V79.875H227.707V53H216.906ZM254.25 83H258.02V82.6875C257.785 82.1016 257.603 81.418 257.473 80.6367C257.342 79.8424 257.277 79.0938 257.277 78.3906V68.5664C257.277 67.3815 257.062 66.3464 256.633 65.4609C256.203 64.5755 255.617 63.8333 254.875 63.2344C254.12 62.6484 253.228 62.2122 252.199 61.9258C251.171 61.6263 250.057 61.4766 248.859 61.4766C247.544 61.4766 246.366 61.6589 245.324 62.0234C244.296 62.388 243.423 62.8633 242.707 63.4492C241.978 64.0482 241.418 64.7188 241.027 65.4609C240.65 66.2031 240.454 66.9583 240.441 67.7266H244.074C244.074 67.2839 244.178 66.8607 244.387 66.457C244.608 66.0404 244.914 65.6823 245.305 65.3828C245.695 65.0833 246.171 64.8424 246.73 64.6602C247.303 64.4779 247.948 64.3867 248.664 64.3867C249.432 64.3867 250.122 64.4844 250.734 64.6797C251.359 64.875 251.887 65.1484 252.316 65.5C252.746 65.8646 253.078 66.3008 253.312 66.8086C253.547 67.3164 253.664 67.8893 253.664 68.5273V70.1875H249.719C248.247 70.1875 246.913 70.3307 245.715 70.6172C244.53 70.9036 243.514 71.3333 242.668 71.9062C241.822 72.4922 241.164 73.2214 240.695 74.0938C240.24 74.9661 240.012 75.9818 240.012 77.1406C240.012 78.026 240.181 78.8529 240.52 79.6211C240.871 80.3763 241.366 81.0273 242.004 81.5742C242.629 82.1341 243.391 82.5768 244.289 82.9023C245.201 83.2279 246.216 83.3906 247.336 83.3906C248.026 83.3906 248.677 83.319 249.289 83.1758C249.901 83.0326 250.48 82.8372 251.027 82.5898C251.561 82.3424 252.049 82.056 252.492 81.7305C252.948 81.4049 253.358 81.0599 253.723 80.6953C253.762 81.138 253.82 81.5677 253.898 81.9844C253.99 82.388 254.107 82.7266 254.25 83ZM247.863 80.2461C247.16 80.2461 246.542 80.1549 246.008 79.9727C245.474 79.7904 245.031 79.5365 244.68 79.2109C244.328 78.8984 244.061 78.5208 243.879 78.0781C243.71 77.6354 243.625 77.1536 243.625 76.6328C243.625 76.0859 243.723 75.5977 243.918 75.168C244.126 74.7383 244.426 74.3672 244.816 74.0547C245.363 73.612 246.099 73.2865 247.023 73.0781C247.961 72.8568 249.055 72.7461 250.305 72.7461H253.664V77.0234C253.456 77.4401 253.169 77.8438 252.805 78.2344C252.44 78.612 252.01 78.9505 251.516 79.25C251.008 79.5495 250.448 79.7904 249.836 79.9727C249.224 80.1549 248.566 80.2461 247.863 80.2461ZM278.43 77.3945C278.43 77.7331 278.365 78.0521 278.234 78.3516C278.104 78.651 277.915 78.9245 277.668 79.1719C277.264 79.5755 276.704 79.8945 275.988 80.1289C275.272 80.3503 274.432 80.4609 273.469 80.4609C272.857 80.4609 272.238 80.3958 271.613 80.2656C270.988 80.1354 270.422 79.9141 269.914 79.6016C269.393 79.2891 268.957 78.8789 268.605 78.3711C268.267 77.8633 268.072 77.2383 268.02 76.4961H264.406C264.406 77.3945 264.608 78.2604 265.012 79.0938C265.428 79.9271 266.027 80.6562 266.809 81.2812C267.577 81.9193 268.521 82.4336 269.641 82.8242C270.76 83.2018 272.036 83.3906 273.469 83.3906C274.719 83.3906 275.871 83.2409 276.926 82.9414C277.98 82.6419 278.885 82.2188 279.641 81.6719C280.396 81.125 280.982 80.4674 281.398 79.6992C281.828 78.931 282.043 78.0781 282.043 77.1406C282.043 76.2682 281.854 75.5 281.477 74.8359C281.112 74.1719 280.578 73.5859 279.875 73.0781C279.172 72.5833 278.306 72.1602 277.277 71.8086C276.249 71.444 275.083 71.125 273.781 70.8516C272.792 70.6562 271.971 70.4544 271.32 70.2461C270.682 70.0378 270.174 69.8034 269.797 69.543C269.406 69.2826 269.133 68.9896 268.977 68.6641C268.82 68.3385 268.742 67.9674 268.742 67.5508C268.742 67.1471 268.84 66.7565 269.035 66.3789C269.23 66.0013 269.523 65.6693 269.914 65.3828C270.292 65.0964 270.767 64.8685 271.34 64.6992C271.926 64.5299 272.603 64.4453 273.371 64.4453C274.113 64.4453 274.777 64.5495 275.363 64.7578C275.962 64.9661 276.47 65.2396 276.887 65.5781C277.303 65.9167 277.629 66.3073 277.863 66.75C278.098 67.1797 278.215 67.6224 278.215 68.0781H281.828C281.828 67.1536 281.626 66.2943 281.223 65.5C280.832 64.6927 280.272 63.9896 279.543 63.3906C278.814 62.7917 277.928 62.3229 276.887 61.9844C275.845 61.6458 274.673 61.4766 273.371 61.4766C272.16 61.4766 271.047 61.6393 270.031 61.9648C269.029 62.2904 268.163 62.7331 267.434 63.293C266.704 63.8529 266.138 64.5104 265.734 65.2656C265.331 66.0078 265.129 66.8086 265.129 67.668C265.129 68.5404 265.324 69.3086 265.715 69.9727C266.105 70.6237 266.659 71.1901 267.375 71.6719C268.078 72.1667 268.924 72.5898 269.914 72.9414C270.917 73.293 272.023 73.5924 273.234 73.8398C274.224 74.0352 275.051 74.2565 275.715 74.5039C276.379 74.7383 276.913 74.9987 277.316 75.2852C277.72 75.5716 278.007 75.8906 278.176 76.2422C278.345 76.5807 278.43 76.9648 278.43 77.3945ZM302.453 77.3945C302.453 77.7331 302.388 78.0521 302.258 78.3516C302.128 78.651 301.939 78.9245 301.691 79.1719C301.288 79.5755 300.728 79.8945 300.012 80.1289C299.296 80.3503 298.456 80.4609 297.492 80.4609C296.88 80.4609 296.262 80.3958 295.637 80.2656C295.012 80.1354 294.445 79.9141 293.938 79.6016C293.417 79.2891 292.98 78.8789 292.629 78.3711C292.29 77.8633 292.095 77.2383 292.043 76.4961H288.43C288.43 77.3945 288.632 78.2604 289.035 79.0938C289.452 79.9271 290.051 80.6562 290.832 81.2812C291.6 81.9193 292.544 82.4336 293.664 82.8242C294.784 83.2018 296.06 83.3906 297.492 83.3906C298.742 83.3906 299.895 83.2409 300.949 82.9414C302.004 82.6419 302.909 82.2188 303.664 81.6719C304.419 81.125 305.005 80.4674 305.422 79.6992C305.852 78.931 306.066 78.0781 306.066 77.1406C306.066 76.2682 305.878 75.5 305.5 74.8359C305.135 74.1719 304.602 73.5859 303.898 73.0781C303.195 72.5833 302.329 72.1602 301.301 71.8086C300.272 71.444 299.107 71.125 297.805 70.8516C296.815 70.6562 295.995 70.4544 295.344 70.2461C294.706 70.0378 294.198 69.8034 293.82 69.543C293.43 69.2826 293.156 68.9896 293 68.6641C292.844 68.3385 292.766 67.9674 292.766 67.5508C292.766 67.1471 292.863 66.7565 293.059 66.3789C293.254 66.0013 293.547 65.6693 293.938 65.3828C294.315 65.0964 294.79 64.8685 295.363 64.6992C295.949 64.5299 296.626 64.4453 297.395 64.4453C298.137 64.4453 298.801 64.5495 299.387 64.7578C299.986 64.9661 300.493 65.2396 300.91 65.5781C301.327 65.9167 301.652 66.3073 301.887 66.75C302.121 67.1797 302.238 67.6224 302.238 68.0781H305.852C305.852 67.1536 305.65 66.2943 305.246 65.5C304.855 64.6927 304.296 63.9896 303.566 63.3906C302.837 62.7917 301.952 62.3229 300.91 61.9844C299.868 61.6458 298.697 61.4766 297.395 61.4766C296.184 61.4766 295.07 61.6393 294.055 61.9648C293.052 62.2904 292.186 62.7331 291.457 63.293C290.728 63.8529 290.161 64.5104 289.758 65.2656C289.354 66.0078 289.152 66.8086 289.152 67.668C289.152 68.5404 289.348 69.3086 289.738 69.9727C290.129 70.6237 290.682 71.1901 291.398 71.6719C292.102 72.1667 292.948 72.5898 293.938 72.9414C294.94 73.293 296.047 73.5924 297.258 73.8398C298.247 74.0352 299.074 74.2565 299.738 74.5039C300.402 74.7383 300.936 74.9987 301.34 75.2852C301.743 75.5716 302.03 75.8906 302.199 76.2422C302.368 76.5807 302.453 76.9648 302.453 77.3945ZM335.773 72.2578V72.668C335.773 74.1784 335.975 75.5911 336.379 76.9062C336.783 78.2083 337.349 79.3411 338.078 80.3047C338.807 81.2682 339.686 82.0234 340.715 82.5703C341.757 83.1172 342.915 83.3906 344.191 83.3906C345.493 83.3906 346.633 83.1693 347.609 82.7266C348.586 82.2839 349.426 81.6328 350.129 80.7734L350.285 83H353.605V53H349.992V63.957C349.302 63.1497 348.482 62.5378 347.531 62.1211C346.594 61.6914 345.493 61.4766 344.23 61.4766C342.941 61.4766 341.776 61.7435 340.734 62.2773C339.693 62.8112 338.807 63.5534 338.078 64.5039C337.336 65.4544 336.763 66.5938 336.359 67.9219C335.969 69.237 335.773 70.6823 335.773 72.2578ZM339.387 72.668V72.2578C339.387 71.2292 339.497 70.2526 339.719 69.3281C339.94 68.3906 340.285 67.5638 340.754 66.8477C341.21 66.1445 341.796 65.5846 342.512 65.168C343.241 64.7513 344.113 64.543 345.129 64.543C346.314 64.543 347.303 64.8229 348.098 65.3828C348.892 65.9297 349.523 66.6328 349.992 67.4922V77.2969C349.523 78.2214 348.892 78.957 348.098 79.5039C347.303 80.0508 346.301 80.3242 345.09 80.3242C344.087 80.3242 343.228 80.1224 342.512 79.7188C341.796 79.3021 341.21 78.7422 340.754 78.0391C340.285 77.3359 339.94 76.5221 339.719 75.5977C339.497 74.6732 339.387 73.6966 339.387 72.668ZM369.816 83.3906C371.874 83.3906 373.599 82.9805 374.992 82.1602C376.398 81.3268 377.453 80.3763 378.156 79.3086L375.949 77.5898C375.285 78.4492 374.452 79.1393 373.449 79.6602C372.447 80.181 371.301 80.4414 370.012 80.4414C369.035 80.4414 368.143 80.2591 367.336 79.8945C366.529 79.5299 365.839 79.0286 365.266 78.3906C364.706 77.7917 364.263 77.1016 363.938 76.3203C363.625 75.5391 363.423 74.6341 363.332 73.6055V73.4688H378.43V71.8477C378.43 70.3763 378.241 69.0091 377.863 67.7461C377.499 66.4831 376.939 65.3828 376.184 64.4453C375.428 63.5208 374.478 62.7982 373.332 62.2773C372.199 61.7435 370.871 61.4766 369.348 61.4766C368.137 61.4766 366.952 61.724 365.793 62.2188C364.647 62.7135 363.625 63.4232 362.727 64.3477C361.815 65.2852 361.086 66.431 360.539 67.7852C359.992 69.1263 359.719 70.6497 359.719 72.3555V73.1758C359.719 74.6471 359.966 76.0078 360.461 77.2578C360.956 78.5078 361.646 79.5885 362.531 80.5C363.417 81.4115 364.478 82.1211 365.715 82.6289C366.965 83.1367 368.332 83.3906 369.816 83.3906ZM369.348 64.4453C370.272 64.4453 371.066 64.6146 371.73 64.9531C372.408 65.2917 372.967 65.7344 373.41 66.2812C373.853 66.8281 374.198 67.4792 374.445 68.2344C374.693 68.9766 374.816 69.6732 374.816 70.3242V70.5H363.449C363.592 69.5234 363.84 68.6641 364.191 67.9219C364.556 67.1667 364.999 66.5286 365.52 66.0078C366.04 65.5 366.626 65.1159 367.277 64.8555C367.928 64.582 368.618 64.4453 369.348 64.4453ZM398.547 77.3945C398.547 77.7331 398.482 78.0521 398.352 78.3516C398.221 78.651 398.033 78.9245 397.785 79.1719C397.382 79.5755 396.822 79.8945 396.105 80.1289C395.389 80.3503 394.549 80.4609 393.586 80.4609C392.974 80.4609 392.355 80.3958 391.73 80.2656C391.105 80.1354 390.539 79.9141 390.031 79.6016C389.51 79.2891 389.074 78.8789 388.723 78.3711C388.384 77.8633 388.189 77.2383 388.137 76.4961H384.523C384.523 77.3945 384.725 78.2604 385.129 79.0938C385.546 79.9271 386.145 80.6562 386.926 81.2812C387.694 81.9193 388.638 82.4336 389.758 82.8242C390.878 83.2018 392.154 83.3906 393.586 83.3906C394.836 83.3906 395.988 83.2409 397.043 82.9414C398.098 82.6419 399.003 82.2188 399.758 81.6719C400.513 81.125 401.099 80.4674 401.516 79.6992C401.945 78.931 402.16 78.0781 402.16 77.1406C402.16 76.2682 401.971 75.5 401.594 74.8359C401.229 74.1719 400.695 73.5859 399.992 73.0781C399.289 72.5833 398.423 72.1602 397.395 71.8086C396.366 71.444 395.201 71.125 393.898 70.8516C392.909 70.6562 392.089 70.4544 391.438 70.2461C390.799 70.0378 390.292 69.8034 389.914 69.543C389.523 69.2826 389.25 68.9896 389.094 68.6641C388.938 68.3385 388.859 67.9674 388.859 67.5508C388.859 67.1471 388.957 66.7565 389.152 66.3789C389.348 66.0013 389.641 65.6693 390.031 65.3828C390.409 65.0964 390.884 64.8685 391.457 64.6992C392.043 64.5299 392.72 64.4453 393.488 64.4453C394.23 64.4453 394.895 64.5495 395.48 64.7578C396.079 64.9661 396.587 65.2396 397.004 65.5781C397.421 65.9167 397.746 66.3073 397.98 66.75C398.215 67.1797 398.332 67.6224 398.332 68.0781H401.945C401.945 67.1536 401.743 66.2943 401.34 65.5C400.949 64.6927 400.389 63.9896 399.66 63.3906C398.931 62.7917 398.046 62.3229 397.004 61.9844C395.962 61.6458 394.79 61.4766 393.488 61.4766C392.277 61.4766 391.164 61.6393 390.148 61.9648C389.146 62.2904 388.28 62.7331 387.551 63.293C386.822 63.8529 386.255 64.5104 385.852 65.2656C385.448 66.0078 385.246 66.8086 385.246 67.668C385.246 68.5404 385.441 69.3086 385.832 69.9727C386.223 70.6237 386.776 71.1901 387.492 71.6719C388.195 72.1667 389.042 72.5898 390.031 72.9414C391.034 73.293 392.141 73.5924 393.352 73.8398C394.341 74.0352 395.168 74.2565 395.832 74.5039C396.496 74.7383 397.03 74.9987 397.434 75.2852C397.837 75.5716 398.124 75.8906 398.293 76.2422C398.462 76.5807 398.547 76.9648 398.547 77.3945ZM409.094 61.8672V65.0117H416.281V79.875H409.094V83H426.789V79.875H419.895V61.8672H409.094ZM415.812 56.3203C415.812 56.9062 415.988 57.3945 416.34 57.7852C416.704 58.1758 417.251 58.3711 417.98 58.3711C418.697 58.3711 419.237 58.1758 419.602 57.7852C419.966 57.3945 420.148 56.9062 420.148 56.3203C420.148 55.9948 420.096 55.6953 419.992 55.4219C419.888 55.1484 419.732 54.9206 419.523 54.7383C419.354 54.569 419.139 54.4388 418.879 54.3477C418.618 54.2435 418.319 54.1914 417.98 54.1914C417.642 54.1914 417.336 54.2435 417.062 54.3477C416.802 54.4388 416.587 54.569 416.418 54.7383C416.21 54.9336 416.053 55.168 415.949 55.4414C415.858 55.7148 415.812 56.0078 415.812 56.3203ZM431.887 72.2578V72.668C431.887 74.1784 432.082 75.5911 432.473 76.9062C432.863 78.2083 433.423 79.3411 434.152 80.3047C434.868 81.2682 435.747 82.0234 436.789 82.5703C437.831 83.1172 438.996 83.3906 440.285 83.3906C441.053 83.3906 441.77 83.306 442.434 83.1367C443.098 82.9805 443.703 82.7526 444.25 82.4531C444.602 82.2578 444.927 82.0299 445.227 81.7695C445.539 81.5091 445.832 81.2227 446.105 80.9102V82.7266C446.105 83.638 445.975 84.4453 445.715 85.1484C445.454 85.8516 445.083 86.4375 444.602 86.9062C444.107 87.388 443.514 87.7526 442.824 88C442.134 88.2474 441.359 88.3711 440.5 88.3711C440.018 88.3711 439.536 88.319 439.055 88.2148C438.573 88.1237 438.091 87.9674 437.609 87.7461C437.128 87.5247 436.652 87.2253 436.184 86.8477C435.715 86.4831 435.259 86.0339 434.816 85.5L432.941 87.668C433.423 88.3581 433.996 88.9375 434.66 89.4062C435.337 89.875 436.04 90.2461 436.77 90.5195C437.486 90.806 438.195 91.0078 438.898 91.125C439.602 91.2552 440.227 91.3203 440.773 91.3203C442.102 91.3203 443.312 91.125 444.406 90.7344C445.5 90.3438 446.444 89.7708 447.238 89.0156C448.02 88.2604 448.625 87.3424 449.055 86.2617C449.497 85.181 449.719 83.944 449.719 82.5508V61.8672H446.438L446.262 64.1719C446.014 63.8594 445.747 63.5729 445.461 63.3125C445.188 63.0521 444.895 62.8242 444.582 62.6289C444.009 62.2513 443.365 61.9648 442.648 61.7695C441.945 61.5742 441.171 61.4766 440.324 61.4766C439.009 61.4766 437.831 61.7435 436.789 62.2773C435.747 62.8112 434.862 63.5534 434.133 64.5039C433.404 65.4544 432.844 66.5938 432.453 67.9219C432.076 69.237 431.887 70.6823 431.887 72.2578ZM435.5 72.668V72.2578C435.5 71.2292 435.604 70.2526 435.812 69.3281C436.034 68.3906 436.379 67.5638 436.848 66.8477C437.303 66.1445 437.889 65.5846 438.605 65.168C439.335 64.7513 440.207 64.543 441.223 64.543C441.822 64.543 442.368 64.6211 442.863 64.7773C443.358 64.9206 443.807 65.1224 444.211 65.3828C444.615 65.6562 444.973 65.9753 445.285 66.3398C445.598 66.7044 445.871 67.1081 446.105 67.5508V77.2383C445.871 77.694 445.598 78.1107 445.285 78.4883C444.973 78.8659 444.621 79.1914 444.23 79.4648C443.827 79.7383 443.371 79.9531 442.863 80.1094C442.368 80.2526 441.809 80.3242 441.184 80.3242C440.181 80.3242 439.322 80.1224 438.605 79.7188C437.889 79.3021 437.303 78.7422 436.848 78.0391C436.379 77.3359 436.034 76.5221 435.812 75.5977C435.604 74.6732 435.5 73.6966 435.5 72.668ZM456.574 83H460.188V67.8438C460.435 67.388 460.721 66.9714 461.047 66.5938C461.385 66.2161 461.75 65.8841 462.141 65.5977C462.622 65.2721 463.15 65.0182 463.723 64.8359C464.296 64.6406 464.914 64.543 465.578 64.543C466.346 64.543 467.023 64.6341 467.609 64.8164C468.208 64.9987 468.716 65.2917 469.133 65.6953C469.536 66.099 469.842 66.6263 470.051 67.2773C470.259 67.9284 470.363 68.7227 470.363 69.6602V83H473.977V69.582C473.977 68.1758 473.801 66.9648 473.449 65.9492C473.111 64.9206 472.622 64.0742 471.984 63.4102C471.346 62.7461 470.572 62.2578 469.66 61.9453C468.762 61.6328 467.759 61.4766 466.652 61.4766C465.832 61.4896 465.051 61.6133 464.309 61.8477C463.579 62.069 462.902 62.388 462.277 62.8047C461.861 63.0781 461.464 63.4036 461.086 63.7812C460.721 64.1458 460.383 64.5495 460.07 64.9922L459.816 61.8672H456.574V83ZM489.934 83.3906C491.991 83.3906 493.716 82.9805 495.109 82.1602C496.516 81.3268 497.57 80.3763 498.273 79.3086L496.066 77.5898C495.402 78.4492 494.569 79.1393 493.566 79.6602C492.564 80.181 491.418 80.4414 490.129 80.4414C489.152 80.4414 488.26 80.2591 487.453 79.8945C486.646 79.5299 485.956 79.0286 485.383 78.3906C484.823 77.7917 484.38 77.1016 484.055 76.3203C483.742 75.5391 483.54 74.6341 483.449 73.6055V73.4688H498.547V71.8477C498.547 70.3763 498.358 69.0091 497.98 67.7461C497.616 66.4831 497.056 65.3828 496.301 64.4453C495.546 63.5208 494.595 62.7982 493.449 62.2773C492.316 61.7435 490.988 61.4766 489.465 61.4766C488.254 61.4766 487.069 61.724 485.91 62.2188C484.764 62.7135 483.742 63.4232 482.844 64.3477C481.932 65.2852 481.203 66.431 480.656 67.7852C480.109 69.1263 479.836 70.6497 479.836 72.3555V73.1758C479.836 74.6471 480.083 76.0078 480.578 77.2578C481.073 78.5078 481.763 79.5885 482.648 80.5C483.534 81.4115 484.595 82.1211 485.832 82.6289C487.082 83.1367 488.449 83.3906 489.934 83.3906ZM489.465 64.4453C490.389 64.4453 491.184 64.6146 491.848 64.9531C492.525 65.2917 493.085 65.7344 493.527 66.2812C493.97 66.8281 494.315 67.4792 494.562 68.2344C494.81 68.9766 494.934 69.6732 494.934 70.3242V70.5H483.566C483.71 69.5234 483.957 68.6641 484.309 67.9219C484.673 67.1667 485.116 66.5286 485.637 66.0078C486.158 65.5 486.743 65.1159 487.395 64.8555C488.046 64.582 488.736 64.4453 489.465 64.4453ZM518.469 61.4766C516.932 61.4766 515.559 61.8151 514.348 62.4922C513.15 63.1562 512.121 64.0677 511.262 65.2266L511.242 64.6992L511.086 61.8672H507.648V83H511.281V69.4453C511.516 68.7943 511.809 68.2083 512.16 67.6875C512.525 67.1536 512.948 66.7044 513.43 66.3398C513.964 65.9232 514.589 65.6107 515.305 65.4023C516.021 65.181 516.822 65.0703 517.707 65.0703C518.397 65.0703 519.055 65.1094 519.68 65.1875C520.318 65.2526 520.988 65.3633 521.691 65.5195L522.18 61.9844C521.815 61.8281 521.268 61.7044 520.539 61.6133C519.823 61.5221 519.133 61.4766 518.469 61.4766ZM542.688 77.3945C542.688 77.7331 542.622 78.0521 542.492 78.3516C542.362 78.651 542.173 78.9245 541.926 79.1719C541.522 79.5755 540.962 79.8945 540.246 80.1289C539.53 80.3503 538.69 80.4609 537.727 80.4609C537.115 80.4609 536.496 80.3958 535.871 80.2656C535.246 80.1354 534.68 79.9141 534.172 79.6016C533.651 79.2891 533.215 78.8789 532.863 78.3711C532.525 77.8633 532.329 77.2383 532.277 76.4961H528.664C528.664 77.3945 528.866 78.2604 529.27 79.0938C529.686 79.9271 530.285 80.6562 531.066 81.2812C531.835 81.9193 532.779 82.4336 533.898 82.8242C535.018 83.2018 536.294 83.3906 537.727 83.3906C538.977 83.3906 540.129 83.2409 541.184 82.9414C542.238 82.6419 543.143 82.2188 543.898 81.6719C544.654 81.125 545.24 80.4674 545.656 79.6992C546.086 78.931 546.301 78.0781 546.301 77.1406C546.301 76.2682 546.112 75.5 545.734 74.8359C545.37 74.1719 544.836 73.5859 544.133 73.0781C543.43 72.5833 542.564 72.1602 541.535 71.8086C540.507 71.444 539.341 71.125 538.039 70.8516C537.049 70.6562 536.229 70.4544 535.578 70.2461C534.94 70.0378 534.432 69.8034 534.055 69.543C533.664 69.2826 533.391 68.9896 533.234 68.6641C533.078 68.3385 533 67.9674 533 67.5508C533 67.1471 533.098 66.7565 533.293 66.3789C533.488 66.0013 533.781 65.6693 534.172 65.3828C534.549 65.0964 535.025 64.8685 535.598 64.6992C536.184 64.5299 536.861 64.4453 537.629 64.4453C538.371 64.4453 539.035 64.5495 539.621 64.7578C540.22 64.9661 540.728 65.2396 541.145 65.5781C541.561 65.9167 541.887 66.3073 542.121 66.75C542.355 67.1797 542.473 67.6224 542.473 68.0781H546.086C546.086 67.1536 545.884 66.2943 545.48 65.5C545.09 64.6927 544.53 63.9896 543.801 63.3906C543.072 62.7917 542.186 62.3229 541.145 61.9844C540.103 61.6458 538.931 61.4766 537.629 61.4766C536.418 61.4766 535.305 61.6393 534.289 61.9648C533.286 62.2904 532.421 62.7331 531.691 63.293C530.962 63.8529 530.396 64.5104 529.992 65.2656C529.589 66.0078 529.387 66.8086 529.387 67.668C529.387 68.5404 529.582 69.3086 529.973 69.9727C530.363 70.6237 530.917 71.1901 531.633 71.6719C532.336 72.1667 533.182 72.5898 534.172 72.9414C535.174 73.293 536.281 73.5924 537.492 73.8398C538.482 74.0352 539.309 74.2565 539.973 74.5039C540.637 74.7383 541.171 74.9987 541.574 75.2852C541.978 75.5716 542.264 75.8906 542.434 76.2422C542.603 76.5807 542.688 76.9648 542.688 77.3945ZM30.0508 125.668V125.258C30.0508 124.151 29.9596 123.103 29.7773 122.113C29.5951 121.111 29.3281 120.199 28.9766 119.379C28.638 118.65 28.2474 117.992 27.8047 117.406C27.362 116.807 26.8607 116.299 26.3008 115.883C25.6758 115.44 24.9792 115.095 24.2109 114.848C23.4427 114.6 22.6029 114.477 21.6914 114.477C20.9622 114.477 20.2852 114.548 19.6602 114.691C19.0352 114.835 18.4622 115.043 17.9414 115.316C17.5247 115.538 17.1341 115.805 16.7695 116.117C16.4049 116.417 16.0729 116.755 15.7734 117.133V106H12.1602V136H15.4805L15.6562 133.598C15.8906 133.897 16.138 134.171 16.3984 134.418C16.6589 134.665 16.9323 134.893 17.2188 135.102C17.8177 135.518 18.4883 135.837 19.2305 136.059C19.9857 136.28 20.819 136.391 21.7305 136.391C22.5247 136.391 23.2604 136.293 23.9375 136.098C24.6276 135.902 25.2591 135.629 25.832 135.277C26.6263 134.77 27.3034 134.132 27.8633 133.363C28.4362 132.582 28.8984 131.703 29.25 130.727C29.5104 129.984 29.7057 129.19 29.8359 128.344C29.9792 127.484 30.0508 126.592 30.0508 125.668ZM26.4375 125.258V125.668C26.4375 126.293 26.3984 126.905 26.3203 127.504C26.2422 128.103 26.1185 128.663 25.9492 129.184C25.7409 129.874 25.4609 130.499 25.1094 131.059C24.7578 131.618 24.3216 132.081 23.8008 132.445C23.4102 132.732 22.9674 132.953 22.4727 133.109C21.9779 133.253 21.431 133.324 20.832 133.324C20.207 133.324 19.6341 133.246 19.1133 133.09C18.5924 132.921 18.1237 132.686 17.707 132.387C17.2904 132.087 16.9193 131.742 16.5938 131.352C16.2812 130.948 16.0078 130.512 15.7734 130.043V120.805C15.9948 120.336 16.2617 119.906 16.5742 119.516C16.8997 119.112 17.2708 118.76 17.6875 118.461C18.0911 118.174 18.5534 117.953 19.0742 117.797C19.5951 117.628 20.168 117.543 20.793 117.543C21.3659 117.543 21.8867 117.608 22.3555 117.738C22.8242 117.868 23.2474 118.051 23.625 118.285C24.1719 118.611 24.6341 119.06 25.0117 119.633C25.3893 120.206 25.6953 120.837 25.9297 121.527C26.099 122.087 26.2227 122.686 26.3008 123.324C26.3919 123.949 26.4375 124.594 26.4375 125.258ZM50.0898 136H53.3711V114.867H49.7383V130.023C49.543 130.479 49.2956 130.902 48.9961 131.293C48.7096 131.671 48.3711 131.996 47.9805 132.27C47.5117 132.608 46.9583 132.875 46.3203 133.07C45.6823 133.253 44.9596 133.344 44.1523 133.344C43.4622 133.344 42.8503 133.253 42.3164 133.07C41.7956 132.888 41.3529 132.569 40.9883 132.113C40.6237 131.671 40.3503 131.072 40.168 130.316C39.9857 129.561 39.8945 128.611 39.8945 127.465V114.867H36.2812V127.426C36.2812 129.001 36.4505 130.355 36.7891 131.488C37.1406 132.608 37.6354 133.533 38.2734 134.262C38.9115 134.991 39.6797 135.531 40.5781 135.883C41.4766 136.221 42.4792 136.391 43.5859 136.391C44.9661 136.391 46.1836 136.104 47.2383 135.531C48.293 134.945 49.1719 134.132 49.875 133.09L50.0898 136ZM60.7539 114.867V118.012H67.9414V132.875H60.7539V136H78.4492V132.875H71.5547V114.867H60.7539ZM67.4727 109.32C67.4727 109.906 67.6484 110.395 68 110.785C68.3646 111.176 68.9115 111.371 69.6406 111.371C70.3568 111.371 70.8971 111.176 71.2617 110.785C71.6263 110.395 71.8086 109.906 71.8086 109.32C71.8086 108.995 71.7565 108.695 71.6523 108.422C71.5482 108.148 71.3919 107.921 71.1836 107.738C71.0143 107.569 70.7995 107.439 70.5391 107.348C70.2786 107.243 69.9792 107.191 69.6406 107.191C69.3021 107.191 68.9961 107.243 68.7227 107.348C68.4622 107.439 68.2474 107.569 68.0781 107.738C67.8698 107.934 67.7135 108.168 67.6094 108.441C67.5182 108.715 67.4727 109.008 67.4727 109.32ZM84.7773 106V109.145H91.9648V132.875H84.7773V136H102.473V132.875H95.5781V106H84.7773ZM107.551 125.258V125.668C107.551 127.178 107.753 128.591 108.156 129.906C108.56 131.208 109.126 132.341 109.855 133.305C110.585 134.268 111.464 135.023 112.492 135.57C113.534 136.117 114.693 136.391 115.969 136.391C117.271 136.391 118.41 136.169 119.387 135.727C120.363 135.284 121.203 134.633 121.906 133.773L122.062 136H125.383V106H121.77V116.957C121.079 116.15 120.259 115.538 119.309 115.121C118.371 114.691 117.271 114.477 116.008 114.477C114.719 114.477 113.553 114.743 112.512 115.277C111.47 115.811 110.585 116.553 109.855 117.504C109.113 118.454 108.54 119.594 108.137 120.922C107.746 122.237 107.551 123.682 107.551 125.258ZM111.164 125.668V125.258C111.164 124.229 111.275 123.253 111.496 122.328C111.717 121.391 112.062 120.564 112.531 119.848C112.987 119.145 113.573 118.585 114.289 118.168C115.018 117.751 115.891 117.543 116.906 117.543C118.091 117.543 119.081 117.823 119.875 118.383C120.669 118.93 121.301 119.633 121.77 120.492V130.297C121.301 131.221 120.669 131.957 119.875 132.504C119.081 133.051 118.078 133.324 116.867 133.324C115.865 133.324 115.005 133.122 114.289 132.719C113.573 132.302 112.987 131.742 112.531 131.039C112.062 130.336 111.717 129.522 111.496 128.598C111.275 127.673 111.164 126.697 111.164 125.668ZM132.824 114.867V118.012H140.012V132.875H132.824V136H150.52V132.875H143.625V114.867H132.824ZM139.543 109.32C139.543 109.906 139.719 110.395 140.07 110.785C140.435 111.176 140.982 111.371 141.711 111.371C142.427 111.371 142.967 111.176 143.332 110.785C143.697 110.395 143.879 109.906 143.879 109.32C143.879 108.995 143.827 108.695 143.723 108.422C143.618 108.148 143.462 107.921 143.254 107.738C143.085 107.569 142.87 107.439 142.609 107.348C142.349 107.243 142.049 107.191 141.711 107.191C141.372 107.191 141.066 107.243 140.793 107.348C140.533 107.439 140.318 107.569 140.148 107.738C139.94 107.934 139.784 108.168 139.68 108.441C139.589 108.715 139.543 109.008 139.543 109.32ZM156.281 136H159.895V120.844C160.142 120.388 160.428 119.971 160.754 119.594C161.092 119.216 161.457 118.884 161.848 118.598C162.329 118.272 162.857 118.018 163.43 117.836C164.003 117.641 164.621 117.543 165.285 117.543C166.053 117.543 166.73 117.634 167.316 117.816C167.915 117.999 168.423 118.292 168.84 118.695C169.243 119.099 169.549 119.626 169.758 120.277C169.966 120.928 170.07 121.723 170.07 122.66V136H173.684V122.582C173.684 121.176 173.508 119.965 173.156 118.949C172.818 117.921 172.329 117.074 171.691 116.41C171.053 115.746 170.279 115.258 169.367 114.945C168.469 114.633 167.466 114.477 166.359 114.477C165.539 114.49 164.758 114.613 164.016 114.848C163.286 115.069 162.609 115.388 161.984 115.805C161.568 116.078 161.171 116.404 160.793 116.781C160.428 117.146 160.09 117.549 159.777 117.992L159.523 114.867H156.281V136ZM179.641 125.258V125.668C179.641 127.178 179.836 128.591 180.227 129.906C180.617 131.208 181.177 132.341 181.906 133.305C182.622 134.268 183.501 135.023 184.543 135.57C185.585 136.117 186.75 136.391 188.039 136.391C188.807 136.391 189.523 136.306 190.188 136.137C190.852 135.98 191.457 135.753 192.004 135.453C192.355 135.258 192.681 135.03 192.98 134.77C193.293 134.509 193.586 134.223 193.859 133.91V135.727C193.859 136.638 193.729 137.445 193.469 138.148C193.208 138.852 192.837 139.438 192.355 139.906C191.861 140.388 191.268 140.753 190.578 141C189.888 141.247 189.113 141.371 188.254 141.371C187.772 141.371 187.29 141.319 186.809 141.215C186.327 141.124 185.845 140.967 185.363 140.746C184.882 140.525 184.406 140.225 183.938 139.848C183.469 139.483 183.013 139.034 182.57 138.5L180.695 140.668C181.177 141.358 181.75 141.938 182.414 142.406C183.091 142.875 183.794 143.246 184.523 143.52C185.24 143.806 185.949 144.008 186.652 144.125C187.355 144.255 187.98 144.32 188.527 144.32C189.855 144.32 191.066 144.125 192.16 143.734C193.254 143.344 194.198 142.771 194.992 142.016C195.773 141.26 196.379 140.342 196.809 139.262C197.251 138.181 197.473 136.944 197.473 135.551V114.867H194.191L194.016 117.172C193.768 116.859 193.501 116.573 193.215 116.312C192.941 116.052 192.648 115.824 192.336 115.629C191.763 115.251 191.118 114.965 190.402 114.77C189.699 114.574 188.924 114.477 188.078 114.477C186.763 114.477 185.585 114.743 184.543 115.277C183.501 115.811 182.616 116.553 181.887 117.504C181.158 118.454 180.598 119.594 180.207 120.922C179.829 122.237 179.641 123.682 179.641 125.258ZM183.254 125.668V125.258C183.254 124.229 183.358 123.253 183.566 122.328C183.788 121.391 184.133 120.564 184.602 119.848C185.057 119.145 185.643 118.585 186.359 118.168C187.089 117.751 187.961 117.543 188.977 117.543C189.576 117.543 190.122 117.621 190.617 117.777C191.112 117.921 191.561 118.122 191.965 118.383C192.368 118.656 192.727 118.975 193.039 119.34C193.352 119.704 193.625 120.108 193.859 120.551V130.238C193.625 130.694 193.352 131.111 193.039 131.488C192.727 131.866 192.375 132.191 191.984 132.465C191.581 132.738 191.125 132.953 190.617 133.109C190.122 133.253 189.562 133.324 188.938 133.324C187.935 133.324 187.076 133.122 186.359 132.719C185.643 132.302 185.057 131.742 184.602 131.039C184.133 130.336 183.788 129.522 183.566 128.598C183.358 127.673 183.254 126.697 183.254 125.668ZM242.238 136H246.008V135.688C245.773 135.102 245.591 134.418 245.461 133.637C245.331 132.842 245.266 132.094 245.266 131.391V121.566C245.266 120.382 245.051 119.346 244.621 118.461C244.191 117.576 243.605 116.833 242.863 116.234C242.108 115.648 241.216 115.212 240.188 114.926C239.159 114.626 238.046 114.477 236.848 114.477C235.533 114.477 234.354 114.659 233.312 115.023C232.284 115.388 231.411 115.863 230.695 116.449C229.966 117.048 229.406 117.719 229.016 118.461C228.638 119.203 228.443 119.958 228.43 120.727H232.062C232.062 120.284 232.167 119.861 232.375 119.457C232.596 119.04 232.902 118.682 233.293 118.383C233.684 118.083 234.159 117.842 234.719 117.66C235.292 117.478 235.936 117.387 236.652 117.387C237.421 117.387 238.111 117.484 238.723 117.68C239.348 117.875 239.875 118.148 240.305 118.5C240.734 118.865 241.066 119.301 241.301 119.809C241.535 120.316 241.652 120.889 241.652 121.527V123.188H237.707C236.236 123.188 234.901 123.331 233.703 123.617C232.518 123.904 231.503 124.333 230.656 124.906C229.81 125.492 229.152 126.221 228.684 127.094C228.228 127.966 228 128.982 228 130.141C228 131.026 228.169 131.853 228.508 132.621C228.859 133.376 229.354 134.027 229.992 134.574C230.617 135.134 231.379 135.577 232.277 135.902C233.189 136.228 234.204 136.391 235.324 136.391C236.014 136.391 236.665 136.319 237.277 136.176C237.889 136.033 238.469 135.837 239.016 135.59C239.549 135.342 240.038 135.056 240.48 134.73C240.936 134.405 241.346 134.06 241.711 133.695C241.75 134.138 241.809 134.568 241.887 134.984C241.978 135.388 242.095 135.727 242.238 136ZM235.852 133.246C235.148 133.246 234.53 133.155 233.996 132.973C233.462 132.79 233.02 132.536 232.668 132.211C232.316 131.898 232.049 131.521 231.867 131.078C231.698 130.635 231.613 130.154 231.613 129.633C231.613 129.086 231.711 128.598 231.906 128.168C232.115 127.738 232.414 127.367 232.805 127.055C233.352 126.612 234.087 126.286 235.012 126.078C235.949 125.857 237.043 125.746 238.293 125.746H241.652V130.023C241.444 130.44 241.158 130.844 240.793 131.234C240.428 131.612 239.999 131.951 239.504 132.25C238.996 132.549 238.436 132.79 237.824 132.973C237.212 133.155 236.555 133.246 235.852 133.246ZM254.406 136H257.258L260.52 123.051L261.047 119.77L261.594 123.051L264.895 136H267.746L272.238 114.867H269.035L266.691 128.344L266.164 131.664L265.598 128.344L262.238 114.867H259.914L256.535 128.344L256.008 131.371L255.578 128.344L253.117 114.867H249.914L254.406 136ZM290.285 136H294.055V135.688C293.82 135.102 293.638 134.418 293.508 133.637C293.378 132.842 293.312 132.094 293.312 131.391V121.566C293.312 120.382 293.098 119.346 292.668 118.461C292.238 117.576 291.652 116.833 290.91 116.234C290.155 115.648 289.263 115.212 288.234 114.926C287.206 114.626 286.092 114.477 284.895 114.477C283.579 114.477 282.401 114.659 281.359 115.023C280.331 115.388 279.458 115.863 278.742 116.449C278.013 117.048 277.453 117.719 277.062 118.461C276.685 119.203 276.49 119.958 276.477 120.727H280.109C280.109 120.284 280.214 119.861 280.422 119.457C280.643 119.04 280.949 118.682 281.34 118.383C281.73 118.083 282.206 117.842 282.766 117.66C283.339 117.478 283.983 117.387 284.699 117.387C285.467 117.387 286.158 117.484 286.77 117.68C287.395 117.875 287.922 118.148 288.352 118.5C288.781 118.865 289.113 119.301 289.348 119.809C289.582 120.316 289.699 120.889 289.699 121.527V123.188H285.754C284.283 123.188 282.948 123.331 281.75 123.617C280.565 123.904 279.549 124.333 278.703 124.906C277.857 125.492 277.199 126.221 276.73 127.094C276.275 127.966 276.047 128.982 276.047 130.141C276.047 131.026 276.216 131.853 276.555 132.621C276.906 133.376 277.401 134.027 278.039 134.574C278.664 135.134 279.426 135.577 280.324 135.902C281.236 136.228 282.251 136.391 283.371 136.391C284.061 136.391 284.712 136.319 285.324 136.176C285.936 136.033 286.516 135.837 287.062 135.59C287.596 135.342 288.085 135.056 288.527 134.73C288.983 134.405 289.393 134.06 289.758 133.695C289.797 134.138 289.855 134.568 289.934 134.984C290.025 135.388 290.142 135.727 290.285 136ZM283.898 133.246C283.195 133.246 282.577 133.155 282.043 132.973C281.509 132.79 281.066 132.536 280.715 132.211C280.363 131.898 280.096 131.521 279.914 131.078C279.745 130.635 279.66 130.154 279.66 129.633C279.66 129.086 279.758 128.598 279.953 128.168C280.161 127.738 280.461 127.367 280.852 127.055C281.398 126.612 282.134 126.286 283.059 126.078C283.996 125.857 285.09 125.746 286.34 125.746H289.699V130.023C289.491 130.44 289.204 130.844 288.84 131.234C288.475 131.612 288.046 131.951 287.551 132.25C287.043 132.549 286.483 132.79 285.871 132.973C285.259 133.155 284.602 133.246 283.898 133.246ZM314.27 114.477C312.733 114.477 311.359 114.815 310.148 115.492C308.951 116.156 307.922 117.068 307.062 118.227L307.043 117.699L306.887 114.867H303.449V136H307.082V122.445C307.316 121.794 307.609 121.208 307.961 120.688C308.326 120.154 308.749 119.704 309.23 119.34C309.764 118.923 310.389 118.611 311.105 118.402C311.822 118.181 312.622 118.07 313.508 118.07C314.198 118.07 314.855 118.109 315.48 118.188C316.118 118.253 316.789 118.363 317.492 118.52L317.98 114.984C317.616 114.828 317.069 114.704 316.34 114.613C315.624 114.522 314.934 114.477 314.27 114.477ZM323.762 125.258V125.668C323.762 127.178 323.964 128.591 324.367 129.906C324.771 131.208 325.337 132.341 326.066 133.305C326.796 134.268 327.674 135.023 328.703 135.57C329.745 136.117 330.904 136.391 332.18 136.391C333.482 136.391 334.621 136.169 335.598 135.727C336.574 135.284 337.414 134.633 338.117 133.773L338.273 136H341.594V106H337.98V116.957C337.29 116.15 336.47 115.538 335.52 115.121C334.582 114.691 333.482 114.477 332.219 114.477C330.93 114.477 329.764 114.743 328.723 115.277C327.681 115.811 326.796 116.553 326.066 117.504C325.324 118.454 324.751 119.594 324.348 120.922C323.957 122.237 323.762 123.682 323.762 125.258ZM327.375 125.668V125.258C327.375 124.229 327.486 123.253 327.707 122.328C327.928 121.391 328.273 120.564 328.742 119.848C329.198 119.145 329.784 118.585 330.5 118.168C331.229 117.751 332.102 117.543 333.117 117.543C334.302 117.543 335.292 117.823 336.086 118.383C336.88 118.93 337.512 119.633 337.98 120.492V130.297C337.512 131.221 336.88 131.957 336.086 132.504C335.292 133.051 334.289 133.324 333.078 133.324C332.076 133.324 331.216 133.122 330.5 132.719C329.784 132.302 329.198 131.742 328.742 131.039C328.273 130.336 327.928 129.522 327.707 128.598C327.486 127.673 327.375 126.697 327.375 125.668ZM364.27 125.043V122.074H349.328V125.043H364.27ZM374.523 136H377.375L380.637 123.051L381.164 119.77L381.711 123.051L385.012 136H387.863L392.355 114.867H389.152L386.809 128.344L386.281 131.664L385.715 128.344L382.355 114.867H380.031L376.652 128.344L376.125 131.371L375.695 128.344L373.234 114.867H370.031L374.523 136ZM397.082 114.867V118.012H404.27V132.875H397.082V136H414.777V132.875H407.883V114.867H397.082ZM403.801 109.32C403.801 109.906 403.977 110.395 404.328 110.785C404.693 111.176 405.24 111.371 405.969 111.371C406.685 111.371 407.225 111.176 407.59 110.785C407.954 110.395 408.137 109.906 408.137 109.32C408.137 108.995 408.085 108.695 407.98 108.422C407.876 108.148 407.72 107.921 407.512 107.738C407.342 107.569 407.128 107.439 406.867 107.348C406.607 107.243 406.307 107.191 405.969 107.191C405.63 107.191 405.324 107.243 405.051 107.348C404.79 107.439 404.576 107.569 404.406 107.738C404.198 107.934 404.042 108.168 403.938 108.441C403.846 108.715 403.801 109.008 403.801 109.32ZM420.539 136H424.152V120.844C424.4 120.388 424.686 119.971 425.012 119.594C425.35 119.216 425.715 118.884 426.105 118.598C426.587 118.272 427.115 118.018 427.688 117.836C428.26 117.641 428.879 117.543 429.543 117.543C430.311 117.543 430.988 117.634 431.574 117.816C432.173 117.999 432.681 118.292 433.098 118.695C433.501 119.099 433.807 119.626 434.016 120.277C434.224 120.928 434.328 121.723 434.328 122.66V136H437.941V122.582C437.941 121.176 437.766 119.965 437.414 118.949C437.076 117.921 436.587 117.074 435.949 116.41C435.311 115.746 434.536 115.258 433.625 114.945C432.727 114.633 431.724 114.477 430.617 114.477C429.797 114.49 429.016 114.613 428.273 114.848C427.544 115.069 426.867 115.388 426.242 115.805C425.826 116.078 425.428 116.404 425.051 116.781C424.686 117.146 424.348 117.549 424.035 117.992L423.781 114.867H420.539V136ZM444.562 136H448.176V120.844C448.423 120.388 448.71 119.971 449.035 119.594C449.374 119.216 449.738 118.884 450.129 118.598C450.611 118.272 451.138 118.018 451.711 117.836C452.284 117.641 452.902 117.543 453.566 117.543C454.335 117.543 455.012 117.634 455.598 117.816C456.197 117.999 456.704 118.292 457.121 118.695C457.525 119.099 457.831 119.626 458.039 120.277C458.247 120.928 458.352 121.723 458.352 122.66V136H461.965V122.582C461.965 121.176 461.789 119.965 461.438 118.949C461.099 117.921 460.611 117.074 459.973 116.41C459.335 115.746 458.56 115.258 457.648 114.945C456.75 114.633 455.747 114.477 454.641 114.477C453.82 114.49 453.039 114.613 452.297 114.848C451.568 115.069 450.891 115.388 450.266 115.805C449.849 116.078 449.452 116.404 449.074 116.781C448.71 117.146 448.371 117.549 448.059 117.992L447.805 114.867H444.562V136ZM469.152 114.867V118.012H476.34V132.875H469.152V136H486.848V132.875H479.953V114.867H469.152ZM475.871 109.32C475.871 109.906 476.047 110.395 476.398 110.785C476.763 111.176 477.31 111.371 478.039 111.371C478.755 111.371 479.296 111.176 479.66 110.785C480.025 110.395 480.207 109.906 480.207 109.32C480.207 108.995 480.155 108.695 480.051 108.422C479.947 108.148 479.79 107.921 479.582 107.738C479.413 107.569 479.198 107.439 478.938 107.348C478.677 107.243 478.378 107.191 478.039 107.191C477.701 107.191 477.395 107.243 477.121 107.348C476.861 107.439 476.646 107.569 476.477 107.738C476.268 107.934 476.112 108.168 476.008 108.441C475.917 108.715 475.871 109.008 475.871 109.32ZM492.609 136H496.223V120.844C496.47 120.388 496.757 119.971 497.082 119.594C497.421 119.216 497.785 118.884 498.176 118.598C498.658 118.272 499.185 118.018 499.758 117.836C500.331 117.641 500.949 117.543 501.613 117.543C502.382 117.543 503.059 117.634 503.645 117.816C504.243 117.999 504.751 118.292 505.168 118.695C505.572 119.099 505.878 119.626 506.086 120.277C506.294 120.928 506.398 121.723 506.398 122.66V136H510.012V122.582C510.012 121.176 509.836 119.965 509.484 118.949C509.146 117.921 508.658 117.074 508.02 116.41C507.382 115.746 506.607 115.258 505.695 114.945C504.797 114.633 503.794 114.477 502.688 114.477C501.867 114.49 501.086 114.613 500.344 114.848C499.615 115.069 498.938 115.388 498.312 115.805C497.896 116.078 497.499 116.404 497.121 116.781C496.757 117.146 496.418 117.549 496.105 117.992L495.852 114.867H492.609V136ZM515.969 125.258V125.668C515.969 127.178 516.164 128.591 516.555 129.906C516.945 131.208 517.505 132.341 518.234 133.305C518.951 134.268 519.829 135.023 520.871 135.57C521.913 136.117 523.078 136.391 524.367 136.391C525.135 136.391 525.852 136.306 526.516 136.137C527.18 135.98 527.785 135.753 528.332 135.453C528.684 135.258 529.009 135.03 529.309 134.77C529.621 134.509 529.914 134.223 530.188 133.91V135.727C530.188 136.638 530.057 137.445 529.797 138.148C529.536 138.852 529.165 139.438 528.684 139.906C528.189 140.388 527.596 140.753 526.906 141C526.216 141.247 525.441 141.371 524.582 141.371C524.1 141.371 523.618 141.319 523.137 141.215C522.655 141.124 522.173 140.967 521.691 140.746C521.21 140.525 520.734 140.225 520.266 139.848C519.797 139.483 519.341 139.034 518.898 138.5L517.023 140.668C517.505 141.358 518.078 141.938 518.742 142.406C519.419 142.875 520.122 143.246 520.852 143.52C521.568 143.806 522.277 144.008 522.98 144.125C523.684 144.255 524.309 144.32 524.855 144.32C526.184 144.32 527.395 144.125 528.488 143.734C529.582 143.344 530.526 142.771 531.32 142.016C532.102 141.26 532.707 140.342 533.137 139.262C533.579 138.181 533.801 136.944 533.801 135.551V114.867H530.52L530.344 117.172C530.096 116.859 529.829 116.573 529.543 116.312C529.27 116.052 528.977 115.824 528.664 115.629C528.091 115.251 527.447 114.965 526.73 114.77C526.027 114.574 525.253 114.477 524.406 114.477C523.091 114.477 521.913 114.743 520.871 115.277C519.829 115.811 518.944 116.553 518.215 117.504C517.486 118.454 516.926 119.594 516.535 120.922C516.158 122.237 515.969 123.682 515.969 125.258ZM519.582 125.668V125.258C519.582 124.229 519.686 123.253 519.895 122.328C520.116 121.391 520.461 120.564 520.93 119.848C521.385 119.145 521.971 118.585 522.688 118.168C523.417 117.751 524.289 117.543 525.305 117.543C525.904 117.543 526.451 117.621 526.945 117.777C527.44 117.921 527.889 118.122 528.293 118.383C528.697 118.656 529.055 118.975 529.367 119.34C529.68 119.704 529.953 120.108 530.188 120.551V130.238C529.953 130.694 529.68 131.111 529.367 131.488C529.055 131.866 528.703 132.191 528.312 132.465C527.909 132.738 527.453 132.953 526.945 133.109C526.451 133.253 525.891 133.324 525.266 133.324C524.263 133.324 523.404 133.122 522.688 132.719C521.971 132.302 521.385 131.742 520.93 131.039C520.461 130.336 520.116 129.522 519.895 128.598C519.686 127.673 519.582 126.697 519.582 125.668ZM180.285 197.125H183.898V186.969C184.159 187.255 184.439 187.522 184.738 187.77C185.038 188.004 185.357 188.219 185.695 188.414C186.255 188.727 186.88 188.967 187.57 189.137C188.273 189.306 189.029 189.391 189.836 189.391C191.164 189.391 192.342 189.117 193.371 188.57C194.413 188.023 195.285 187.268 195.988 186.305C196.691 185.341 197.225 184.208 197.59 182.906C197.954 181.591 198.137 180.178 198.137 178.668V178.258C198.137 176.682 197.954 175.237 197.59 173.922C197.225 172.594 196.691 171.454 195.988 170.504C195.285 169.553 194.413 168.811 193.371 168.277C192.329 167.743 191.132 167.477 189.777 167.477C189.009 167.477 188.286 167.561 187.609 167.73C186.945 167.887 186.34 168.121 185.793 168.434C185.402 168.642 185.038 168.896 184.699 169.195C184.361 169.482 184.048 169.807 183.762 170.172L183.586 167.867H180.285V197.125ZM194.523 178.258V178.668C194.523 179.697 194.406 180.68 194.172 181.617C193.951 182.555 193.605 183.382 193.137 184.098C192.668 184.814 192.069 185.387 191.34 185.816C190.611 186.233 189.745 186.441 188.742 186.441C188.117 186.441 187.544 186.363 187.023 186.207C186.516 186.051 186.053 185.836 185.637 185.562C185.272 185.328 184.947 185.042 184.66 184.703C184.374 184.365 184.12 184 183.898 183.609V173.434C184.146 172.991 184.432 172.587 184.758 172.223C185.083 171.858 185.454 171.552 185.871 171.305C186.249 171.057 186.672 170.868 187.141 170.738C187.622 170.608 188.143 170.543 188.703 170.543C189.719 170.543 190.591 170.751 191.32 171.168C192.049 171.585 192.655 172.145 193.137 172.848C193.605 173.564 193.951 174.391 194.172 175.328C194.406 176.253 194.523 177.229 194.523 178.258ZM218.176 167.477C216.639 167.477 215.266 167.815 214.055 168.492C212.857 169.156 211.828 170.068 210.969 171.227L210.949 170.699L210.793 167.867H207.355V189H210.988V175.445C211.223 174.794 211.516 174.208 211.867 173.688C212.232 173.154 212.655 172.704 213.137 172.34C213.671 171.923 214.296 171.611 215.012 171.402C215.728 171.181 216.529 171.07 217.414 171.07C218.104 171.07 218.762 171.109 219.387 171.188C220.025 171.253 220.695 171.363 221.398 171.52L221.887 167.984C221.522 167.828 220.975 167.704 220.246 167.613C219.53 167.522 218.84 167.477 218.176 167.477ZM227.336 178.238V178.668C227.336 180.191 227.557 181.604 228 182.906C228.443 184.208 229.081 185.341 229.914 186.305C230.734 187.268 231.737 188.023 232.922 188.57C234.12 189.117 235.467 189.391 236.965 189.391C238.449 189.391 239.784 189.117 240.969 188.57C242.154 188.023 243.163 187.268 243.996 186.305C244.816 185.341 245.448 184.208 245.891 182.906C246.333 181.604 246.555 180.191 246.555 178.668V178.238C246.555 176.715 246.333 175.302 245.891 174C245.448 172.685 244.816 171.546 243.996 170.582C243.163 169.618 242.147 168.863 240.949 168.316C239.764 167.757 238.423 167.477 236.926 167.477C235.441 167.477 234.107 167.757 232.922 168.316C231.737 168.863 230.734 169.618 229.914 170.582C229.081 171.546 228.443 172.685 228 174C227.557 175.302 227.336 176.715 227.336 178.238ZM230.949 178.668V178.238C230.949 177.21 231.073 176.227 231.32 175.289C231.568 174.339 231.945 173.505 232.453 172.789C232.948 172.073 233.566 171.507 234.309 171.09C235.051 170.66 235.923 170.445 236.926 170.445C237.928 170.445 238.801 170.66 239.543 171.09C240.298 171.507 240.93 172.073 241.438 172.789C241.932 173.505 242.303 174.339 242.551 175.289C242.811 176.227 242.941 177.21 242.941 178.238V178.668C242.941 179.71 242.818 180.706 242.57 181.656C242.323 182.594 241.952 183.421 241.457 184.137C240.949 184.853 240.318 185.419 239.562 185.836C238.82 186.253 237.954 186.461 236.965 186.461C235.962 186.461 235.083 186.253 234.328 185.836C233.573 185.419 232.948 184.853 232.453 184.137C231.945 183.421 231.568 182.594 231.32 181.656C231.073 180.706 230.949 179.71 230.949 178.668ZM254.816 167.867V171.012H261.867V189.137C261.867 190.139 261.737 190.979 261.477 191.656C261.229 192.346 260.884 192.9 260.441 193.316C259.999 193.733 259.478 194.026 258.879 194.195C258.28 194.378 257.642 194.469 256.965 194.469C256.783 194.469 256.529 194.462 256.203 194.449C255.891 194.449 255.565 194.436 255.227 194.41C254.875 194.397 254.53 194.371 254.191 194.332C253.853 194.306 253.573 194.273 253.352 194.234L253.098 197.203C253.423 197.255 253.736 197.301 254.035 197.34C254.335 197.392 254.634 197.431 254.934 197.457C255.298 197.483 255.669 197.503 256.047 197.516C256.424 197.529 256.815 197.535 257.219 197.535C258.521 197.535 259.68 197.346 260.695 196.969C261.724 196.604 262.596 196.064 263.312 195.348C264.016 194.645 264.549 193.772 264.914 192.73C265.292 191.689 265.48 190.491 265.48 189.137V167.867H254.816ZM261.359 162.301C261.359 162.887 261.535 163.382 261.887 163.785C262.238 164.176 262.779 164.371 263.508 164.371C264.237 164.371 264.784 164.176 265.148 163.785C265.513 163.382 265.695 162.887 265.695 162.301C265.695 161.715 265.513 161.22 265.148 160.816C264.784 160.4 264.237 160.191 263.508 160.191C262.779 160.191 262.238 160.4 261.887 160.816C261.535 161.22 261.359 161.715 261.359 162.301ZM285.734 189.391C287.792 189.391 289.517 188.98 290.91 188.16C292.316 187.327 293.371 186.376 294.074 185.309L291.867 183.59C291.203 184.449 290.37 185.139 289.367 185.66C288.365 186.181 287.219 186.441 285.93 186.441C284.953 186.441 284.061 186.259 283.254 185.895C282.447 185.53 281.757 185.029 281.184 184.391C280.624 183.792 280.181 183.102 279.855 182.32C279.543 181.539 279.341 180.634 279.25 179.605V179.469H294.348V177.848C294.348 176.376 294.159 175.009 293.781 173.746C293.417 172.483 292.857 171.383 292.102 170.445C291.346 169.521 290.396 168.798 289.25 168.277C288.117 167.743 286.789 167.477 285.266 167.477C284.055 167.477 282.87 167.724 281.711 168.219C280.565 168.714 279.543 169.423 278.645 170.348C277.733 171.285 277.004 172.431 276.457 173.785C275.91 175.126 275.637 176.65 275.637 178.355V179.176C275.637 180.647 275.884 182.008 276.379 183.258C276.874 184.508 277.564 185.589 278.449 186.5C279.335 187.411 280.396 188.121 281.633 188.629C282.883 189.137 284.25 189.391 285.734 189.391ZM285.266 170.445C286.19 170.445 286.984 170.615 287.648 170.953C288.326 171.292 288.885 171.734 289.328 172.281C289.771 172.828 290.116 173.479 290.363 174.234C290.611 174.977 290.734 175.673 290.734 176.324V176.5H279.367C279.51 175.523 279.758 174.664 280.109 173.922C280.474 173.167 280.917 172.529 281.438 172.008C281.958 171.5 282.544 171.116 283.195 170.855C283.846 170.582 284.536 170.445 285.266 170.445ZM309.426 186.461C308.293 186.461 307.342 186.24 306.574 185.797C305.819 185.341 305.214 184.749 304.758 184.02C304.289 183.303 303.951 182.496 303.742 181.598C303.547 180.686 303.449 179.768 303.449 178.844V178.023C303.449 177.112 303.547 176.207 303.742 175.309C303.951 174.41 304.289 173.596 304.758 172.867C305.227 172.151 305.839 171.572 306.594 171.129C307.362 170.673 308.306 170.445 309.426 170.445C310.155 170.445 310.832 170.569 311.457 170.816C312.095 171.064 312.642 171.402 313.098 171.832C313.553 172.262 313.911 172.763 314.172 173.336C314.445 173.896 314.589 174.495 314.602 175.133H318.02C318.02 174.065 317.805 173.062 317.375 172.125C316.945 171.188 316.353 170.374 315.598 169.684C314.829 169.007 313.918 168.473 312.863 168.082C311.822 167.678 310.676 167.477 309.426 167.477C307.824 167.477 306.424 167.763 305.227 168.336C304.029 168.909 303.033 169.677 302.238 170.641C301.431 171.617 300.826 172.743 300.422 174.02C300.018 175.296 299.816 176.63 299.816 178.023V178.844C299.816 180.25 300.018 181.591 300.422 182.867C300.826 184.13 301.431 185.243 302.238 186.207C303.033 187.184 304.029 187.958 305.227 188.531C306.424 189.104 307.824 189.391 309.426 189.391C310.546 189.391 311.62 189.202 312.648 188.824C313.677 188.434 314.589 187.913 315.383 187.262C316.177 186.624 316.809 185.882 317.277 185.035C317.759 184.176 318.007 183.277 318.02 182.34H314.602C314.589 182.926 314.432 183.473 314.133 183.98C313.846 184.475 313.462 184.905 312.98 185.27C312.499 185.647 311.945 185.94 311.32 186.148C310.708 186.357 310.077 186.461 309.426 186.461ZM333 162.75H329.367V167.867H323.82V170.66H329.367V182.145C329.367 183.447 329.536 184.56 329.875 185.484C330.227 186.396 330.702 187.138 331.301 187.711C331.9 188.297 332.603 188.727 333.41 189C334.23 189.26 335.109 189.391 336.047 189.391C336.607 189.391 337.167 189.365 337.727 189.312C338.299 189.26 338.84 189.182 339.348 189.078C339.855 188.987 340.324 188.876 340.754 188.746C341.184 188.603 341.548 188.44 341.848 188.258L341.34 185.699C341.118 185.751 340.832 185.816 340.48 185.895C340.142 185.96 339.777 186.025 339.387 186.09C338.983 186.155 338.573 186.214 338.156 186.266C337.74 186.305 337.336 186.324 336.945 186.324C336.411 186.324 335.904 186.259 335.422 186.129C334.953 185.999 334.536 185.771 334.172 185.445C333.807 185.133 333.521 184.71 333.312 184.176C333.104 183.642 333 182.965 333 182.145V170.66H341.047V167.867H333V162.75ZM362.512 183.395C362.512 183.733 362.447 184.052 362.316 184.352C362.186 184.651 361.997 184.924 361.75 185.172C361.346 185.576 360.786 185.895 360.07 186.129C359.354 186.35 358.514 186.461 357.551 186.461C356.939 186.461 356.32 186.396 355.695 186.266C355.07 186.135 354.504 185.914 353.996 185.602C353.475 185.289 353.039 184.879 352.688 184.371C352.349 183.863 352.154 183.238 352.102 182.496H348.488C348.488 183.395 348.69 184.26 349.094 185.094C349.51 185.927 350.109 186.656 350.891 187.281C351.659 187.919 352.603 188.434 353.723 188.824C354.842 189.202 356.118 189.391 357.551 189.391C358.801 189.391 359.953 189.241 361.008 188.941C362.062 188.642 362.967 188.219 363.723 187.672C364.478 187.125 365.064 186.467 365.48 185.699C365.91 184.931 366.125 184.078 366.125 183.141C366.125 182.268 365.936 181.5 365.559 180.836C365.194 180.172 364.66 179.586 363.957 179.078C363.254 178.583 362.388 178.16 361.359 177.809C360.331 177.444 359.165 177.125 357.863 176.852C356.874 176.656 356.053 176.454 355.402 176.246C354.764 176.038 354.257 175.803 353.879 175.543C353.488 175.283 353.215 174.99 353.059 174.664C352.902 174.339 352.824 173.967 352.824 173.551C352.824 173.147 352.922 172.757 353.117 172.379C353.312 172.001 353.605 171.669 353.996 171.383C354.374 171.096 354.849 170.868 355.422 170.699C356.008 170.53 356.685 170.445 357.453 170.445C358.195 170.445 358.859 170.549 359.445 170.758C360.044 170.966 360.552 171.24 360.969 171.578C361.385 171.917 361.711 172.307 361.945 172.75C362.18 173.18 362.297 173.622 362.297 174.078H365.91C365.91 173.154 365.708 172.294 365.305 171.5C364.914 170.693 364.354 169.99 363.625 169.391C362.896 168.792 362.01 168.323 360.969 167.984C359.927 167.646 358.755 167.477 357.453 167.477C356.242 167.477 355.129 167.639 354.113 167.965C353.111 168.29 352.245 168.733 351.516 169.293C350.786 169.853 350.22 170.51 349.816 171.266C349.413 172.008 349.211 172.809 349.211 173.668C349.211 174.54 349.406 175.309 349.797 175.973C350.188 176.624 350.741 177.19 351.457 177.672C352.16 178.167 353.007 178.59 353.996 178.941C354.999 179.293 356.105 179.592 357.316 179.84C358.306 180.035 359.133 180.257 359.797 180.504C360.461 180.738 360.995 180.999 361.398 181.285C361.802 181.572 362.089 181.891 362.258 182.242C362.427 182.581 362.512 182.965 362.512 183.395Z" fill="white"/>
</svg>
