<svg width="466" height="490" viewBox="0 0 466 490" fill="none" xmlns="http://www.w3.org/2000/svg">
<g style="mix-blend-mode:exclusion">
<path d="M233.923 309.059C233.366 313.515 215.531 311.074 213.034 311.059C192.173 310.938 168.162 311.478 150.812 297.726C106.101 262.284 96.2816 151.235 167.701 140.392C209.67 134.021 266.938 150.167 299.034 177.948C321.024 196.981 342.554 231.44 345.034 261.059C347.811 294.221 325.561 330.07 298.145 347.059C275.961 360.806 249.551 367.193 224.257 371.948C203.685 375.815 176.032 381.687 154.812 376.837C110.594 366.73 94.9711 299.266 94.3676 261.504C93.6668 217.65 112.622 155.998 155.701 135.726C191.489 118.884 238.049 131.541 271.034 148.615C302.239 164.766 333.8 200.913 345.479 234.392C350.622 249.137 351.593 265.771 352.59 281.17C353.511 295.407 356.246 314.72 352.145 328.837C347.196 345.876 327.816 356.789 313.812 364.615C289.833 378.015 264.447 386.642 237.257 390.615C186.222 398.07 108.42 403.057 67.9232 363.726C50.4987 346.803 43.6211 320.814 39.2565 297.948C33.6666 268.662 29.8749 236.037 55.0343 214.726C81.7538 192.093 118.497 178.569 151.479 168.615C181.686 159.497 212.741 155.031 244.257 156.281C284.282 157.87 347.45 165.209 364.812 208.615C384.566 257.998 371.856 308.059 333.145 342.837C290.126 381.485 238.237 405.366 181.257 414.17C133.701 421.518 86.8029 418.063 52.8121 380.059C4.38668 325.917 3.13696 243.608 5.81208 175.392C7.26643 138.306 9.24411 95.0636 32.1454 63.5035C48.3078 41.2302 75.2822 27.5285 101.034 20.3924C124.237 13.9626 150.784 11.287 173.923 19.9479C204.254 31.3008 230.39 59.9506 249.034 85.2813C273.256 118.191 290.124 155.787 304.701 193.726C319.234 231.549 332.646 271.507 337.701 311.948C343.735 360.219 337.637 437.048 291.701 466.392C246.546 495.238 162.391 490.177 124.368 451.504C99.6269 426.34 88.407 389.376 81.0343 356.059C74.449 326.3 68.3599 290.668 75.4787 260.17C84.8121 220.185 125.979 198.722 162.812 190.837C214.149 179.846 259.256 192.366 301.701 223.281C340.616 251.626 358.142 297.418 346.145 345.059C339.875 369.96 323.148 385.545 300.923 396.837C255.91 419.707 200.411 432.887 150.034 434.726C72.469 437.557 42.217 346.822 31.701 283.726C24.3509 239.625 26.001 193.583 32.5899 149.503C38.4112 110.559 46.8865 66.2848 67.8121 32.0591C90.2569 -4.65151 145.455 0.350519 177.034 21.2813C201.902 37.7632 221.003 64.8664 237.701 88.8368C262.152 123.935 284.701 161.097 302.701 199.948C323.05 243.868 328.796 304.058 298.59 345.504C281.192 369.374 250.588 381.314 223.701 390.17C186.742 402.344 146.865 411.089 107.923 413.17C84.6306 414.415 61.6096 411.663 45.0343 393.059C27.1268 372.96 18.9193 343.031 18.701 316.726C18.0778 241.638 82.7266 202.533 146.479 182.392C188.066 169.254 229.193 162.166 272.145 173.726C306.96 183.095 347.766 201.548 373.59 227.503C406.733 260.816 425.807 326.361 399.701 368.281C364.022 425.573 298.718 451.355 236.034 466.392C199.849 475.073 157.869 484.814 122.368 466.837C88.9213 449.9 64.1195 415.082 52.5899 380.392C36.8568 333.056 40.1794 279.012 49.4787 230.837C59.3202 179.853 76.8432 125.308 109.479 83.9479C150.826 31.5477 241.303 31.7219 298.368 53.8368C364.943 79.6376 419.108 154.368 443.923 218.837C451.861 239.46 458.089 266.432 456.145 288.837C451.878 338.04 403.08 374.515 364.368 397.281C323.767 421.158 277.567 437.021 230.812 442.504C201.889 445.895 174.947 443.443 152.368 422.837C114.136 387.946 91.7795 322.696 130.145 280.392C168.783 237.79 220.269 226.359 275.034 227.059C314.508 227.564 349.771 236.085 377.034 266.392C399.148 290.975 407.052 321.222 404.145 353.948C399.365 407.768 336.529 424.668 292.368 435.726C227.826 451.887 162.53 447.703 109.479 402.615C77.411 375.36 66.6663 338.068 60.2565 298.059C53.6811 257.016 49.0745 210.051 79.8121 177.392C115.647 139.318 171.341 129.646 221.257 129.059C249.235 128.73 279.306 130.77 305.701 141.059C339.604 154.274 366.935 179.762 391.368 205.837C433.213 250.494 462.696 299.567 460.923 362.392C459.425 415.466 425.996 441.785 379.034 459.17C337.449 474.565 284.776 483.721 240.479 476.504C177.816 466.294 156.78 378.377 150.257 325.615C144.215 276.747 157.913 238.042 205.479 218.726C229 209.174 252.957 207.059 277.923 207.059" stroke="#FF0000" stroke-width="10" stroke-linecap="round"/>
</g>
</svg>
