<svg width="987" height="555" viewBox="0 0 987 555" fill="none" xmlns="http://www.w3.org/2000/svg">
<g style="mix-blend-mode:color-dodge">
<path d="M55.7973 154C51.1963 153.425 84.0176 143.808 86.6862 143.333C119.07 137.57 152.324 144.816 184.353 139.889C186.074 139.624 169.79 153.853 169.353 154.222C144.286 175.413 116.971 194.062 89.2418 211.556C69.6952 223.887 50.0733 236.4 29.5751 247.111C26.9492 248.483 20.2298 253.778 16.9084 253.778C10.7777 253.778 21.063 242.057 24.6862 237.111C44.0299 210.708 67.2378 186.856 89.7973 163.222C100.647 151.856 112.863 141.439 122.908 129.333C123.656 128.432 125.658 127.344 124.908 126.444C122.291 123.304 117.859 130.644 114.686 133.222C88.788 154.265 68.2874 181.286 43.0196 202.667C28.4014 215.036 74.8875 181.406 91.2418 171.444C105.713 162.63 120.336 153.438 136.02 146.889C137.099 146.438 146.39 142.422 144.464 144.444C118.929 171.256 95.3264 200.125 72.464 229.222C70.2987 231.978 68.0722 234.564 72.0196 230.222C90.5695 209.817 111.787 191.092 132.353 172.778C150.396 156.71 169.84 139.54 192.02 129.333C193.724 128.549 204.515 123.056 203.242 129C199.564 146.165 183.651 161.988 172.686 174.667C155.952 194.016 138.42 212.784 120.575 231.111C113.49 238.388 103.538 245.918 98.6862 255.111C93.6418 264.669 115.782 241.821 123.575 234.333C159.944 199.391 196.771 164.965 236.464 133.778C254.718 119.435 274.772 101.857 296.908 93.5556C304.632 90.6592 303.82 93.1739 299.353 99.3333C281.236 124.315 260.534 147.515 239.575 170.111C223.285 187.674 206.772 205.035 190.797 222.889C180.466 234.435 192.226 223.687 195.575 220.667C239.463 181.086 288.987 141.749 342.02 114.889C351.106 110.287 345.466 118.708 342.353 123.444C327.812 145.571 308.232 164.548 291.131 184.667C280.788 196.834 270.098 208.559 259.464 220.444C256.918 223.29 266.295 216.952 269.353 214.667C308.952 185.074 351.41 152.722 398.908 136.889C406.313 134.421 405.049 139.991 402.131 145.667C389.003 171.193 364.115 191.957 343.575 211.333C327.919 226.102 312.717 241.78 296.575 256C296.345 256.203 288.14 263.267 288.686 263.111C306.847 257.922 327.115 239.887 342.575 229.889C365.952 214.771 388.089 198.005 410.686 181.778C415.771 178.126 429.498 165.649 425.908 170.778C417.056 183.424 402.697 194.186 392.242 205.556C378.917 220.046 366.041 234.966 352.464 249.222C350.154 251.647 343.443 258.95 346.242 257.111C374.102 238.803 397.902 212.336 428.464 198.444C435.123 195.418 433.494 199.147 430.797 204.444C421.543 222.622 408.82 238.854 395.797 254.444C387.364 264.541 378.33 273.869 369.353 283.444C366.535 286.45 373.811 276.486 376.464 273.333C391.116 255.917 405.175 237.606 421.575 221.778C429.137 214.479 440.736 201.739 451.353 198.444C453.126 197.894 438.297 221.645 438.131 221.889C425.265 240.721 411.65 258.741 397.575 276.667C396.36 278.214 385.462 294.113 388.02 291.556C402.707 276.868 416.167 260.852 430.464 245.778C440.429 235.271 450.161 224.4 460.464 214.222C465.445 209.302 471.097 205.753 463.797 215.111C449.579 233.34 434.36 254.473 416.02 268.667C398.023 282.595 439.956 229.71 454.908 212.556C476.108 188.233 547.821 123.105 526.02 146.889C509.458 164.956 492.27 182.451 472.575 197.222C445.657 217.411 523.788 153.472 550.908 133.556C555.786 129.974 570.935 121.452 564.908 122C548.032 123.534 528.487 133.993 513.02 139.667C476.953 152.897 441.22 167.086 405.131 180.222C404.034 180.621 370.295 191.71 371.131 187.111C373.354 174.883 401.015 154.735 412.575 150.111C417.204 148.259 402.656 153.141 399.131 156.667C393.157 162.641 413.414 147.635 420.686 143.333C447.917 127.227 475.382 110.743 504.797 98.8889C513.217 95.496 534.406 84.7553 544.464 86.8889C552.824 88.6621 535.155 116.519 534.464 117.444C519.743 137.139 500.927 154.257 483.131 171.111C479.612 174.443 473.367 180.323 469.575 183.778C467.29 185.859 459.842 190.606 462.908 190.222C472.685 189 486.69 173.4 493.797 167.556C500.217 162.276 507.57 153.52 515.797 150.778C540.578 142.517 567.712 143.888 593.131 139C603.272 137.05 580.651 154.104 577.908 157.111C572.282 163.278 564.19 170.498 560.242 178C557.064 184.037 570.613 169.127 575.575 164.444C592.12 148.831 619.482 124.222 644.464 124.222C648.108 124.222 641.658 131.01 639.575 134C630.455 147.096 621.005 159.824 611.242 172.444C600.742 186.017 599.892 187.789 615.575 177.333C618.213 175.575 665.353 147.942 665.353 151.667C665.353 163.296 647.441 180.086 641.131 188.222C631.768 200.293 623.067 216.688 611.464 226.778C576.733 256.979 670.396 155.021 706.908 127C709.196 125.244 725.995 110.687 730.908 114.444C734.373 117.094 714.873 142.118 714.02 143.222C701.027 160.026 653.333 202.687 668.353 187.667C683.986 172.034 701.203 157.496 718.686 144C731.628 134.01 746.413 121.133 762.131 115.556C771.793 112.127 757.537 136.104 751.575 144.444C728.646 176.523 700.415 205.652 671.797 232.667C663.223 240.761 648.632 258.45 636.686 262.667C635.309 263.153 637.967 260.006 638.908 258.889C649.091 246.805 661.184 236.046 672.908 225.556C704.798 197.023 738.114 169.881 772.02 143.778C781.433 136.53 794.867 122.919 807.242 120.444C812.941 119.305 805.945 132.378 802.908 137.333C781.095 172.933 753.326 205.744 726.575 237.667C709.107 258.511 690.873 278.721 673.131 299.333C663.357 310.688 683.115 294.684 683.686 294.222C744.709 244.823 803.586 192.336 863.797 141.889C896.47 114.515 813.753 211.244 784.242 242C767.964 258.964 749.328 273.842 733.353 291C726.647 298.203 750.113 280.592 757.797 274.444C767.242 266.888 776.525 259.012 786.131 251.667C788.836 249.598 773.515 265.171 773.131 265.556C754.729 283.957 737.106 304.009 716.575 320.111C715.125 321.249 712.227 323.9 711.464 322.222C711.188 321.614 711.26 320.811 711.575 320.222C715.247 313.372 730.401 293.425 731.797 291.556C764.131 248.258 796.483 204.696 831.02 163.111C831.128 162.98 856.586 133.294 857.353 134.444C861.013 139.935 837.046 167.652 834.575 170.778C822.768 185.714 809.826 199.783 796.464 213.333C785.736 224.213 809.885 205.965 810.353 205.667C821.082 198.819 831.723 192.046 842.908 186C860.273 176.614 806.733 201.944 788.02 208.222C784.797 209.303 781.351 212.483 778.242 211.111C771.35 208.07 780.253 196.123 782.353 188.889C786.893 173.25 799.742 151.852 799.575 135.333C799.34 112.095 701.491 138.153 686.686 145.556C681.509 148.144 679.231 152.554 675.908 157.111C656.906 183.172 633.835 205.912 610.242 227.778C566.22 268.576 520.99 308.985 474.353 346.778C445.654 370.033 414.429 394.079 380.686 409.778C362.101 418.424 352.006 416.25 364.02 392.889C385.871 350.4 423.306 313.036 462.686 286.444C489.413 268.397 451.256 312.13 447.353 316.889C433.778 333.441 420.553 351.618 405.797 367.111C405.589 367.33 416.309 352.368 417.02 351.444C427.825 337.397 438.931 317.589 453.353 306.889C467.353 296.502 434.757 336.406 424.575 350.556C414.026 365.216 403.312 379.759 392.797 394.444C388.945 399.825 385.097 405.21 381.353 410.667C378.794 414.396 369.735 421.847 374.242 422.222C379.307 422.644 381.202 414.813 384.686 411.111C395.578 399.539 404.007 390.814 415.575 379.556C417.245 377.931 454.268 345.368 452.797 350.222C451.135 355.707 446.585 361.524 443.575 365.667C426.711 388.878 408.324 411.074 390.242 433.333C373.009 454.547 355.302 475.116 336.686 495.111C333.41 498.63 324.506 509.486 328.686 507.111C345.537 497.537 360.416 481.278 375.02 468.778C381.127 463.55 396.396 450.391 402.686 445.111C408.919 439.88 422.875 422.976 422.686 431.111C422.566 436.278 418.083 440.37 415.575 444.889C408.933 456.857 402.458 468.964 395.353 480.667C387.426 493.722 362.615 531.238 374.242 521.333C394.622 503.972 411.798 482.52 431.131 464C436.798 458.571 453.232 443.465 450.686 450.889C447.554 460.026 400.837 526.04 402.464 527.667C408.078 533.28 445.824 499.509 454.575 494.222C467.075 486.67 478.343 476.617 489.575 467.333C492.765 464.697 498.21 457.303 502.575 456.333C507.313 455.281 498.959 465.471 496.02 469.333C486.441 481.919 476.372 494.092 466.908 506.778C460.485 515.388 452.773 523.711 448.242 533.556C447.299 535.604 443.271 544.203 448.131 537.333C463.158 516.088 480.514 496.338 496.464 475.778C513.489 453.831 530.085 430.142 550.353 411C552.475 408.996 560.93 401.94 561.353 409.556C562.137 423.665 551.517 435.629 543.131 445.667C532.166 458.791 520.563 471.461 510.242 485.111C503.07 494.596 528.186 469.502 537.131 461.667C552.643 448.077 567.609 432.227 585.575 421.778C586.799 421.066 597.836 414.044 597.131 419.333C595.742 429.752 589.712 441.763 582.242 449.111C581.315 450.022 574.194 457.059 573.908 453.778C573.038 443.771 576.043 433.358 579.797 424.222C586.965 406.78 584.86 421.625 583.797 430C583.175 434.905 574.411 471.542 583.575 472C619.518 473.797 653.062 454.047 684.02 438.444C698.472 431.16 706.568 425.042 698.02 446.889C692.255 461.619 682.741 474.822 673.242 487.333C669.037 492.871 656.708 506.197 672.464 492.667C686.079 480.975 699.732 464.294 715.464 455.444C718.207 453.902 699.432 482.103 698.686 483.111C687.508 498.213 650.734 540.841 664.02 527.556C679.097 512.478 691.842 494.587 706.02 478.667C722.42 460.25 740.207 441.043 761.575 428.222C776.226 419.432 767.168 442.13 764.686 447.333C756.084 465.371 743.143 481.358 732.353 498.111C726.952 506.496 720.117 511.528 729.575 498.222C748.58 471.487 773.055 448.456 798.242 427.667C802.465 424.181 815.101 414.645 812.464 419.444C795.152 450.952 767.833 479.624 745.797 507.778C740.214 514.911 723.085 536.008 728.686 528.889C746.147 506.7 765.315 485.966 784.797 465.556C795.874 453.951 810.595 438.989 822.575 427.444C823.429 426.622 833.82 415.136 838.02 414.889C839.602 414.796 836.252 417.546 835.131 418.667C828.693 425.104 821.778 431.056 814.797 436.889C803.983 445.926 787.393 465.065 799.797 436.667C806.746 420.758 819.091 395.051 826.464 380.222C831.206 370.685 836.121 361.235 841.02 351.778C846.408 341.375 856.163 331.599 855.797 319.889C855.503 310.485 803.94 335.961 798.464 338.667C796.9 339.439 777.33 350.945 779.353 345.889C779.809 344.748 785.728 334.109 785.353 332.556C785.022 331.183 782.343 332.165 781.131 332.889C776.691 335.541 755.137 353.359 752.02 355.556C729.661 371.308 759.46 331.783 763.131 326.889C764.897 324.533 769.893 317.818 772.131 315C775.069 311.3 775.534 311.419 772.242 314.667C768.783 318.079 759.859 326.49 757.131 329.111C753.598 332.504 750.078 335.91 746.575 339.333C742.472 343.343 734.942 356.901 734.131 351.222C733.868 349.381 736.203 348.129 737.353 346.667C740.575 342.57 743.899 338.554 747.242 334.556C759.202 320.25 771.545 306.351 784.908 293.333C785.442 292.813 810.898 270.081 804.353 277.444C795.187 287.757 785.321 297.365 775.575 307.111C769.075 313.611 788.574 294.106 795.242 287.778C800.874 282.433 815.185 269.144 820.686 264C825.206 259.773 837.606 250.884 840.908 244.444C843.129 240.114 794.148 250.053 803.797 234.444C818.934 209.959 844.275 190.009 865.131 170.778C876.272 160.505 882.681 154.766 893.464 145.111C895.031 143.708 901.965 136.159 905.353 134.889C908.766 133.609 902.511 141.703 900.242 144.556C895.227 150.86 882.662 170.566 884.242 162.667C885.308 157.333 889.313 153.028 892.242 148.444C904.321 129.537 917.378 111.294 930.353 93C935.286 86.0442 943.282 79.9297 944.131 71.4444C945.115 61.6001 926.12 79.8758 918.02 85.5556C902.89 96.1637 912.579 86.8406 917.464 82.4444C917.599 82.3225 919.578 80.1133 920.575 80.7778C925.319 83.9404 917.502 91.9895 914.242 96.6667C903.551 112.002 885.833 137.669 867.908 145.556C863.531 147.482 870.147 130.128 870.908 128.667C871.791 126.973 854.893 139.739 851.908 142C843.764 148.17 835.603 154.448 828.242 161.556C823.963 165.687 840.973 147.178 840.464 147.333C836.592 148.512 830.464 158.27 830.464 154.222C830.464 145.738 852.091 129.747 857.353 124.444C861.994 119.768 871.343 111.258 860.131 120.556C850.891 128.218 842.589 136.524 834.02 144.889C811.777 166.602 877.967 100.742 897.353 76.4444C906.189 65.3694 912.317 52.7238 922.242 42.4444C931.092 33.2783 921.735 48.1267 923.131 47.7778C926.586 46.9139 928.384 42.9396 930.686 40.2222C952.749 14.185 972.992 -13.509 993.464 -40.7778C1014.83 -69.2314 1035.57 -98.2152 1057.8 -126" stroke="#FA00FF" stroke-width="30" stroke-linecap="round"/>
</g>
</svg>
