<svg width="991" height="712" viewBox="0 0 991 712" fill="none" xmlns="http://www.w3.org/2000/svg">
<g style="mix-blend-mode:multiply">
<path d="M-268.798 334.556C-276.126 333.639 -258.763 323.643 -253.02 319C-192.711 270.239 -129.546 225.837 -61.4645 188.444C-12.4307 161.513 36.7565 139.594 91.5355 127.889C112.447 123.421 133.777 121.746 154.758 117.667C158.41 116.957 163.55 114.556 167.202 114.556C171.12 114.556 165.897 121.465 165.647 121.889C148.712 150.517 128.64 177.572 108.98 204.333C36.1128 303.519 -60.1048 396.225 -82.7978 521.667C-85.7357 537.907 -86.7978 553.773 -86.7978 570.222C-86.7978 571.148 -86.7978 573.926 -86.7978 573C-86.7978 561.222 -78.0292 545.716 -73.3534 536.222C-43.6609 475.937 -1.10254 421.844 39.9799 369.111C84.0452 312.55 129.263 256.744 185.313 211.556C249.491 159.815 322.598 115.731 397.091 80.4444C425.467 67.0032 452.271 58.5556 483.647 58.5556C496.314 58.5556 494.008 64.7856 492.536 77.6667C489.03 108.338 477.351 137.588 465.647 165.889C436.796 235.65 402.559 303.281 369.313 371C319.352 472.767 271.4 578.66 202.202 669.333C200.974 670.942 178.389 700.567 187.869 681.444C197.615 661.784 212.09 644.167 225.202 626.778C253.854 588.779 282.287 550.504 311.869 513.222C365.287 445.899 421.646 380.658 480.091 317.667C508.342 287.218 534.897 250.967 569.647 227.444C573.904 224.562 586.163 214.778 592.091 214.778C598.031 214.778 588.888 226.316 586.091 231.556C566.312 268.601 541.076 303.035 517.647 337.778C443.087 448.343 364.857 556.783 297.869 672.222C280.832 701.582 263.165 731.567 250.313 763.111C248.758 766.928 250.357 754.812 251.202 750.778C260.574 706.059 275.562 663.477 295.424 622.333C338.421 533.268 395.189 449.599 461.647 376.333C515.581 316.874 581.023 263.743 649.424 221.667C677.406 204.454 707.078 186.02 739.424 178.556C744.438 177.399 755.868 170.613 750.313 180.333C733.581 209.615 712.476 236.803 693.424 264.556C666.493 303.786 639.682 343.098 612.758 382.333C592.705 411.554 569.315 440.428 556.091 473.667C551.411 485.431 551.496 498.118 547.647 510.111C545.367 517.214 543.026 525.548 538.202 531.444C535.176 535.143 535.387 529.52 535.313 527.111C534.506 500.859 540.617 475.867 550.647 451.667C572.835 398.13 606.003 347.753 640.091 301.222C692.696 229.415 750.355 159.443 812.758 95.8889C834.818 73.4219 859.148 54.5627 886.202 38.5556C896.164 32.6614 908.289 25 920.424 25C934.123 25 909.983 50.5392 902.313 61.8889C863.971 118.624 822.588 173.401 786.536 231.667C758.355 277.211 737.906 325.75 713.647 373.222C706.233 387.73 698.653 402.183 690.98 416.556C688.527 421.151 679.621 433.894 683.202 430.111C732.595 377.935 777.734 321.525 826.313 268.556C849.792 242.955 874.223 212.838 905.202 195.222C918.413 187.71 896.364 223.979 895.98 224.778C861.908 295.612 817.469 360.471 771.313 423.889C752.822 449.296 734.415 474.843 713.536 498.333C706.292 506.483 734.12 478.883 735.313 477.778C779.523 436.825 825.811 398.011 872.091 359.444C895.141 340.237 919.204 317.204 947.647 306C957.883 301.967 958.557 308.132 956.313 317.667C952.372 334.419 941.437 349.75 932.647 364.222C916.293 391.145 898.388 417.09 881.313 443.556C861.269 474.625 840.811 505.031 826.091 539C821.236 550.204 837.98 517.662 844.313 507.222C863.471 475.64 883.073 444.276 904.091 413.889C921.245 389.089 940.648 359.499 964.758 340.556C970.301 336.2 940.436 350.583 940.091 350.778C880.906 384.241 830.712 430.217 777.202 471.667C752.108 491.105 727.109 511.234 700.313 528.333C695.991 531.092 691.133 533.214 687.202 536.556C685.708 537.826 687.431 532.529 688.313 530.778C700.986 505.61 718.071 482.687 734.758 460.111C794.53 379.243 857.715 300.415 920.536 221.889C923.643 218.004 926.819 214.175 929.98 210.333C932.098 207.759 936.576 205.613 935.98 202.333C935.506 199.729 930.719 203.458 928.424 204.778C917.279 211.186 907.005 218.945 896.758 226.667C835.91 272.519 779.642 322.514 723.091 373.333C696.236 397.467 667.267 425.382 632.758 438.222C602.9 449.332 628.322 389.576 631.869 380.889C659.361 313.55 697.506 249.607 733.536 186.556C735.304 183.461 741.268 175.555 732.647 177.667C715.05 181.976 698.289 196.207 683.647 206C631.801 240.674 578.087 285.083 517.313 302.556C503.25 306.599 496.815 306.539 502.313 290.778C515.781 252.17 543.504 216.058 567.869 183.667C579.758 167.861 592.259 151.604 605.647 137C652.343 86.0586 505.002 232.317 448.98 272.778C446.13 274.836 407.146 295.959 407.869 292.889C410.974 279.692 437.203 260.594 445.313 253.111C468.609 231.617 493.274 212.297 518.536 193.222C536.826 179.411 589.853 135.905 573.647 152.111C537.192 188.566 503.018 227.642 464.313 261.778C435.053 287.584 402.069 315.886 365.647 331.222C353.353 336.398 335.7 344.188 322.091 344.556C319.457 344.627 318.877 343.41 319.647 340.778C326.016 318.986 349.144 298.236 363.424 283C391.761 252.767 421.145 219.206 453.869 193.444C465.857 184.007 433.326 216.008 422.98 227.222C376.032 278.11 327.915 328.502 272.313 370.111C241.896 392.874 210.528 413.724 178.535 434.111C176.008 435.721 170.818 441.12 167.647 441.667C155.214 443.81 143.884 443.971 131.424 448.111C77.3343 466.086 28.8805 501.41 -21.4645 527.667C-23.815 528.892 -56.8314 548.096 -53.909 538.111C-48.9383 521.128 -35.8438 505.306 -25.5756 491.444C-3.6481 461.842 19.4976 432.894 43.4244 404.889C78.802 363.481 117.203 328.915 160.424 296.222C162.548 294.616 185.749 276.142 189.869 278.889C193.117 281.055 184.685 284.741 181.869 287.444C157.753 310.596 134.407 334.488 110.98 358.333C52.5137 417.841 -5.53751 477.911 -67.2423 534.111C-77.5899 543.536 -88.1962 552.893 -99.4645 561.222C-101.051 562.395 -105.736 565.962 -104.353 564.556C-92.5903 552.593 -79.7421 541.746 -67.2423 530.556C-1.3643 471.579 64.6468 409.976 139.202 361.889C155.147 351.605 175.953 339.581 195.202 335.889C205.073 333.996 178.43 347.004 169.647 351.889C139.052 368.904 108.386 385.76 77.9799 403.111C30.1916 430.382 -19.1951 458.561 -72.0201 474.889C-87.9125 479.801 -78.1264 461.915 -74.3534 453.556C-42.8511 383.756 7.90135 320.085 56.7577 261.889C72.9821 242.563 90.105 223.665 108.869 206.778C108.908 206.743 113.286 203.189 111.98 202.667C110.392 202.031 108.275 204.174 107.535 204.667C97.7976 211.159 88.7 218.466 79.6466 225.889C36.2543 261.466 -4.51352 300.094 -47.909 335.667C-64.7268 349.453 -82.1567 364.611 -103.353 371.111C-105.313 371.712 -124.576 378.826 -124.576 371.889C-124.576 348.321 -97.2981 324.297 -84.5756 307C-66.6149 282.582 -49.4351 257.701 -31.2423 233.444C-26.1724 226.685 -34.2348 228.382 -39.6867 228.556C-74.4672 229.666 -101.425 251.111 -129.465 269.222C-150.307 282.685 -170.783 293.772 -195.02 299.444C-197.292 299.976 -206.138 304.351 -204.02 298.889C-196.414 279.273 -181.628 260.7 -168.131 244.889C-145.253 218.089 -115.706 192.001 -85.909 173C-76.7604 167.166 -49.6294 150.553 -56.5756 158.889C-59.1436 161.97 -66.2166 165.467 -69.0201 167.667C-82.868 178.533 -95.0333 191.284 -108.131 203C-133.455 225.651 -160.134 249.079 -188.353 268.111C-202.525 277.669 -156.708 254.616 -142.576 245C-137.794 241.746 -125.887 233.729 -138.576 233C-166.392 231.401 -192.041 259.738 -213.242 274.111C-216.651 276.422 -259.914 301.861 -260.353 299.222C-261.55 292.04 -250.666 280.996 -247.242 276.556C-233.266 258.431 -219.042 240.207 -203.687 223.222C-193.954 212.456 -180.089 194.037 -166.798 187C-154.062 180.258 -187.135 207.487 -198.242 216.667C-219.651 234.36 -243.392 255.195 -271.353 261.333C-283.018 263.894 -284.513 260.64 -280.131 248.889C-271.528 225.818 -253.692 203.929 -238.131 185.111C-233.71 179.765 -226.928 169.43 -220.02 166.667C-219.998 166.658 -226.057 170.045 -226.465 170.333C-238.12 178.578 -248.02 189.462 -258.465 199.111C-265.263 205.392 -293.297 232.171 -272.131 208.889C-264.253 200.222 -256.146 191.857 -247.353 184.111C-244.316 181.436 -238.233 177.779 -236.465 173.889C-235.436 171.626 -241.466 172.982 -243.909 173.444C-255.775 175.689 -265.666 181.108 -275.909 187.222C-277.756 188.325 -303.779 202.973 -304.353 202.111C-306.362 199.098 -271.483 164.86 -267.687 160.333C-265.229 157.403 -256.761 149.629 -259.465 152.333C-264.953 157.821 -271.046 162.901 -276.798 168.111C-288.932 179.101 -301.411 189.679 -315.465 198.111C-326.523 204.746 -308.214 185.635 -307.02 184.333C-302.242 179.125 -282.099 164.556 -297.242 164.556C-301.045 164.556 -307.028 163.016 -308.798 166.556" stroke="#33FF00" stroke-width="50" stroke-linecap="round"/>
</g>
</svg>
